{"glyphs":{"0":{"ha":911,"x_min":96,"x_max":874,"o":"m 361 -14 q 253 13 301 -14 q 169 89 204 40 q 115 206 135 138 q 96 358 96 275 q 140 622 96 492 q 258 854 185 751 q 422 1020 331 957 q 607 1083 513 1083 q 716 1058 667 1083 q 800 985 765 1032 q 854 874 835 939 q 874 729 874 808 q 853 552 874 642 q 795 380 832 463 q 708 226 758 297 q 601 101 658 154 q 483 17 544 47 q 361 -14 422 -14 m 593 1011 q 512 979 553 1011 q 433 892 471 947 q 361 763 394 838 q 303 604 328 689 q 265 428 279 519 q 250 249 250 338 q 283 109 250 158 q 379 60 317 60 q 460 92 419 60 q 538 179 500 124 q 608 309 575 235 q 666 469 642 383 q 704 648 690 556 q 718 831 718 740 q 686 965 718 918 q 593 1011 654 1011 z "},"1":{"ha":658,"x_min":-6,"x_max":592,"o":"m 413 372 q 387 267 399 317 q 375 176 375 217 q 382 126 375 149 q 406 88 389 104 q 452 64 424 72 q 524 56 481 56 l 508 0 l -6 0 l 10 56 q 95 64 58 56 q 159 94 132 72 q 206 154 186 117 q 239 249 225 192 l 381 819 q 383 832 382 826 q 383 842 383 838 q 363 860 383 860 q 290 849 339 860 q 160 838 240 838 l 168 896 q 279 911 228 896 q 376 953 331 926 q 463 1013 422 979 q 540 1083 503 1046 l 592 1083 l 413 372 z "},"2":{"ha":868,"x_min":15,"x_max":819,"o":"m 229 136 l 513 136 q 572 141 546 136 q 619 158 597 146 q 658 190 640 169 q 696 240 676 210 l 747 240 l 660 0 l 15 0 l 28 74 q 322 322 201 213 q 516 520 442 431 q 623 685 590 610 q 656 833 656 761 q 614 963 656 914 q 499 1011 572 1011 q 423 996 458 1011 q 361 955 388 981 q 320 894 335 929 q 306 821 306 860 q 340 724 306 758 q 436 689 374 689 q 392 635 424 654 q 317 615 360 615 q 207 663 249 615 q 165 786 165 710 q 194 903 165 849 q 272 997 222 957 q 387 1061 321 1038 q 528 1085 453 1085 q 647 1067 593 1085 q 740 1015 701 1049 q 799 935 778 982 q 819 829 819 888 q 787 685 819 758 q 683 529 754 611 q 501 352 613 447 q 229 143 389 257 l 229 136 z "},"3":{"ha":857,"x_min":33,"x_max":785,"o":"m 571 304 q 559 390 571 350 q 526 458 547 429 q 477 504 506 488 q 415 521 449 521 q 360 515 392 521 q 306 510 329 510 q 261 538 261 510 q 289 572 261 561 q 358 590 317 582 q 447 611 399 599 q 535 651 494 624 q 604 728 576 679 q 632 858 632 776 q 602 975 632 938 q 507 1013 572 1013 q 388 972 433 1013 q 342 869 342 932 q 365 803 342 826 q 428 779 388 779 q 391 741 417 756 q 333 726 365 726 q 248 762 281 726 q 215 856 215 797 q 238 946 215 904 q 301 1018 261 988 q 397 1066 342 1049 q 518 1083 453 1083 q 713 1026 640 1083 q 785 869 785 968 q 765 774 785 821 q 712 688 746 728 q 632 620 678 649 q 533 579 586 592 l 533 571 q 682 481 629 546 q 735 326 735 417 q 702 194 735 256 q 613 86 669 132 q 481 13 557 40 q 321 -14 406 -14 q 204 2 257 -14 q 113 46 151 18 q 54 113 75 74 q 33 201 33 153 q 47 276 33 240 q 84 338 61 311 q 138 379 107 364 q 204 394 169 394 q 267 378 240 394 q 299 333 293 361 q 251 322 274 333 q 210 290 228 310 q 183 243 193 269 q 172 186 172 217 q 214 92 172 125 q 332 58 256 58 q 430 76 386 58 q 505 126 474 93 q 553 203 536 158 q 571 304 571 249 z "},"4":{"ha":803,"x_min":18,"x_max":760,"o":"m 589 481 l 760 481 l 739 396 l 568 396 l 472 0 l 328 0 l 428 396 l 18 396 l 36 467 l 682 1083 l 743 1083 l 589 481 m 451 481 l 551 844 l 547 846 l 163 481 l 451 481 z "},"5":{"ha":847,"x_min":43,"x_max":821,"o":"m 442 682 q 572 659 513 682 q 676 594 632 636 q 744 496 719 553 q 768 372 768 439 q 733 222 768 293 q 639 99 699 151 q 499 17 579 47 q 329 -14 419 -14 q 211 2 264 -14 q 121 47 158 18 q 63 116 83 75 q 43 207 43 157 q 55 278 43 244 q 87 338 67 313 q 133 379 107 364 q 190 394 160 394 q 249 377 224 394 q 281 333 275 360 q 206 296 236 333 q 175 201 175 258 q 219 97 175 135 q 338 58 263 58 q 444 83 396 58 q 528 152 493 108 q 584 256 564 196 q 604 389 604 317 q 555 556 604 499 q 410 613 506 613 q 326 600 360 613 q 267 572 292 588 q 227 543 243 556 q 199 531 211 531 q 184 537 190 531 q 178 554 178 543 q 181 572 178 564 l 354 1083 q 447 1065 388 1072 q 581 1058 506 1058 q 717 1065 657 1058 q 813 1085 776 1072 l 821 1083 q 579 918 763 918 q 534 920 558 918 q 484 926 510 922 q 433 933 458 929 q 386 943 408 938 l 293 669 l 299 661 q 325 669 308 665 q 361 676 342 672 q 402 681 381 679 q 442 682 424 682 z "},"6":{"ha":882,"x_min":99,"x_max":867,"o":"m 776 388 q 745 234 776 307 q 661 106 714 161 q 540 19 608 51 q 394 -14 471 -14 q 272 13 326 -14 q 178 91 217 40 q 119 213 140 142 q 99 375 99 285 q 144 640 99 513 q 267 867 190 768 q 444 1024 344 965 q 650 1083 543 1083 q 735 1072 696 1083 q 804 1041 775 1061 q 850 994 833 1021 q 867 935 867 967 q 847 877 867 899 q 792 856 826 856 q 743 874 763 856 q 724 932 724 893 q 708 999 724 976 q 650 1021 693 1021 q 540 992 594 1021 q 438 910 486 963 q 352 785 390 857 q 292 625 314 713 l 296 622 q 486 678 386 678 q 605 657 551 678 q 697 598 658 636 q 756 506 735 560 q 776 388 776 453 m 461 610 q 370 586 411 610 q 300 519 329 563 q 255 415 271 476 q 239 281 239 354 q 276 108 239 168 q 386 49 314 49 q 475 75 433 49 q 547 149 517 101 q 594 259 576 196 q 611 396 611 322 q 461 610 611 610 z "},"7":{"ha":728,"x_min":86,"x_max":832,"o":"m 435 944 q 353 942 385 944 q 299 928 321 939 q 263 899 278 918 q 229 844 247 879 l 200 790 l 140 790 l 269 1119 l 311 1119 q 310 1115 311 1117 q 310 1108 310 1113 q 333 1078 310 1088 q 411 1069 356 1069 l 832 1069 l 828 1042 q 738 900 786 981 q 629 715 689 819 q 497 479 569 610 q 336 189 425 349 q 278 90 303 129 q 232 27 253 50 q 192 -5 211 4 q 153 -14 174 -14 q 105 1 124 -14 q 86 43 86 17 q 94 75 86 57 q 124 129 101 93 q 190 227 147 165 q 303 389 232 289 l 693 944 l 435 944 z "},"8":{"ha":888,"x_min":60,"x_max":829,"o":"m 578 596 q 713 465 671 538 q 754 308 754 393 q 726 178 754 238 q 646 77 697 119 q 524 10 594 35 q 369 -14 453 -14 q 142 56 224 -14 q 60 253 60 126 q 351 561 60 478 q 241 672 279 610 q 203 801 203 733 q 231 911 203 860 q 305 1001 258 963 q 413 1061 351 1039 q 544 1083 475 1083 q 656 1067 604 1083 q 747 1019 708 1050 q 808 948 786 989 q 829 860 829 907 q 810 770 829 814 q 756 691 790 726 q 676 631 722 656 q 578 596 631 606 m 403 532 q 200 243 200 440 q 245 106 200 153 q 378 60 290 60 q 472 75 429 60 q 544 118 514 90 q 592 183 575 146 q 610 267 610 221 q 576 387 610 335 q 475 485 542 439 l 403 532 m 525 625 q 653 726 608 669 q 697 854 697 782 q 655 967 697 922 q 533 1011 613 1011 q 460 999 494 1011 q 401 966 426 988 q 362 915 376 944 q 347 849 347 885 q 377 751 347 801 q 468 661 407 701 l 525 625 z "},"9":{"ha":881,"x_min":67,"x_max":835,"o":"m 157 696 q 188 844 157 774 q 272 967 219 914 q 394 1052 325 1021 q 539 1083 463 1083 q 662 1056 607 1083 q 755 978 717 1029 q 814 856 793 928 q 835 694 835 783 q 789 429 835 557 q 666 203 743 301 q 490 45 589 104 q 283 -14 390 -14 q 198 -3 238 -14 q 129 28 158 8 q 83 76 100 49 q 67 135 67 103 q 87 192 67 171 q 142 214 107 214 q 190 195 171 214 q 210 138 210 176 q 225 71 210 93 q 283 49 240 49 q 393 79 339 49 q 495 164 447 110 q 581 293 543 218 q 642 458 618 368 l 638 461 q 447 406 547 406 q 328 426 382 406 q 237 485 275 447 q 178 577 199 524 q 157 696 157 631 m 472 474 q 563 497 522 474 q 633 560 604 519 q 678 660 663 601 q 694 789 694 718 q 657 961 694 901 q 547 1021 619 1021 q 458 995 499 1021 q 387 924 417 969 q 340 819 357 879 q 322 688 322 758 q 472 474 322 474 z "}," ":{"ha":382,"x_min":0,"x_max":0,"o":""},"u":{"ha":824,"x_min":29,"x_max":772,"o":"m 235 86 q 293 117 257 86 q 369 201 329 149 q 448 319 410 253 q 513 458 486 386 l 615 736 l 744 736 l 642 418 q 604 299 619 349 q 579 216 589 250 q 565 160 569 182 q 561 126 561 139 q 586 90 561 90 q 619 103 600 90 q 659 140 639 117 q 698 191 679 163 q 731 251 717 219 l 772 231 q 725 141 754 185 q 662 63 696 97 q 590 7 628 28 q 517 -14 553 -14 q 458 17 474 -14 q 443 104 443 47 q 445 155 443 128 q 453 208 447 182 l 449 213 q 376 103 411 146 q 307 33 340 60 q 242 -3 274 7 q 179 -14 210 -14 q 88 22 114 -14 q 63 111 63 58 q 85 240 63 169 q 132 372 107 310 q 174 478 157 435 q 202 550 192 521 q 217 597 213 579 q 222 626 222 615 q 220 637 222 632 q 210 642 218 642 q 158 610 192 642 q 65 507 124 578 l 29 526 q 82 607 50 567 q 150 679 114 647 q 225 731 186 711 q 297 750 264 750 q 367 669 367 750 q 340 544 367 621 q 269 360 313 467 q 224 238 242 292 q 206 139 206 183 q 214 98 206 110 q 235 86 222 86 z "},"h":{"ha":797,"x_min":-10,"x_max":746,"o":"m 494 432 q 528 544 518 503 q 539 618 539 586 q 528 663 539 650 q 493 676 518 676 q 408 643 450 676 q 324 539 367 610 q 236 358 282 468 q 139 96 190 249 l 107 0 l -10 0 l 265 942 q 281 1003 275 976 q 286 1044 286 1029 q 260 1083 286 1072 q 163 1097 233 1094 l 172 1153 l 456 1153 l 297 617 l 301 614 q 404 715 346 679 q 526 750 463 750 q 628 711 593 750 q 663 599 663 672 q 649 492 663 553 q 606 351 635 431 q 563 233 578 276 q 540 167 547 190 q 531 136 533 144 q 529 122 529 128 q 556 90 529 90 q 624 123 583 90 q 707 214 665 156 l 746 185 q 691 108 724 144 q 620 45 658 72 q 542 2 582 18 q 468 -14 503 -14 q 414 7 431 -14 q 397 74 397 28 q 401 124 397 97 q 416 190 406 150 q 445 287 426 229 q 494 432 464 344 z "},"l":{"ha":435,"x_min":32,"x_max":435,"o":"m 254 960 q 268 1010 261 985 q 275 1049 275 1036 q 169 1097 275 1097 l 181 1139 l 435 1151 l 186 239 q 169 173 175 201 q 164 125 164 144 q 171 103 164 113 q 193 93 178 93 q 240 112 215 93 q 288 156 265 131 q 329 209 311 182 q 356 251 347 236 l 397 228 q 343 137 376 181 q 272 60 310 93 q 197 6 235 26 q 126 -14 158 -14 q 55 7 78 -14 q 32 76 32 28 q 40 151 32 104 q 69 281 49 199 l 254 960 z "},"r":{"ha":643,"x_min":29,"x_max":690,"o":"m 29 543 q 76 615 44 578 q 144 681 107 651 q 218 731 181 711 q 283 750 256 750 q 332 725 317 750 q 347 644 347 700 q 345 601 347 622 q 338 553 343 581 l 342 549 q 389 628 358 589 q 455 697 419 667 q 527 745 490 726 q 596 764 564 764 q 663 738 636 764 q 690 675 690 713 q 667 615 690 639 q 608 592 644 592 q 573 600 586 592 q 550 617 560 608 q 532 635 540 626 q 511 643 524 643 q 450 608 485 643 q 378 511 415 572 q 303 368 340 450 q 236 192 267 286 l 174 0 l 44 0 l 135 288 q 178 426 161 371 q 206 517 196 481 q 219 575 215 554 q 222 611 222 596 q 201 642 222 642 q 167 631 188 642 q 128 603 147 619 q 91 565 108 586 q 65 525 74 544 l 29 543 z "},"o":{"ha":726,"x_min":33,"x_max":661,"o":"m 260 -14 q 172 5 213 -14 q 100 60 131 24 q 51 148 69 96 q 33 265 33 200 q 67 443 33 356 q 157 599 101 531 q 284 708 213 667 q 432 750 356 750 q 524 731 482 750 q 597 677 567 713 q 644 592 626 642 q 661 483 661 543 q 626 307 661 396 q 535 147 592 218 q 407 31 479 76 q 260 -14 335 -14 m 268 56 q 362 104 315 56 q 445 227 408 153 q 505 389 482 301 q 528 556 528 476 q 502 657 528 629 q 432 685 476 685 q 370 663 401 685 q 311 604 339 642 q 259 518 283 567 q 217 415 235 469 q 189 305 199 361 q 179 197 179 249 q 204 88 179 119 q 268 56 229 56 z "},"p":{"ha":782,"x_min":-132,"x_max":729,"o":"m 21 521 q 136 626 72 579 q 271 701 200 672 l 336 924 l 442 924 l 393 739 q 437 746 415 743 q 481 749 458 749 q 664 685 599 749 q 729 506 729 621 q 685 333 729 414 q 569 188 642 251 q 401 81 496 124 q 203 25 306 39 l 151 -168 q 142 -203 144 -189 q 140 -228 140 -217 q 169 -276 140 -262 q 269 -292 197 -290 l 261 -347 l -132 -347 l -124 -292 q -39 -278 -65 -292 q -1 -228 -12 -264 l 250 631 q 149 565 197 603 q 58 482 100 526 l 21 521 m 444 681 q 409 678 426 681 q 375 674 392 676 l 218 85 q 353 136 288 99 q 471 229 419 174 q 553 353 522 285 q 585 497 585 422 q 547 631 585 581 q 444 681 508 681 z "},"d":{"ha":831,"x_min":15,"x_max":828,"o":"m 650 961 q 667 1024 661 999 q 672 1060 672 1049 q 644 1089 672 1081 q 544 1097 617 1097 l 560 1153 l 828 1153 l 674 590 q 625 406 644 482 q 594 277 606 329 q 578 192 582 225 q 574 136 574 158 q 583 92 574 104 q 608 79 593 79 q 674 131 639 79 q 738 265 710 182 l 790 253 q 687 51 743 115 q 560 -14 631 -14 q 483 18 510 -14 q 456 110 456 50 q 458 142 456 125 q 465 174 461 158 l 454 176 q 326 35 401 85 q 183 -14 251 -14 q 117 2 147 -14 q 64 47 86 18 q 28 115 42 75 q 15 203 15 154 q 34 327 15 263 q 85 452 53 392 q 161 567 118 513 q 252 662 204 621 q 351 726 300 703 q 450 750 401 750 q 522 732 497 750 q 569 675 546 714 l 650 961 m 460 676 q 387 653 424 676 q 315 592 350 631 q 251 504 281 554 q 199 400 221 454 q 163 290 176 346 q 150 186 150 235 q 175 106 150 136 q 242 76 200 76 q 307 102 274 76 q 372 169 340 128 q 433 265 404 211 q 483 374 461 318 q 517 485 504 431 q 529 585 529 540 q 513 652 529 628 q 460 676 496 676 z "},"b":{"ha":742,"x_min":39,"x_max":693,"o":"m 283 617 l 288 614 q 388 713 328 678 q 517 749 449 749 q 647 696 601 749 q 693 551 693 643 q 674 418 693 486 q 620 288 654 350 q 540 170 586 225 q 442 74 494 115 q 333 10 390 33 q 219 -14 275 -14 q 90 34 140 -14 q 39 158 39 82 q 54 260 39 194 q 99 418 69 326 l 267 960 q 281 1010 274 985 q 288 1049 288 1036 q 181 1097 288 1097 l 193 1139 l 460 1151 l 283 617 m 242 57 q 310 80 274 57 q 381 142 346 103 q 447 232 415 181 q 503 340 479 283 q 541 453 526 396 q 556 563 556 511 q 533 643 556 611 q 479 675 511 675 q 413 652 449 675 q 344 590 378 629 q 278 499 310 550 q 223 392 247 449 q 185 279 199 336 q 171 171 171 222 q 242 57 171 57 z "},"q":{"ha":743,"x_min":21,"x_max":714,"o":"m 421 118 l 417 121 q 324 20 379 54 q 203 -14 269 -14 q 68 45 115 -14 q 21 213 21 104 q 57 403 21 307 q 151 576 93 499 q 282 701 210 653 q 428 750 354 750 q 510 727 476 750 q 575 651 544 704 l 608 750 l 714 750 l 458 -193 q 449 -242 449 -228 q 471 -278 449 -267 q 556 -292 493 -290 l 547 -347 l 189 -347 l 197 -292 q 282 -278 256 -292 q 319 -228 308 -264 l 421 118 m 435 678 q 342 632 390 678 q 255 517 294 586 q 190 363 215 447 q 165 203 165 279 q 246 69 165 69 q 340 112 292 69 q 426 221 388 154 q 490 369 465 288 q 515 526 515 450 q 435 678 515 678 z "},"j":{"ha":415,"x_min":-265,"x_max":418,"o":"m 329 978 q 269 1001 294 978 q 243 1063 243 1025 q 268 1126 243 1100 q 329 1153 293 1153 q 393 1126 368 1153 q 418 1064 418 1100 q 392 1003 418 1028 q 329 978 365 978 m 169 460 q 191 549 183 514 q 199 603 199 583 q 178 631 199 631 q 144 616 163 631 q 109 582 126 601 q 78 543 92 563 q 58 513 64 524 l 18 538 q 65 606 35 568 q 132 675 94 643 q 210 728 169 707 q 286 750 250 750 q 356 672 356 750 q 337 551 356 626 q 289 371 318 476 l 174 -47 q 126 -163 157 -107 q 53 -263 94 -219 q -35 -334 13 -307 q -132 -361 -82 -361 q -228 -331 -190 -361 q -265 -256 -265 -300 q -247 -196 -265 -218 q -197 -174 -229 -174 q -154 -190 -168 -174 q -131 -226 -140 -206 q -112 -262 -122 -246 q -83 -278 -103 -278 q -24 -244 -50 -278 q 15 -157 1 -211 l 169 460 z "},"c":{"ha":613,"x_min":19,"x_max":597,"o":"m 518 224 q 383 47 460 108 q 218 -14 306 -14 q 74 48 128 -14 q 19 213 19 110 q 38 338 19 274 q 86 461 56 401 q 158 574 117 521 q 247 665 200 626 q 345 727 294 704 q 444 750 396 750 q 554 714 511 750 q 597 624 597 678 q 577 567 597 589 q 525 546 557 546 q 473 566 493 546 q 453 615 453 586 q 458 644 453 633 q 464 665 464 656 q 431 685 464 685 q 338 642 385 685 q 252 531 290 599 q 190 378 214 463 q 165 211 165 294 q 191 106 165 144 q 263 68 217 68 q 315 82 288 68 q 369 120 342 96 q 423 178 397 144 q 469 251 449 211 l 518 224 z "},"e":{"ha":633,"x_min":19,"x_max":615,"o":"m 515 185 q 218 -14 394 -14 q 71 45 122 -14 q 19 213 19 104 q 59 404 19 308 q 163 577 99 500 q 306 702 226 654 q 464 750 385 750 q 573 716 531 750 q 615 629 615 682 q 579 529 615 581 q 481 432 543 478 q 337 349 419 386 q 161 290 254 311 q 157 252 158 271 q 156 214 156 233 q 263 63 156 63 q 369 103 314 63 q 471 214 424 143 l 515 185 m 436 685 q 361 657 400 685 q 287 583 322 629 q 222 476 251 536 q 175 353 193 417 q 299 400 242 371 q 397 466 356 429 q 461 544 438 503 q 485 626 485 585 q 436 685 485 685 z "},"f":{"ha":464,"x_min":-269,"x_max":751,"o":"m 211 101 q 139 -130 175 -40 q 61 -271 103 -219 q -28 -342 19 -322 q -136 -361 -76 -361 q -232 -331 -194 -361 q -269 -256 -269 -300 q -251 -201 -269 -221 q -201 -181 -233 -181 q -161 -196 -172 -181 q -142 -229 -150 -211 q -125 -262 -135 -247 q -87 -278 -115 -278 q -29 -244 -56 -278 q 11 -157 -3 -211 l 213 625 l 79 625 l 97 689 l 229 689 q 296 901 260 814 q 374 1045 332 989 q 463 1127 415 1101 q 564 1153 510 1153 q 699 1119 646 1153 q 751 1033 751 1085 q 734 979 751 1001 q 685 957 717 957 q 644 967 658 957 q 622 992 629 976 q 610 1024 614 1007 q 601 1056 607 1040 q 585 1081 596 1071 q 551 1090 574 1090 q 497 1060 524 1090 q 444 977 469 1031 q 397 850 419 924 q 357 689 375 776 l 497 689 l 478 625 l 342 625 l 211 101 z "},"g":{"ha":764,"x_min":-104,"x_max":825,"o":"m 604 -101 q 578 -209 604 -161 q 505 -291 553 -257 q 389 -343 457 -325 q 236 -361 321 -361 q 97 -347 160 -361 q -10 -307 35 -333 q -80 -245 -56 -281 q -104 -165 -104 -210 q -67 -71 -104 -108 q 26 -33 -31 -33 q 58 -37 43 -33 q 97 -53 74 -42 q 19 -174 19 -85 q 78 -265 19 -232 q 240 -299 138 -299 q 343 -286 296 -299 q 424 -254 390 -274 q 477 -210 458 -235 q 496 -162 496 -186 q 449 -92 496 -124 q 318 -46 403 -61 q 96 15 167 -19 q 25 113 25 50 q 60 181 25 153 q 188 236 96 208 l 190 242 q 85 435 85 317 q 111 556 85 499 q 183 658 138 614 q 288 726 228 701 q 415 751 349 751 q 588 676 518 751 q 714 750 653 750 q 792 723 758 750 q 825 660 825 696 q 806 613 825 632 q 760 594 788 594 q 727 603 739 594 q 707 624 715 613 q 688 644 699 635 q 660 653 678 653 q 642 649 650 653 q 611 631 633 646 q 621 594 618 611 q 624 550 624 576 q 539 306 624 397 q 306 204 454 215 q 210 188 239 199 q 182 154 182 176 q 213 110 182 125 q 292 86 244 96 q 393 67 339 76 q 494 38 447 57 q 573 -13 542 19 q 604 -101 604 -46 m 313 265 q 378 292 346 265 q 435 362 410 318 q 476 461 461 406 q 492 575 492 517 q 467 663 492 631 q 401 696 442 696 q 336 667 369 696 q 276 594 303 639 q 232 494 249 550 q 215 383 215 438 q 242 298 215 331 q 313 265 268 265 z "},"k":{"ha":713,"x_min":-1,"x_max":646,"o":"m 496 111 q 610 215 536 111 l 646 196 q 439 -14 546 -14 q 384 10 406 -14 q 336 94 363 33 l 243 317 l 213 303 l 125 0 l -1 0 l 267 996 q 276 1047 276 1033 q 250 1087 276 1076 q 146 1097 224 1097 l 160 1139 l 436 1153 l 292 618 l 297 617 q 501 751 378 751 q 604 720 567 751 q 642 636 642 689 q 577 506 642 571 q 397 388 513 440 l 361 371 l 432 188 q 496 111 460 111 m 225 372 q 336 421 285 393 q 424 479 388 449 q 482 541 461 510 q 503 600 503 572 q 446 657 503 657 q 385 634 417 657 q 322 572 353 611 q 266 481 292 533 q 225 372 240 429 z "},"s":{"ha":529,"x_min":-18,"x_max":493,"o":"m 107 538 q 124 622 107 583 q 172 690 142 661 q 245 734 203 718 q 338 750 288 750 q 449 717 404 750 q 493 631 493 683 q 477 585 493 601 q 433 568 461 568 q 388 587 401 568 q 364 628 374 606 q 343 671 354 651 q 306 690 332 690 q 254 664 275 690 q 233 599 233 638 q 260 513 233 553 q 321 431 288 474 q 381 336 354 388 q 408 215 408 285 q 388 126 408 168 q 334 53 368 85 q 256 4 300 22 q 164 -14 211 -14 q 31 22 81 -14 q -18 117 -18 58 q 1 180 -18 157 q 51 203 19 203 q 119 121 111 203 q 134 62 124 76 q 176 47 144 47 q 256 77 226 47 q 285 160 285 107 q 257 258 285 215 q 196 342 229 301 q 135 429 163 383 q 107 538 107 475 z "},"t":{"ha":507,"x_min":53,"x_max":497,"o":"m 326 621 l 211 239 q 186 125 188 164 q 192 103 186 113 q 214 93 199 93 q 267 112 239 93 q 320 156 294 131 q 366 209 346 182 q 396 251 386 236 l 436 228 q 376 137 413 181 q 300 60 340 93 q 219 6 260 26 q 144 -14 178 -14 q 74 7 96 -14 q 53 76 53 28 q 63 151 53 104 q 96 281 72 199 l 199 621 l 79 621 l 97 685 l 218 685 l 290 924 l 418 924 l 346 685 l 497 685 l 478 621 l 326 621 z "},"v":{"ha":803,"x_min":26,"x_max":761,"o":"m 640 496 q 635 547 640 524 q 624 590 631 569 q 613 631 618 611 q 608 671 608 650 q 681 750 608 750 q 742 719 724 750 q 761 618 761 689 q 743 469 761 544 q 693 323 725 393 q 618 192 661 253 q 526 85 575 131 q 426 13 478 39 q 322 -14 374 -14 q 252 1 285 -14 q 196 42 219 15 q 159 104 172 68 q 146 182 146 140 q 189 368 146 261 q 311 589 232 475 l 308 593 q 246 604 271 593 q 203 629 221 615 q 173 654 186 643 q 146 665 160 665 q 122 642 122 665 q 130 619 122 629 q 147 600 138 610 q 163 578 156 590 q 171 550 171 567 q 151 509 171 525 q 101 493 132 493 q 46 515 65 493 q 26 578 26 538 q 40 644 26 613 q 78 699 54 675 q 133 736 101 722 q 199 750 164 750 q 246 741 226 750 q 282 720 265 732 q 315 699 299 708 q 353 690 331 690 q 400 711 379 690 q 440 744 429 738 q 467 750 450 750 q 494 726 494 750 q 493 717 494 721 q 487 704 492 713 q 470 682 482 696 q 438 643 458 668 q 379 556 406 604 q 333 454 353 507 q 303 348 314 401 q 292 247 292 294 q 317 127 292 172 q 383 82 343 82 q 467 124 422 82 q 550 227 511 165 q 615 361 589 289 q 640 496 640 433 z "},"w":{"ha":1181,"x_min":31,"x_max":1133,"o":"m 565 135 q 435 24 503 63 q 299 -14 367 -14 q 179 35 222 -14 q 136 174 136 85 q 315 589 136 347 l 313 593 q 250 604 275 593 q 208 629 225 615 q 177 654 190 643 q 149 665 164 665 q 126 642 126 665 q 134 619 126 629 q 151 600 142 610 q 167 578 160 590 q 175 550 175 567 q 156 509 175 525 q 106 493 136 493 q 50 515 69 493 q 31 578 31 538 q 44 642 31 611 q 82 698 58 674 q 137 736 106 722 q 201 750 168 750 q 250 741 231 750 q 286 720 269 732 q 319 699 303 708 q 356 690 335 690 q 376 694 367 690 q 397 711 385 699 q 428 738 413 726 q 463 750 443 750 q 492 722 492 750 q 490 713 492 718 q 483 700 489 708 q 465 678 476 692 q 435 643 454 665 q 363 543 394 596 q 311 437 332 490 q 279 331 290 383 q 268 233 268 279 q 290 127 268 165 q 353 89 313 89 q 440 126 390 89 q 547 229 490 163 q 542 289 544 258 q 540 344 540 319 q 558 492 540 419 q 603 623 575 565 q 667 715 631 681 q 740 750 703 750 q 795 724 771 750 q 819 635 819 697 q 779 461 819 560 q 663 254 739 363 q 709 146 675 188 q 783 104 743 104 q 863 140 822 104 q 936 233 903 176 q 991 358 969 289 q 1013 492 1013 426 q 1008 547 1013 524 q 997 591 1003 571 q 985 630 990 611 q 981 671 981 649 q 1053 750 981 750 q 1115 718 1096 750 q 1133 611 1133 686 q 1097 388 1133 500 q 1003 187 1061 276 q 874 42 946 97 q 729 -14 801 -14 q 629 24 671 -14 q 565 135 588 61 m 643 343 q 702 463 679 403 q 725 583 725 522 q 704 636 725 636 q 678 618 690 636 q 656 569 665 600 q 642 498 647 539 q 636 411 636 457 q 638 375 636 392 q 643 343 639 358 z "},"x":{"ha":803,"x_min":-71,"x_max":789,"o":"m 436 324 q 414 168 414 229 q 488 61 414 61 q 583 100 533 61 q 699 224 633 139 l 740 199 q 682 113 715 151 q 610 45 649 74 q 533 1 572 17 q 456 -14 493 -14 q 351 30 392 -14 q 301 151 310 74 l 297 153 q 248 85 276 115 q 188 33 219 54 q 120 -1 156 11 q 51 -14 85 -14 q -37 17 -3 -14 q -71 96 -71 47 q -49 158 -71 135 q 11 182 -26 182 q 58 164 46 182 q 77 124 71 146 q 91 85 83 103 q 122 67 99 67 q 168 85 144 67 q 215 137 192 103 q 258 218 238 171 q 296 324 279 265 l 335 458 q 360 593 360 543 q 314 668 360 668 q 267 654 294 668 q 211 617 240 640 q 153 563 182 593 q 103 499 125 532 l 61 524 q 114 606 79 565 q 189 678 149 646 q 270 730 229 710 q 344 750 311 750 q 432 709 397 750 q 467 606 467 668 q 564 710 507 671 q 674 750 621 750 q 756 718 722 750 q 789 640 789 686 q 770 586 789 607 q 719 565 751 565 q 678 581 690 565 q 660 617 667 597 q 647 653 654 638 q 618 669 639 669 q 572 650 596 669 q 527 596 549 631 q 487 513 506 561 q 456 408 468 465 l 436 324 z "},"y":{"ha":715,"x_min":-154,"x_max":696,"o":"m 224 406 q 178 563 201 519 q 131 607 156 607 q 83 567 104 607 q 39 442 61 528 l -12 456 q 24 574 1 519 q 74 667 47 628 q 132 728 101 707 q 193 750 163 750 q 238 731 219 750 q 276 658 257 711 q 313 541 293 614 q 353 374 333 468 l 400 150 l 406 150 q 459 226 432 183 q 508 315 486 268 q 544 409 531 361 q 558 499 558 457 q 557 534 558 513 q 553 578 556 556 q 550 620 551 600 q 549 653 549 640 q 574 726 549 703 q 626 750 599 750 q 679 719 663 750 q 696 649 696 689 q 665 503 696 592 q 585 312 635 414 q 469 103 535 210 q 335 -92 404 -3 q 140 -295 229 -229 q -28 -361 50 -361 q -120 -329 -86 -361 q -154 -251 -154 -297 q -135 -195 -154 -217 q -83 -174 -115 -174 q -42 -190 -56 -174 q -21 -226 -29 -206 q -3 -262 -12 -246 q 25 -278 6 -278 q 92 -249 51 -278 q 172 -176 132 -219 q 248 -81 213 -132 q 299 15 283 -29 l 224 406 z "},"z":{"ha":721,"x_min":-12,"x_max":681,"o":"m 222 215 l 225 211 q 288 197 256 211 q 354 165 321 182 q 421 133 388 147 q 486 118 454 118 q 556 143 526 118 q 610 235 585 168 l 657 217 q 618 123 643 165 q 560 50 593 81 q 490 3 528 19 q 411 -14 451 -14 q 327 6 363 -14 q 263 49 292 25 q 206 93 233 74 q 149 113 179 113 q 109 95 119 113 q 92 56 99 78 q 74 17 85 35 q 33 0 64 0 q -12 42 -12 0 q 10 96 -12 68 q 79 169 32 124 l 463 540 l 460 544 q 401 563 432 544 q 337 603 369 581 q 272 643 304 625 q 210 661 239 661 q 173 649 186 661 q 160 618 160 638 q 171 589 160 599 q 195 570 182 579 q 219 549 208 561 q 231 511 231 536 q 163 447 231 447 q 94 476 118 447 q 69 554 69 504 q 86 631 69 596 q 133 693 103 667 q 203 735 163 719 q 289 750 243 750 q 375 733 340 750 q 435 696 410 717 q 483 658 461 675 q 531 642 506 642 q 566 656 554 642 q 587 689 578 671 q 606 722 596 707 q 640 736 617 736 q 681 693 681 736 q 678 672 681 682 q 666 649 675 663 q 638 616 657 635 q 589 567 619 597 l 222 215 z "},"n":{"ha":871,"x_min":24,"x_max":822,"o":"m 590 678 q 515 644 557 678 q 428 553 472 610 q 344 425 385 497 q 276 278 304 353 l 174 0 l 51 0 l 154 318 q 196 449 179 394 q 223 540 213 503 q 238 599 233 576 q 242 636 242 622 q 218 674 242 674 q 182 654 203 674 q 140 603 161 635 q 99 532 118 572 q 65 450 79 492 l 24 471 q 133 682 72 614 q 271 750 193 750 q 334 725 315 750 q 353 640 353 700 q 329 514 353 569 l 333 510 q 477 692 404 635 q 636 750 550 750 q 729 721 697 750 q 761 638 761 692 q 758 597 761 619 q 746 544 754 575 q 723 469 738 513 q 688 364 708 426 q 635 206 656 269 q 614 115 614 142 q 628 94 614 94 q 685 126 647 94 q 786 229 722 158 l 822 210 q 765 128 800 168 q 691 57 729 89 q 615 6 653 25 q 550 -14 578 -14 q 495 17 515 -14 q 475 97 475 47 q 478 137 475 117 q 493 194 482 157 q 526 295 504 232 q 585 463 547 358 q 606 524 597 499 q 619 567 614 549 q 626 600 624 586 q 628 626 628 614 q 590 678 628 678 z "},"A":{"ha":1060,"x_min":-150,"x_max":958,"o":"m 765 231 q 749 124 749 157 q 775 69 749 83 q 878 56 801 56 l 864 0 l 453 0 l 467 56 q 533 62 507 56 q 577 87 560 68 q 607 140 594 106 q 632 232 619 175 l 669 403 l 371 403 l 283 311 q 194 215 226 251 q 144 156 161 178 q 124 122 128 133 q 119 103 119 111 q 142 66 119 76 q 224 56 165 56 l 210 0 l -150 0 l -136 56 q -70 69 -103 56 q 2 113 -37 82 q 90 194 42 143 q 201 321 138 244 l 842 1083 l 958 1083 l 765 231 m 682 472 l 796 903 l 790 903 l 431 472 l 682 472 z "},"B":{"ha":1022,"x_min":-40,"x_max":953,"o":"m 321 288 q 312 256 317 275 q 303 217 307 236 q 295 178 299 197 q 292 146 292 158 q 304 101 292 118 q 335 76 317 85 q 377 65 354 68 q 422 63 400 63 q 559 83 499 63 q 661 139 619 103 q 724 224 703 175 q 746 332 746 274 q 678 486 746 438 q 468 535 610 535 l 389 535 l 321 288 m -25 56 q 46 61 17 56 q 96 84 75 67 q 132 134 117 101 q 163 221 147 167 l 326 833 q 342 929 342 894 q 313 995 342 976 q 214 1014 283 1014 l 229 1069 l 601 1069 q 724 1059 661 1069 q 837 1022 786 1049 q 920 948 888 994 q 953 829 953 901 q 925 715 953 761 q 854 640 897 669 q 759 594 811 610 q 658 571 707 578 l 658 565 q 844 474 781 540 q 908 307 908 408 q 875 179 908 236 q 783 83 842 122 q 644 22 725 43 q 468 0 564 0 l -40 0 l -25 56 m 407 606 l 510 606 q 630 622 575 606 q 724 669 685 639 q 784 742 763 700 q 806 836 806 785 q 755 967 806 926 q 583 1007 704 1007 q 523 981 546 1007 q 485 896 500 956 l 407 606 z "},"C":{"ha":1011,"x_min":101,"x_max":1044,"o":"m 924 263 q 828 136 875 189 q 732 50 782 83 q 626 1 682 17 q 507 -14 571 -14 q 338 16 413 -14 q 210 102 263 46 q 130 238 158 158 q 101 418 101 318 q 150 670 101 550 q 280 882 199 790 q 468 1028 361 974 q 692 1083 575 1083 q 819 1063 758 1083 q 942 1000 879 1043 l 993 1069 l 1044 1069 l 981 721 l 928 721 q 863 942 917 872 q 703 1011 810 1011 q 532 965 611 1011 q 394 839 453 919 q 303 650 336 758 q 269 417 269 542 q 538 72 269 72 q 719 126 638 72 q 874 296 800 181 l 924 263 z "},"D":{"ha":1161,"x_min":-40,"x_max":1107,"o":"m 229 1069 l 606 1069 q 792 1047 701 1069 q 956 963 882 1024 q 1071 808 1035 897 q 1107 621 1107 718 q 1092 495 1107 558 q 1052 373 1078 432 q 991 262 1026 314 q 914 168 956 210 q 699 36 817 72 q 446 0 581 0 l -40 0 l -25 56 q 49 61 19 56 q 99 84 79 67 q 134 133 119 101 q 163 219 149 165 l 322 833 q 330 858 325 843 q 340 892 335 874 q 349 926 346 910 q 353 956 353 943 q 341 988 353 976 q 312 1005 329 999 q 274 1013 294 1011 q 238 1014 254 1014 l 211 1014 l 229 1069 m 329 321 q 311 252 318 279 q 301 208 304 225 q 296 181 297 190 q 294 164 294 171 q 310 106 294 126 q 349 76 326 86 q 394 63 371 65 q 433 61 418 61 q 597 86 524 61 q 728 155 671 111 q 826 256 785 199 q 894 376 867 313 q 933 506 921 440 q 946 635 946 572 q 852 905 946 810 q 594 1000 758 1000 q 530 988 554 1000 q 493 929 506 976 l 329 321 z "},"E":{"ha":1028,"x_min":-36,"x_max":981,"o":"m -21 56 q 55 63 25 56 q 105 88 85 69 q 139 138 125 107 q 165 219 153 169 l 326 832 q 341 894 336 868 q 346 940 346 921 q 314 1000 346 986 q 207 1014 282 1014 l 222 1069 l 981 1069 l 981 789 l 928 789 q 888 898 910 856 q 837 965 865 940 q 773 999 808 989 q 694 1008 738 1008 l 514 1008 l 406 596 l 493 596 q 557 603 531 596 q 605 627 583 610 q 645 675 626 644 q 686 754 664 706 l 738 754 l 654 343 l 599 343 q 603 415 603 385 q 579 506 603 478 q 492 535 556 535 l 388 535 l 308 236 q 296 158 296 190 q 340 84 296 108 q 493 60 385 60 q 631 72 572 60 q 734 112 690 85 q 810 183 778 139 q 872 293 843 228 l 938 293 l 829 0 l -36 0 l -21 56 z "},"F":{"ha":915,"x_min":-36,"x_max":981,"o":"m -21 56 q 55 63 25 56 q 105 88 85 69 q 139 138 125 107 q 165 219 153 169 l 326 832 q 341 894 336 868 q 346 940 346 921 q 314 1000 346 986 q 207 1014 282 1014 l 222 1069 l 981 1069 l 981 789 l 928 789 q 888 898 910 856 q 837 965 865 940 q 773 999 808 989 q 694 1008 738 1008 l 514 1008 l 406 596 l 500 596 q 564 603 538 596 q 612 627 590 610 q 652 675 633 644 q 693 754 671 706 l 744 754 l 647 315 l 592 315 q 596 401 596 365 q 575 503 596 471 q 499 535 554 535 l 388 535 l 308 236 q 296 158 296 190 q 333 84 296 108 q 465 60 371 60 l 450 0 l -36 0 l -21 56 z "},"G":{"ha":1124,"x_min":101,"x_max":1100,"o":"m 538 61 q 645 77 596 61 q 731 124 694 93 q 788 201 768 156 q 808 308 808 247 q 784 390 808 364 q 690 417 760 417 l 703 471 l 1083 471 l 1069 417 q 1020 413 1040 417 q 985 390 1000 408 q 956 333 969 371 q 925 231 942 296 q 904 149 914 190 q 893 68 894 108 q 826 49 861 63 q 745 22 790 36 q 642 -3 700 8 q 507 -14 583 -14 q 338 16 413 -14 q 210 102 263 46 q 130 238 158 158 q 101 418 101 318 q 152 670 101 550 q 288 882 203 790 q 485 1028 374 974 q 719 1083 597 1083 q 862 1063 794 1083 q 997 1000 929 1043 l 1049 1069 l 1100 1069 l 1050 764 l 997 764 q 920 951 983 892 q 731 1011 857 1011 q 549 965 633 1011 q 403 839 465 919 q 305 650 340 758 q 269 417 269 542 q 538 61 269 61 z "},"H":{"ha":1265,"x_min":-39,"x_max":1358,"o":"m 993 233 q 976 136 976 172 q 1006 72 976 89 q 1103 56 1036 56 l 1086 0 l 643 0 l 658 56 q 729 62 700 56 q 780 86 758 68 q 817 136 801 104 q 846 219 832 168 l 922 510 l 383 510 l 311 233 q 294 136 294 172 q 324 72 294 89 q 422 56 354 56 l 404 0 l -39 0 l -24 56 q 47 62 18 56 q 98 86 76 68 q 135 136 119 104 q 164 219 150 168 l 326 833 q 347 947 347 910 q 316 1002 347 990 q 210 1014 285 1014 l 225 1069 l 676 1069 l 661 1014 q 585 1005 615 1014 q 532 971 554 996 q 492 901 510 946 q 457 786 475 857 l 403 581 l 942 581 l 1008 833 q 1029 947 1029 910 q 998 1002 1029 990 q 892 1014 967 1014 l 907 1069 l 1358 1069 l 1343 1014 q 1267 1005 1297 1014 q 1214 971 1236 996 q 1174 901 1192 946 q 1139 786 1157 857 l 993 233 z "},"I":{"ha":583,"x_min":-39,"x_max":676,"o":"m 311 233 q 294 136 294 172 q 324 72 294 89 q 421 56 354 56 l 404 0 l -39 0 l -24 56 q 47 62 18 56 q 98 86 76 68 q 135 136 119 104 q 164 219 150 168 l 326 833 q 347 947 347 910 q 316 1002 347 990 q 210 1014 285 1014 l 225 1069 l 676 1069 l 661 1014 q 585 1005 615 1014 q 532 971 554 996 q 492 901 510 946 q 457 786 475 857 l 311 233 z "},"J":{"ha":754,"x_min":-32,"x_max":865,"o":"m 186 60 q 307 125 254 60 q 392 308 360 190 l 529 833 q 550 947 550 910 q 543 980 550 967 q 519 1001 536 993 q 474 1011 503 1008 q 399 1014 444 1014 l 414 1069 l 865 1069 l 850 1014 q 780 1006 808 1014 q 731 972 751 997 q 694 903 711 947 q 660 786 678 858 l 521 258 q 399 56 486 126 q 188 -14 313 -14 q 25 33 82 -14 q -32 168 -32 81 q 3 278 -32 235 q 90 321 38 321 q 152 299 128 321 q 176 240 176 276 q 165 199 176 214 q 140 173 154 185 q 115 150 126 161 q 104 121 104 139 q 127 76 104 93 q 186 60 150 60 z "},"K":{"ha":1146,"x_min":-26,"x_max":1175,"o":"m 404 593 l 692 799 q 819 905 779 861 q 860 975 860 949 q 767 1014 860 1014 l 781 1069 l 1175 1069 l 1161 1014 q 1115 1004 1139 1014 q 1051 968 1092 994 q 943 893 1010 942 q 767 768 876 844 l 553 618 l 825 260 q 915 144 881 186 q 973 83 949 103 q 1018 60 997 64 q 1067 56 1039 56 l 1051 0 l 615 0 l 631 56 q 706 63 679 56 q 733 94 733 71 q 714 149 733 114 q 654 240 694 185 l 435 535 l 379 496 l 310 233 q 293 136 293 172 q 326 72 293 89 q 435 56 358 56 l 417 0 l -26 0 l -11 56 q 54 62 28 56 q 101 86 81 68 q 135 136 121 104 q 163 219 149 168 l 325 833 q 346 947 346 910 q 315 1002 346 990 q 208 1014 283 1014 l 224 1069 l 675 1069 l 660 1014 q 583 1005 614 1014 q 531 971 553 996 q 491 901 508 946 q 456 786 474 857 l 404 593 z "},"L":{"ha":975,"x_min":-35,"x_max":911,"o":"m -19 56 q 56 63 26 56 q 106 88 86 69 q 140 138 126 107 q 167 219 154 169 l 324 833 q 339 900 333 872 q 344 947 344 928 q 320 999 344 985 q 238 1014 296 1014 l 207 1014 l 222 1069 l 674 1069 l 658 1014 q 582 1005 613 1014 q 529 971 551 996 q 490 901 507 946 q 454 786 472 857 l 310 236 q 297 158 297 190 q 331 84 297 108 q 453 60 365 60 q 597 74 536 60 q 703 119 657 88 q 783 199 749 150 q 846 321 817 249 l 911 321 l 789 0 l -35 0 l -19 56 z "},"M":{"ha":1417,"x_min":-37,"x_max":1481,"o":"m 1174 910 l 604 0 l 544 0 l 436 910 l 431 910 l 253 233 q 246 201 249 217 q 243 172 243 186 q 276 85 243 114 q 363 56 308 57 l 346 0 l -37 0 l -22 56 q 94 102 43 56 q 165 219 146 149 l 328 833 q 349 947 349 910 q 317 1002 349 990 q 211 1014 286 1014 l 226 1069 l 560 1069 l 658 242 l 664 242 l 1188 1069 l 1481 1069 l 1465 1014 q 1400 1005 1425 1014 q 1356 971 1375 996 q 1322 901 1338 946 q 1289 786 1307 857 l 1143 233 q 1126 136 1126 172 q 1159 72 1126 89 q 1267 56 1192 56 l 1250 0 l 807 0 l 822 56 q 886 62 860 56 q 933 86 913 68 q 967 136 953 104 q 996 219 982 168 l 1179 910 l 1174 910 z "},"N":{"ha":1169,"x_min":-12,"x_max":1261,"o":"m 806 0 l 442 836 l 436 836 l 278 233 q 269 174 269 200 q 304 86 269 115 q 401 56 339 57 l 385 0 l -12 0 l 3 56 q 119 102 68 56 q 190 219 171 149 l 354 836 q 360 879 360 857 q 303 979 360 946 q 156 1014 247 1013 l 172 1069 l 499 1069 l 846 274 l 851 274 l 999 836 q 1006 888 1006 867 q 972 980 1006 947 q 889 1014 938 1013 l 906 1069 l 1261 1069 l 1246 1014 q 1194 1001 1219 1014 q 1149 967 1169 989 q 1112 915 1128 946 q 1086 850 1096 885 l 861 0 l 806 0 z "},"O":{"ha":1139,"x_min":103,"x_max":1089,"o":"m 701 1083 q 862 1053 790 1083 q 984 966 933 1022 q 1062 830 1035 910 q 1089 651 1089 750 q 1041 397 1089 518 q 911 185 993 276 q 722 40 829 93 q 494 -14 614 -14 q 333 17 406 -14 q 210 106 261 49 q 131 242 158 163 q 103 421 103 322 q 151 674 103 554 q 282 885 200 794 q 473 1030 364 976 q 701 1083 582 1083 m 701 1011 q 533 965 611 1011 q 396 839 454 919 q 304 650 338 758 q 271 417 271 542 q 333 150 271 239 q 514 61 394 61 q 676 108 601 61 q 805 239 750 156 q 890 438 860 322 q 921 689 921 553 q 867 933 921 856 q 701 1011 814 1011 z "},"P":{"ha":926,"x_min":-24,"x_max":983,"o":"m 324 288 q 302 201 310 239 q 294 146 294 164 q 453 63 294 63 l 438 0 l -24 0 l -8 56 q 100 95 58 56 q 165 221 142 135 l 329 833 q 347 938 347 900 q 340 972 347 958 q 317 995 333 986 q 272 1008 300 1004 q 203 1014 244 1013 l 218 1069 l 604 1069 q 883 1006 783 1069 q 983 831 983 943 q 946 697 983 758 q 842 592 908 636 q 683 522 775 547 q 482 497 590 497 l 382 497 l 324 288 m 400 568 l 468 568 q 613 588 547 568 q 727 644 679 608 q 802 730 775 681 q 829 839 829 779 q 607 1007 829 1007 q 560 1002 579 1007 q 528 985 542 997 q 506 951 515 972 q 488 896 496 929 l 400 568 z "},"Q":{"ha":1158,"x_min":86,"x_max":1108,"o":"m 713 1083 q 876 1053 803 1083 q 1001 965 950 1022 q 1081 828 1053 908 q 1108 649 1108 749 q 1084 466 1108 554 q 1015 301 1060 378 q 910 162 971 224 q 776 61 849 100 l 475 -103 l 478 -107 q 581 -126 536 -107 q 668 -170 626 -146 q 753 -214 710 -194 q 853 -233 797 -233 q 978 -197 924 -233 q 1053 -89 1032 -161 l 1099 -110 q 1058 -213 1086 -167 q 988 -292 1029 -260 q 894 -343 946 -325 q 785 -361 843 -361 q 646 -333 706 -361 q 537 -270 586 -304 q 444 -208 488 -236 q 358 -179 401 -179 q 299 -200 321 -179 q 258 -247 276 -221 q 217 -293 239 -272 q 157 -314 194 -314 q 105 -295 124 -314 q 86 -244 86 -276 q 114 -184 86 -210 q 215 -126 142 -158 l 482 -14 q 326 22 396 -10 q 206 111 256 54 q 130 247 157 168 q 103 422 103 326 q 152 674 103 554 q 285 885 201 794 q 480 1030 369 976 q 713 1083 590 1083 m 713 1011 q 539 965 619 1011 q 399 840 458 919 q 305 651 339 760 q 271 418 271 543 q 335 160 271 249 q 521 72 399 72 q 688 119 611 72 q 820 247 764 165 q 908 442 876 329 q 940 686 940 554 q 885 933 940 854 q 713 1011 831 1011 z "},"R":{"ha":1060,"x_min":-24,"x_max":994,"o":"m 324 288 q 302 201 310 239 q 294 146 294 164 q 453 63 294 63 l 438 0 l -24 0 l -8 56 q 100 95 58 56 q 165 221 142 135 l 329 833 q 347 938 347 900 q 340 972 347 958 q 317 995 333 986 q 272 1008 300 1004 q 203 1014 244 1013 l 218 1069 l 604 1069 q 867 1006 771 1069 q 963 831 963 943 q 941 726 963 774 q 879 642 919 679 q 783 578 839 604 q 658 538 726 551 l 761 283 q 813 168 790 213 q 861 99 836 124 q 917 65 886 74 q 994 56 949 56 l 979 0 l 715 0 l 511 521 l 389 521 l 324 288 m 407 592 l 475 592 q 609 608 547 592 q 715 656 671 625 q 783 733 758 688 q 808 839 808 779 q 757 965 808 922 q 607 1007 706 1007 q 560 1002 579 1007 q 528 985 542 997 q 506 951 515 972 q 488 896 496 929 l 407 592 z "},"S":{"ha":831,"x_min":22,"x_max":817,"o":"m 775 1049 l 817 1049 l 758 775 l 711 775 q 665 957 707 901 q 535 1013 624 1013 q 456 1001 492 1013 q 394 967 419 989 q 353 915 368 944 q 339 850 339 885 q 367 761 339 800 q 437 688 394 722 q 528 619 479 654 q 620 543 578 585 q 690 449 663 501 q 718 325 718 396 q 690 192 718 254 q 615 85 663 131 q 503 13 567 39 q 365 -14 439 -14 q 100 106 214 -14 l 71 0 l 22 0 l 81 353 l 126 353 q 197 135 136 210 q 367 60 258 60 q 458 74 417 60 q 530 115 500 89 q 577 176 560 140 q 594 253 594 211 q 565 356 594 311 q 493 439 536 400 q 399 514 450 478 q 304 591 347 550 q 232 681 261 632 q 203 794 203 731 q 228 907 203 854 q 299 999 254 960 q 403 1060 343 1038 q 531 1083 463 1083 q 647 1061 596 1083 q 747 990 699 1039 l 775 1049 z "},"T":{"ha":1083,"x_min":108,"x_max":1168,"o":"m 565 233 q 550 178 557 201 q 543 136 543 156 q 579 74 543 92 q 703 56 615 56 l 686 0 l 203 0 l 218 56 q 290 61 260 56 q 345 83 321 67 q 387 133 369 100 q 419 219 404 165 l 589 853 q 601 936 601 903 q 583 994 601 976 q 525 1011 565 1011 q 313 949 403 1011 q 164 774 224 886 l 108 774 l 240 1069 l 1168 1069 l 1140 774 l 1088 774 q 1038 959 1088 907 q 892 1011 989 1011 q 833 1004 857 1011 q 790 979 808 997 q 756 929 771 961 q 729 847 742 897 l 565 233 z "},"U":{"ha":1122,"x_min":158,"x_max":1215,"o":"m 278 832 q 290 890 285 860 q 296 939 296 919 q 267 997 296 981 q 165 1014 238 1014 l 183 1069 l 626 1069 l 611 1014 q 531 1006 561 1014 q 478 975 500 999 q 441 906 457 951 q 406 785 425 860 l 315 436 q 301 367 306 400 q 297 306 297 335 q 354 129 297 194 q 521 64 411 64 q 642 90 589 64 q 738 160 696 115 q 810 267 779 206 q 864 403 840 329 q 905 551 885 469 q 941 710 925 633 q 966 847 957 786 q 975 931 975 907 q 937 992 975 972 q 833 1014 899 1011 l 850 1069 l 1215 1069 l 1199 1014 q 1142 1008 1165 1014 q 1101 981 1118 1001 q 1072 922 1085 960 q 1046 822 1060 885 l 986 544 q 808 127 926 268 q 510 -14 690 -14 q 245 69 332 -14 q 158 304 158 151 q 165 394 158 349 q 186 490 172 439 l 278 832 z "},"V":{"ha":1044,"x_min":153,"x_max":1247,"o":"m 814 758 q 931 902 893 853 q 969 979 969 951 q 946 1007 969 1000 q 874 1014 922 1014 l 888 1069 l 1247 1069 l 1233 1014 q 1167 1001 1200 1014 q 1095 958 1135 989 q 1007 876 1056 928 q 896 749 958 825 l 269 -14 l 153 -14 l 346 839 q 363 946 363 911 q 336 1000 363 986 q 233 1014 310 1014 l 247 1069 l 658 1069 l 644 1014 q 578 1008 604 1014 q 533 983 551 1001 q 503 929 515 964 q 479 838 492 894 l 339 197 l 344 197 l 814 758 z "},"W":{"ha":1478,"x_min":150,"x_max":1678,"o":"m 1244 758 q 1356 906 1319 854 q 1392 982 1392 958 q 1370 1008 1392 1001 q 1304 1014 1349 1014 l 1318 1069 l 1678 1069 l 1664 1014 q 1597 1002 1631 1014 q 1523 960 1563 990 q 1435 879 1483 931 q 1326 749 1386 828 l 742 -14 l 625 -14 l 775 649 l 267 -14 l 150 -14 l 343 839 q 360 946 360 911 q 333 1000 360 986 q 231 1014 307 1014 l 244 1069 l 628 1069 l 614 1014 q 565 1008 585 1014 q 528 982 544 1001 q 501 928 513 963 q 476 838 489 893 l 336 211 l 342 211 l 813 815 l 818 839 q 835 946 835 911 q 811 1000 835 986 q 719 1014 788 1014 l 733 1069 l 1131 1069 l 1117 1014 q 1050 1008 1076 1014 q 1006 983 1024 1001 q 976 929 988 964 q 951 838 964 894 l 811 211 l 817 211 l 1244 758 z "},"X":{"ha":1085,"x_min":-54,"x_max":1136,"o":"m 793 232 q 838 145 817 179 q 884 92 860 111 q 937 64 908 72 q 1003 56 965 56 l 990 0 l 532 0 l 544 56 q 661 125 661 56 q 654 169 661 143 q 636 221 647 194 l 524 469 l 408 342 q 288 193 325 250 q 251 106 251 136 q 277 67 251 79 q 360 56 303 56 l 347 0 l -54 0 l -40 56 q 23 64 -1 60 q 68 81 47 68 q 112 116 89 93 q 169 179 135 139 l 490 549 l 340 864 q 299 939 318 910 q 258 985 279 968 q 210 1008 236 1001 q 150 1014 185 1014 l 165 1069 l 597 1069 l 582 1014 q 489 944 489 1014 q 532 804 489 900 l 600 654 l 719 788 q 813 903 783 858 q 842 972 842 947 q 761 1014 842 1014 l 778 1069 l 1136 1069 l 1121 1014 q 1064 1006 1090 1014 q 1009 978 1038 997 q 948 929 981 960 q 874 853 915 899 l 631 586 l 793 232 z "},"Y":{"ha":957,"x_min":125,"x_max":1082,"o":"m 546 233 q 529 136 529 172 q 562 72 529 89 q 669 56 594 56 l 653 0 l 182 0 l 197 56 q 274 62 242 56 q 329 86 306 68 q 369 136 353 104 q 399 219 385 168 l 463 467 l 296 867 q 258 946 275 917 q 224 990 242 975 q 183 1010 206 1006 q 125 1014 160 1014 l 140 1069 l 531 1069 l 515 1014 q 440 1003 463 1014 q 417 965 417 993 q 419 943 417 956 q 428 915 421 931 l 576 557 l 769 839 q 813 906 800 882 q 826 954 826 929 q 799 999 826 983 q 724 1014 772 1014 l 739 1069 l 1082 1069 l 1067 1014 q 1019 1010 1039 1014 q 983 993 1000 1006 q 950 958 967 981 q 908 901 933 936 l 611 483 l 546 233 z "},"Z":{"ha":933,"x_min":-10,"x_max":967,"o":"m 219 69 l 393 69 q 624 123 525 69 q 785 307 724 176 l 844 307 l 728 0 l -10 0 l -10 29 l 744 1003 l 604 1003 q 465 995 521 1003 q 365 965 408 988 q 288 901 322 942 q 213 794 253 860 l 153 794 l 293 1069 l 967 1069 l 967 1043 l 219 69 z "},".":{"ha":364,"x_min":-1,"x_max":193,"o":"m 94 -14 q 27 13 56 -14 q -1 81 -1 39 q 26 151 -1 122 q 94 181 54 181 q 165 151 138 181 q 193 82 193 122 q 164 14 193 42 q 94 -14 135 -14 z "},",":{"ha":368,"x_min":-54,"x_max":193,"o":"m 99 4 q 69 0 82 0 q 16 22 33 0 q -1 81 -1 44 q 26 151 -1 122 q 94 181 54 181 q 165 151 138 181 q 193 82 193 122 q 138 -82 193 4 q -22 -243 82 -168 l -54 -199 q 60 -91 21 -146 q 99 4 99 -36 z "},":":{"ha":422,"x_min":21,"x_max":329,"o":"m 117 -14 q 49 13 78 -14 q 21 81 21 39 q 49 151 21 122 q 117 181 76 181 q 188 151 160 181 q 215 82 215 122 q 186 14 215 42 q 117 -14 157 -14 m 231 417 q 163 443 192 417 q 135 511 135 469 q 163 582 135 553 q 231 611 190 611 q 301 582 274 611 q 329 513 329 553 q 300 444 329 472 q 231 417 271 417 z "},";":{"ha":425,"x_min":-32,"x_max":329,"o":"m 231 417 q 163 443 192 417 q 135 511 135 469 q 163 582 135 553 q 231 611 190 611 q 301 582 274 611 q 329 513 329 553 q 300 444 329 472 q 231 417 271 417 m 121 4 q 92 0 104 0 q 38 22 56 0 q 21 81 21 44 q 49 151 21 122 q 117 181 76 181 q 188 151 160 181 q 215 82 215 122 q 160 -82 215 4 q 0 -243 104 -168 l -32 -199 q 82 -91 43 -146 q 121 4 121 -36 z "},"!":{"ha":440,"x_min":79,"x_max":426,"o":"m 179 288 l 246 919 q 278 1046 256 1008 q 350 1083 301 1083 q 408 1059 389 1083 q 426 979 426 1035 q 422 927 426 953 q 406 869 417 901 q 379 792 396 836 q 338 686 363 749 q 301 583 318 638 q 269 476 283 529 q 244 374 254 424 q 228 288 233 325 l 179 288 m 165 -14 q 105 10 131 -14 q 79 71 79 33 q 104 135 79 108 q 167 161 129 161 q 229 135 204 161 q 254 72 254 108 q 228 11 254 36 q 165 -14 201 -14 z "},"¡":{"ha":442,"x_min":68,"x_max":415,"o":"m 314 782 l 249 150 q 216 24 239 61 q 144 -14 193 -14 q 87 10 106 -14 q 68 90 68 35 q 72 142 68 117 q 87 201 76 168 q 115 277 97 233 q 157 383 132 321 q 194 486 176 432 q 226 593 211 540 q 251 695 240 646 q 267 782 261 744 l 314 782 m 329 1083 q 390 1060 364 1083 q 415 999 415 1036 q 390 935 415 961 q 328 908 365 908 q 265 935 290 908 q 240 997 240 961 q 267 1058 240 1033 q 329 1083 293 1083 z "},"?":{"ha":650,"x_min":185,"x_max":675,"o":"m 271 -14 q 210 11 235 -14 q 185 72 185 36 q 210 135 185 110 q 272 161 236 161 q 334 135 308 161 q 360 72 360 108 q 334 11 360 36 q 271 -14 308 -14 m 197 403 q 226 517 197 469 q 298 603 254 565 q 392 672 342 640 q 485 735 442 703 q 558 803 529 767 q 586 886 586 839 q 544 981 586 944 q 436 1018 503 1018 q 338 990 378 1018 q 299 917 299 961 q 314 880 299 889 q 347 865 329 871 q 381 849 365 858 q 396 808 396 839 q 376 758 396 776 q 319 740 356 740 q 224 781 263 740 q 186 881 186 821 q 206 960 186 922 q 261 1025 226 997 q 343 1069 296 1053 q 443 1085 390 1085 q 539 1069 496 1085 q 612 1024 582 1053 q 658 953 642 994 q 675 863 675 913 q 645 740 675 792 q 571 647 615 688 q 474 574 526 606 q 376 511 421 542 q 302 449 332 481 q 272 381 272 418 q 336 325 272 325 q 439 396 400 325 l 476 374 q 322 265 424 265 q 229 301 261 265 q 197 403 197 336 z "},"¿":{"ha":653,"x_min":29,"x_max":519,"o":"m 433 1085 q 494 1060 469 1085 q 519 999 519 1035 q 494 935 519 961 q 432 910 468 910 q 370 936 396 910 q 344 999 344 963 q 370 1060 344 1035 q 433 1085 396 1085 m 507 668 q 478 553 507 601 q 406 468 450 506 q 313 399 363 431 q 219 336 263 368 q 147 268 175 304 q 118 185 118 232 q 160 90 118 126 q 268 53 201 53 q 366 81 326 53 q 406 154 406 110 q 390 191 406 182 q 357 206 375 200 q 324 222 339 213 q 308 263 308 232 q 328 313 308 294 q 385 331 349 331 q 480 290 442 331 q 518 190 518 250 q 498 111 518 149 q 443 46 478 74 q 361 2 408 18 q 261 -14 314 -14 q 165 2 208 -14 q 92 47 122 18 q 46 117 63 76 q 29 208 29 158 q 59 331 29 279 q 133 424 89 383 q 231 497 178 465 q 328 560 283 529 q 402 621 372 590 q 432 690 432 651 q 368 746 432 746 q 265 675 304 746 l 228 697 q 382 806 281 806 q 475 770 443 806 q 507 668 507 735 z "},"=":{"ha":885,"x_min":97,"x_max":817,"o":"m 728 350 l 97 350 l 117 419 l 747 419 l 728 350 m 797 586 l 167 586 l 186 656 l 817 656 l 797 586 z "},"-":{"ha":646,"x_min":83,"x_max":544,"o":"m 83 344 l 115 460 l 544 460 l 513 344 l 83 344 z "},"–":{"ha":1008,"x_min":83,"x_max":907,"o":"m 83 344 l 115 460 l 907 460 l 875 344 l 83 344 z "},"—":{"ha":1547,"x_min":83,"x_max":1446,"o":"m 83 344 l 115 460 l 1446 460 l 1414 344 l 83 344 z "},"_":{"ha":1015,"x_min":-62,"x_max":761,"o":"m -62 -199 l -31 -104 l 761 -104 l 729 -199 l -62 -199 z "},"(":{"ha":468,"x_min":44,"x_max":615,"o":"m 615 1115 q 415 885 499 997 q 276 658 331 774 q 195 415 221 542 q 169 140 169 288 q 195 -56 169 35 q 275 -231 221 -146 l 222 -269 q 44 232 44 -37 q 183 712 44 476 q 582 1154 321 947 l 615 1115 z "},")":{"ha":465,"x_min":-160,"x_max":431,"o":"m 267 1154 q 390 920 350 1042 q 431 669 431 799 q 393 422 431 546 q 284 179 356 299 q 109 -53 213 60 q -128 -269 6 -167 l -160 -231 q 24 -37 -62 -147 q 174 201 110 74 q 274 467 238 328 q 311 746 311 606 q 287 922 311 836 q 213 1115 263 1008 l 267 1154 z "},"[":{"ha":513,"x_min":-28,"x_max":671,"o":"m 443 1074 l 114 -143 l 324 -143 l 306 -208 l -28 -208 l 336 1139 l 671 1139 l 653 1074 l 443 1074 z "},"]":{"ha":513,"x_min":-142,"x_max":557,"o":"m 85 -143 l 414 1074 l 204 1074 l 222 1139 l 557 1139 l 192 -208 l -142 -208 l -124 -143 l 85 -143 z "},"{":{"ha":467,"x_min":35,"x_max":600,"o":"m 175 0 q 165 -44 168 -24 q 161 -81 161 -64 q 181 -140 161 -117 q 246 -178 200 -164 l 238 -208 q 82 -185 129 -208 q 35 -94 35 -161 q 51 6 35 -56 l 125 278 q 136 353 136 318 q 117 424 136 393 q 50 458 99 454 l 60 493 q 129 515 101 501 q 176 551 157 529 q 207 602 194 572 q 231 672 219 632 l 297 915 q 337 1027 315 982 q 392 1100 358 1072 q 476 1140 426 1128 q 600 1153 525 1153 l 592 1121 q 485 1062 522 1104 q 429 944 449 1019 l 363 696 q 337 617 351 653 q 301 554 322 582 q 247 508 279 526 q 168 479 215 489 l 167 472 q 242 436 221 461 q 264 369 264 411 q 249 275 264 332 l 175 0 z "},"}":{"ha":467,"x_min":-118,"x_max":450,"o":"m 131 275 q 156 350 142 317 q 192 408 171 383 q 245 449 214 433 q 321 472 276 465 l 322 479 q 247 519 268 490 q 226 589 226 547 q 231 639 226 613 q 244 696 236 665 l 311 944 q 324 1024 324 990 q 246 1121 324 1099 l 254 1153 q 406 1126 361 1153 q 450 1036 450 1100 q 444 981 450 1011 q 429 915 439 951 l 363 672 q 347 586 347 618 q 368 526 347 549 q 439 493 389 504 l 429 458 q 365 438 393 456 q 315 396 336 421 q 280 340 294 371 q 257 278 265 308 l 183 6 q 143 -99 167 -57 q 85 -165 119 -140 q 1 -199 50 -189 q -118 -208 -49 -208 l -110 -178 q 1 -117 -36 -158 q 57 0 38 -75 l 131 275 z "},"Æ":{"ha":1488,"x_min":-118,"x_max":1440,"o":"m 485 0 l 499 56 q 565 62 539 56 q 609 87 592 68 q 639 140 626 106 q 664 232 651 175 l 701 403 l 403 403 l 315 311 q 226 215 258 251 q 176 156 193 178 q 156 122 160 133 q 151 103 151 111 q 174 66 151 76 q 256 56 197 56 l 242 0 l -118 0 l -104 56 q -38 69 -71 56 q 33 113 -6 82 q 121 194 72 143 q 233 321 169 244 l 753 940 q 775 981 775 967 q 740 1006 775 999 q 625 1014 706 1014 l 640 1069 l 1440 1069 l 1440 789 l 1388 789 q 1347 898 1369 856 q 1297 965 1325 940 q 1233 999 1268 989 q 1154 1008 1197 1008 l 974 1008 l 879 596 l 953 596 q 1017 603 990 596 q 1065 627 1043 610 q 1105 675 1086 644 q 1146 754 1124 706 l 1197 754 l 1114 343 l 1058 343 q 1063 415 1063 385 q 1039 506 1063 478 q 951 535 1015 535 l 865 535 l 797 231 q 781 124 781 157 q 789 95 781 107 q 817 75 797 83 q 871 63 838 67 q 953 60 904 60 q 1091 72 1032 60 q 1194 112 1150 85 q 1270 183 1238 139 q 1332 293 1303 228 l 1397 293 l 1289 0 l 485 0 m 714 472 l 828 903 l 822 903 l 463 472 l 714 472 z "},"|":{"ha":486,"x_min":176,"x_max":288,"o":"m 288 1139 l 288 -347 l 176 -347 l 176 1139 l 288 1139 z "},"¦":{"ha":469,"x_min":169,"x_max":281,"o":"m 281 1042 l 281 507 l 169 507 l 169 1042 l 281 1042 m 281 285 l 281 -250 l 169 -250 l 169 285 l 281 285 z "},"¬":{"ha":939,"x_min":133,"x_max":769,"o":"m 700 435 l 133 435 l 133 504 l 769 504 l 769 153 l 700 153 l 700 435 z "},"­":{"ha":678,"x_min":113,"x_max":542,"o":"m 113 344 l 113 460 l 542 460 l 542 344 l 113 344 z "},"‹":{"ha":426,"x_min":40,"x_max":356,"o":"m 40 364 l 336 585 l 356 556 l 167 364 l 251 172 l 218 144 l 40 364 z "},"›":{"ha":426,"x_min":33,"x_max":347,"o":"m 53 144 l 33 172 l 221 364 l 135 556 l 171 585 l 347 364 l 53 144 z "},"«":{"ha":664,"x_min":40,"x_max":593,"o":"m 40 364 l 336 585 l 356 556 l 167 364 l 251 172 l 218 144 l 40 364 m 278 364 l 574 585 l 593 556 l 404 364 l 489 172 l 456 144 l 278 364 z "},"»":{"ha":664,"x_min":33,"x_max":585,"o":"m 290 144 l 271 172 l 458 364 l 372 556 l 408 585 l 585 364 l 290 144 m 53 144 l 33 172 l 221 364 l 135 556 l 171 585 l 347 364 l 53 144 z "},"#":{"ha":931,"x_min":85,"x_max":901,"o":"m 850 354 l 657 354 l 606 0 l 524 0 l 572 354 l 363 354 l 310 0 l 226 0 l 279 354 l 85 354 l 96 424 l 293 424 l 326 660 l 128 660 l 139 729 l 339 729 l 388 1069 l 471 1069 l 422 729 l 632 729 l 679 1069 l 763 1069 l 715 729 l 901 729 l 890 660 l 703 660 l 671 424 l 861 424 l 850 354 m 410 660 l 376 424 l 586 424 l 618 660 l 410 660 z "},"*":{"ha":739,"x_min":156,"x_max":750,"o":"m 461 744 q 447 697 453 718 q 440 658 442 676 q 436 622 438 640 q 435 585 435 604 q 372 500 432 500 q 324 521 339 500 q 308 567 308 542 q 317 597 308 585 q 349 632 325 608 q 367 651 358 642 q 383 675 375 661 q 399 708 390 689 q 421 758 408 728 q 331 735 364 749 q 278 710 299 722 q 247 690 258 699 q 218 682 235 682 q 174 702 192 682 q 156 747 156 722 q 174 790 156 771 q 224 810 192 810 q 274 801 247 810 q 336 792 300 792 q 414 800 368 792 q 342 867 374 846 q 287 901 310 889 q 251 926 264 914 q 239 963 239 938 q 260 1013 239 999 q 304 1028 281 1028 q 344 1012 331 1028 q 368 968 357 996 q 396 904 379 940 q 447 826 413 868 q 467 913 464 875 q 471 990 471 950 q 488 1049 471 1028 q 533 1069 506 1069 q 581 1049 563 1069 q 599 1007 599 1029 q 587 971 599 989 q 558 931 575 953 q 521 880 540 908 q 486 811 501 851 q 568 834 536 821 q 622 860 600 847 q 658 881 643 872 q 689 889 674 889 q 731 869 713 889 q 750 824 750 849 q 735 783 750 804 q 686 763 719 763 q 642 770 664 763 q 582 778 619 778 q 542 776 565 778 q 494 769 519 774 q 558 711 526 732 q 615 676 590 690 q 656 646 640 661 q 672 604 672 631 q 653 557 672 572 q 608 542 633 542 q 577 549 589 542 q 557 569 565 557 q 544 594 549 581 q 538 619 540 608 q 510 679 532 642 q 461 744 489 717 z "},"•":{"ha":674,"x_min":138,"x_max":565,"o":"m 347 300 q 267 317 306 300 q 201 362 229 333 q 155 429 172 390 q 138 513 138 468 q 155 595 138 557 q 201 662 172 633 q 270 707 231 690 q 354 724 310 724 q 435 707 397 724 q 503 662 474 690 q 549 595 532 633 q 565 513 565 557 q 548 429 565 468 q 501 362 531 390 q 433 317 472 333 q 347 300 393 300 z "},"§":{"ha":863,"x_min":-1,"x_max":851,"o":"m 168 -65 q 186 -151 168 -125 q 235 -176 204 -176 q 306 -131 283 -176 q 329 3 329 -85 q 306 168 329 74 q 256 363 283 263 q 207 561 229 464 q 185 735 185 658 q 224 930 185 850 q 326 1059 264 1010 q 465 1131 389 1108 q 614 1153 540 1153 q 703 1140 660 1153 q 778 1104 746 1128 q 831 1047 811 1081 q 851 969 851 1013 q 830 899 851 925 q 774 872 808 872 q 747 876 760 872 q 722 890 733 879 q 704 917 711 900 q 697 963 697 935 q 699 988 697 974 q 701 1017 701 1003 q 684 1074 701 1050 q 618 1097 667 1097 q 556 1065 583 1097 q 529 963 529 1033 q 556 785 529 882 q 613 584 582 688 q 671 378 644 481 q 697 183 697 275 q 654 -15 697 67 q 545 -146 611 -96 q 401 -218 479 -196 q 251 -240 322 -240 q 156 -229 201 -240 q 75 -195 110 -218 q 19 -138 40 -172 q -1 -58 -1 -104 q 23 13 -1 -14 q 89 39 47 39 q 149 14 129 39 q 168 -65 168 -11 m 557 124 q 535 296 557 199 q 486 495 513 393 q 438 694 460 597 q 415 863 415 790 q 417 926 415 897 q 424 978 418 954 q 443 1025 431 1003 q 478 1071 456 1047 q 360 971 396 1032 q 324 818 324 910 q 344 649 324 747 q 391 446 365 551 q 438 237 417 340 q 458 50 458 133 q 440 -78 458 -28 q 365 -169 421 -129 q 512 -67 467 -144 q 557 124 557 10 z "},"¶":{"ha":761,"x_min":11,"x_max":836,"o":"m 492 101 q 419 -130 456 -40 q 342 -271 383 -219 q 252 -342 300 -322 q 144 -361 204 -361 q 49 -331 86 -361 q 11 -256 11 -300 q 29 -201 11 -221 q 79 -181 47 -181 q 119 -196 108 -181 q 138 -229 131 -211 q 156 -262 146 -247 q 193 -278 165 -278 q 251 -244 225 -278 q 292 -157 276 -211 l 453 467 q 423 463 438 464 q 393 461 408 461 q 301 475 346 461 q 220 517 256 489 q 163 590 185 546 q 142 696 142 635 q 176 854 142 785 q 273 972 211 924 q 420 1044 335 1019 q 606 1069 506 1069 l 836 1069 l 822 1017 q 769 1011 790 1017 q 732 984 749 1006 q 701 918 715 963 q 667 796 686 874 l 492 101 z "},"†":{"ha":778,"x_min":111,"x_max":800,"o":"m 178 596 q 129 614 147 596 q 111 660 111 632 q 121 701 111 682 q 147 735 131 721 q 183 759 163 750 q 224 768 203 768 q 266 760 247 768 q 307 744 285 753 q 360 725 329 735 q 436 711 390 715 q 451 790 447 756 q 454 850 454 824 q 451 903 454 881 q 449 949 449 926 q 457 999 449 975 q 481 1042 465 1024 q 517 1072 496 1061 q 565 1083 539 1083 q 613 1066 596 1083 q 631 1021 631 1049 q 617 962 631 989 q 583 901 603 935 q 538 824 563 868 q 493 711 514 779 q 576 725 540 715 q 638 744 611 735 q 688 761 665 754 q 735 768 711 768 q 783 751 765 768 q 800 706 800 733 q 790 664 800 683 q 765 629 781 644 q 730 605 750 614 q 689 596 710 596 q 646 603 665 596 q 604 619 626 610 q 552 638 582 629 q 478 651 522 647 q 451 489 451 554 q 458 423 451 453 q 476 363 465 393 q 409 219 446 306 q 335 32 372 132 q 263 -171 297 -68 q 206 -361 229 -274 l 150 -361 q 195 -171 174 -274 q 233 32 217 -68 q 258 219 249 132 q 268 363 268 306 q 317 421 294 392 q 358 484 339 450 q 392 559 376 518 q 422 651 407 600 q 338 638 374 647 q 275 619 303 629 q 224 603 247 610 q 178 596 201 596 z "},"‡":{"ha":826,"x_min":-32,"x_max":828,"o":"m 504 363 q 454 303 476 333 q 413 239 432 274 q 378 163 394 204 q 349 71 363 122 q 431 84 396 75 q 494 103 467 93 q 544 119 521 113 q 590 126 567 126 q 639 108 621 126 q 657 63 657 90 q 647 21 657 40 q 622 -13 638 1 q 585 -37 606 -28 q 544 -46 565 -46 q 502 -39 521 -46 q 461 -22 483 -32 q 409 -3 439 -12 q 333 11 379 7 q 319 -67 322 -33 q 317 -126 317 -100 q 319 -181 317 -158 q 321 -226 321 -204 q 313 -277 321 -253 q 289 -320 304 -301 q 253 -350 274 -339 q 206 -361 232 -361 q 157 -344 175 -361 q 139 -300 139 -328 q 153 -239 139 -267 q 188 -178 167 -211 q 233 -100 208 -144 q 276 11 257 -56 q 192 -3 228 7 q 130 -22 157 -12 q 80 -38 103 -31 q 33 -46 57 -46 q -14 -29 4 -46 q -32 15 -32 -12 q -22 58 -32 38 q 3 93 -12 78 q 38 117 18 108 q 79 126 58 126 q 122 119 103 126 q 165 103 142 113 q 217 84 188 93 q 293 71 247 75 q 319 236 319 171 q 313 301 319 271 q 296 363 307 332 q 344 421 322 392 q 385 484 367 450 q 419 559 404 518 q 450 651 435 600 q 366 638 401 647 q 303 619 331 629 q 252 603 275 610 q 206 596 229 596 q 157 614 175 596 q 139 660 139 632 q 149 701 139 682 q 174 735 158 721 q 210 759 190 750 q 251 768 231 768 q 294 760 275 768 q 335 744 313 753 q 388 725 357 735 q 464 711 418 715 q 478 790 475 756 q 482 850 482 824 q 479 903 482 881 q 476 949 476 926 q 485 999 476 975 q 508 1042 493 1024 q 545 1072 524 1061 q 593 1083 567 1083 q 641 1066 624 1083 q 658 1021 658 1049 q 644 962 658 989 q 610 901 631 935 q 566 824 590 868 q 521 711 542 779 q 603 725 568 715 q 666 744 639 735 q 716 761 693 754 q 763 768 739 768 q 810 751 793 768 q 828 706 828 733 q 818 664 828 683 q 793 629 808 644 q 758 605 778 614 q 717 596 738 596 q 674 603 693 596 q 632 619 654 610 q 580 638 610 629 q 506 651 550 647 q 479 489 479 554 q 486 423 479 453 q 504 363 493 393 z "},"˙":{"ha":228,"x_min":28,"x_max":200,"o":"m 28 1032 q 53 1093 28 1068 q 114 1118 78 1118 q 175 1093 150 1118 q 200 1032 200 1068 q 175 971 200 996 q 114 946 150 946 q 53 971 78 946 q 28 1032 28 996 z "},"¨":{"ha":449,"x_min":24,"x_max":422,"o":"m 26 985 q 64 1042 35 1019 q 128 1065 93 1065 q 174 1049 157 1065 q 190 1006 190 1032 q 181 966 190 985 q 157 934 172 947 q 123 913 142 921 q 85 904 104 904 q 40 920 57 904 q 24 963 24 936 q 24 973 24 968 q 26 985 24 978 m 258 985 q 296 1042 267 1019 q 360 1065 325 1065 q 406 1049 389 1065 q 422 1006 422 1032 q 413 966 422 985 q 389 934 404 947 q 355 913 374 921 q 317 904 336 904 q 272 920 289 904 q 256 963 256 936 q 256 973 256 968 q 258 985 256 978 z "},"´":{"ha":382,"x_min":28,"x_max":354,"o":"m 28 904 l 208 1069 q 301 1115 258 1115 q 340 1103 325 1115 q 354 1067 354 1090 q 335 1027 354 1044 q 283 994 317 1010 l 93 904 l 28 904 z "},"`":{"ha":382,"x_min":40,"x_max":325,"o":"m 260 904 l 94 994 q 55 1023 69 1008 q 40 1056 40 1038 q 62 1099 40 1083 q 108 1115 83 1115 q 189 1069 151 1115 l 325 904 l 260 904 z "},"˝":{"ha":657,"x_min":28,"x_max":629,"o":"m 28 904 l 208 1069 q 301 1115 258 1115 q 340 1103 325 1115 q 354 1067 354 1090 q 335 1027 354 1044 q 283 994 317 1010 l 93 904 l 28 904 m 303 904 l 483 1069 q 576 1115 533 1115 q 615 1103 600 1115 q 629 1067 629 1090 q 610 1027 629 1044 q 558 994 592 1010 l 368 904 l 303 904 z "},"˜":{"ha":529,"x_min":28,"x_max":501,"o":"m 28 917 q 80 1031 39 988 q 174 1075 121 1075 q 224 1067 194 1075 q 293 1042 253 1060 q 355 1017 333 1024 q 394 1011 376 1011 q 432 1024 418 1011 q 456 1069 446 1038 l 501 1069 q 486 1010 499 1042 q 457 956 474 978 q 364 906 419 906 q 320 913 344 906 q 247 940 296 921 q 175 965 200 958 q 133 972 150 972 q 97 960 110 972 q 75 917 85 947 l 28 917 z "},"~":{"ha":740,"x_min":97,"x_max":633,"o":"m 97 346 q 149 460 108 415 q 242 504 190 504 q 305 497 269 504 q 397 471 340 490 q 476 447 447 454 q 528 440 506 440 q 565 453 551 440 q 588 499 578 467 l 633 499 q 619 441 631 471 q 589 385 607 411 q 499 335 547 335 q 442 342 474 335 q 351 369 411 350 q 294 386 318 379 q 254 396 271 393 q 226 400 238 399 q 203 401 214 401 q 167 389 181 401 q 144 346 154 376 l 97 346 z "},"˘":{"ha":439,"x_min":46,"x_max":435,"o":"m 435 1078 q 397 1005 422 1038 q 340 948 372 972 q 271 910 308 924 q 194 897 233 897 q 85 935 125 897 q 46 1033 46 972 q 51 1078 46 1057 l 101 1078 q 136 1016 104 1039 q 219 993 168 993 q 317 1016 272 993 q 383 1078 361 1039 l 435 1078 z "},"˚":{"ha":297,"x_min":22,"x_max":274,"o":"m 22 997 q 35 1054 22 1026 q 69 1104 47 1082 q 119 1140 90 1126 q 179 1153 147 1153 q 249 1129 224 1153 q 274 1067 274 1106 q 260 1006 274 1035 q 225 957 247 978 q 174 924 203 936 q 114 911 144 911 q 47 935 71 911 q 22 997 22 958 m 165 1094 q 108 1072 135 1094 q 81 1014 81 1049 q 94 980 81 993 q 132 967 108 967 q 188 991 163 967 q 214 1050 214 1015 q 201 1082 214 1069 q 165 1094 188 1094 z "},"¯":{"ha":431,"x_min":18,"x_max":411,"o":"m 18 975 l 36 1044 l 411 1044 l 393 975 l 18 975 z "},"ˆ":{"ha":511,"x_min":3,"x_max":458,"o":"m 342 1083 l 458 904 l 396 904 l 256 999 l 65 904 l 3 904 l 217 1083 l 342 1083 z "},"^":{"ha":668,"x_min":83,"x_max":538,"o":"m 438 568 l 538 319 l 475 319 l 353 483 l 144 319 l 83 319 l 313 568 l 438 568 z "},"ˇ":{"ha":511,"x_min":51,"x_max":507,"o":"m 168 904 l 51 1083 l 114 1083 l 254 989 l 444 1083 l 507 1083 l 293 904 l 168 904 z "},"ʼ":{"ha":269,"x_min":74,"x_max":224,"o":"m 74 849 q 81 978 79 921 q 91 1074 83 1035 q 117 1133 99 1113 q 175 1153 135 1153 q 211 1140 199 1153 q 224 1104 224 1126 q 221 1083 224 1097 q 206 1044 218 1071 q 177 983 193 1017 q 144 914 161 950 q 114 849 126 878 l 74 849 z "},"¸":{"ha":322,"x_min":-15,"x_max":333,"o":"m 189 -100 q 297 -122 260 -100 q 333 -187 333 -144 q 315 -255 333 -224 q 267 -310 297 -286 q 199 -347 238 -333 q 122 -361 161 -361 q 22 -336 60 -361 q -15 -274 -15 -311 q 1 -225 -15 -244 q 42 -206 18 -206 q 65 -221 58 -206 q 76 -253 71 -236 q 90 -286 81 -271 q 125 -301 100 -301 q 187 -276 158 -301 q 215 -214 215 -251 q 122 -157 215 -157 q 94 -158 108 -157 q 74 -160 81 -158 l 72 -156 l 190 17 l 264 17 l 189 -100 z "},"˛":{"ha":368,"x_min":0,"x_max":353,"o":"m 353 -211 q 253 -296 310 -267 q 135 -325 197 -325 q 35 -294 71 -325 q 0 -207 0 -262 q 54 -83 0 -140 q 207 14 108 -25 l 281 14 l 281 8 q 212 -33 243 -10 q 158 -80 181 -56 q 122 -128 135 -104 q 110 -175 110 -153 q 131 -222 110 -203 q 181 -242 151 -242 q 242 -223 207 -242 q 313 -168 276 -204 l 353 -211 z "},"":{"ha":225,"x_min":28,"x_max":197,"o":"m 35 -325 q 103 -273 82 -299 q 125 -217 125 -247 q 89 -228 111 -228 q 44 -210 61 -228 q 28 -162 28 -192 q 51 -110 28 -131 q 110 -89 74 -89 q 174 -117 151 -89 q 197 -199 197 -146 q 167 -283 197 -243 q 65 -361 138 -322 l 35 -325 z "},"ä":{"ha":792,"x_min":14,"x_max":739,"o":"m 461 678 q 352 629 408 678 q 250 508 296 581 q 175 351 204 435 q 146 194 146 267 q 167 115 146 144 q 224 85 188 85 q 290 110 256 85 q 358 178 325 136 q 419 275 390 221 q 471 387 449 329 q 506 500 493 444 q 518 600 518 556 q 503 657 518 636 q 461 678 488 678 m 604 736 l 719 736 l 640 524 q 602 411 621 471 q 569 296 583 351 q 546 194 554 240 q 538 126 538 149 q 564 86 538 86 q 620 126 583 86 q 703 231 657 167 l 739 201 q 613 42 681 99 q 483 -14 546 -14 q 434 10 451 -14 q 417 90 417 35 q 417 119 417 103 q 421 164 418 136 l 415 165 q 366 94 394 126 q 304 37 338 61 q 235 -1 271 13 q 164 -14 199 -14 q 53 40 93 -14 q 14 188 14 93 q 54 383 14 283 q 158 565 94 483 q 300 698 222 646 q 453 750 378 750 q 528 728 499 750 q 575 658 557 707 l 604 736 m 318 985 q 356 1042 326 1019 q 419 1065 385 1065 q 465 1049 449 1065 q 482 1006 482 1032 q 473 966 482 985 q 449 934 464 947 q 415 913 433 921 q 376 904 396 904 q 332 920 349 904 q 315 963 315 936 q 315 973 315 968 q 318 985 315 978 m 550 985 q 588 1042 558 1019 q 651 1065 617 1065 q 697 1049 681 1065 q 714 1006 714 1032 q 705 966 714 985 q 681 934 696 947 q 647 913 665 921 q 608 904 628 904 q 564 920 581 904 q 547 963 547 936 q 547 973 547 968 q 550 985 547 978 z "},"á":{"ha":792,"x_min":14,"x_max":739,"o":"m 461 678 q 352 629 408 678 q 250 508 296 581 q 175 351 204 435 q 146 194 146 267 q 167 115 146 144 q 224 85 188 85 q 290 110 256 85 q 358 178 325 136 q 419 275 390 221 q 471 387 449 329 q 506 500 493 444 q 518 600 518 556 q 503 657 518 636 q 461 678 488 678 m 604 736 l 719 736 l 640 524 q 602 411 621 471 q 569 296 583 351 q 546 194 554 240 q 538 126 538 149 q 564 86 538 86 q 620 126 583 86 q 703 231 657 167 l 739 201 q 613 42 681 99 q 483 -14 546 -14 q 434 10 451 -14 q 417 90 417 35 q 417 119 417 103 q 421 164 418 136 l 415 165 q 366 94 394 126 q 304 37 338 61 q 235 -1 271 13 q 164 -14 199 -14 q 53 40 93 -14 q 14 188 14 93 q 54 383 14 283 q 158 565 94 483 q 300 698 222 646 q 453 750 378 750 q 528 728 499 750 q 575 658 557 707 l 604 736 m 389 904 l 569 1069 q 663 1115 619 1115 q 701 1103 686 1115 q 715 1067 715 1090 q 697 1027 715 1044 q 644 994 678 1010 l 454 904 l 389 904 z "},"à":{"ha":792,"x_min":14,"x_max":739,"o":"m 461 678 q 352 629 408 678 q 250 508 296 581 q 175 351 204 435 q 146 194 146 267 q 167 115 146 144 q 224 85 188 85 q 290 110 256 85 q 358 178 325 136 q 419 275 390 221 q 471 387 449 329 q 506 500 493 444 q 518 600 518 556 q 503 657 518 636 q 461 678 488 678 m 604 736 l 719 736 l 640 524 q 602 411 621 471 q 569 296 583 351 q 546 194 554 240 q 538 126 538 149 q 564 86 538 86 q 620 126 583 86 q 703 231 657 167 l 739 201 q 613 42 681 99 q 483 -14 546 -14 q 434 10 451 -14 q 417 90 417 35 q 417 119 417 103 q 421 164 418 136 l 415 165 q 366 94 394 126 q 304 37 338 61 q 235 -1 271 13 q 164 -14 199 -14 q 53 40 93 -14 q 14 188 14 93 q 54 383 14 283 q 158 565 94 483 q 300 698 222 646 q 453 750 378 750 q 528 728 499 750 q 575 658 557 707 l 604 736 m 558 904 l 393 994 q 353 1023 368 1008 q 339 1056 339 1038 q 360 1099 339 1083 q 407 1115 382 1115 q 488 1069 450 1115 l 624 904 l 558 904 z "},"ã":{"ha":792,"x_min":14,"x_max":750,"o":"m 461 678 q 352 629 408 678 q 250 508 296 581 q 175 351 204 435 q 146 194 146 267 q 167 115 146 144 q 224 85 188 85 q 290 110 256 85 q 358 178 325 136 q 419 275 390 221 q 471 387 449 329 q 506 500 493 444 q 518 600 518 556 q 503 657 518 636 q 461 678 488 678 m 604 736 l 719 736 l 640 524 q 602 411 621 471 q 569 296 583 351 q 546 194 554 240 q 538 126 538 149 q 564 86 538 86 q 620 126 583 86 q 703 231 657 167 l 739 201 q 613 42 681 99 q 483 -14 546 -14 q 434 10 451 -14 q 417 90 417 35 q 417 119 417 103 q 421 164 418 136 l 415 165 q 366 94 394 126 q 304 37 338 61 q 235 -1 271 13 q 164 -14 199 -14 q 53 40 93 -14 q 14 188 14 93 q 54 383 14 283 q 158 565 94 483 q 300 698 222 646 q 453 750 378 750 q 528 728 499 750 q 575 658 557 707 l 604 736 m 276 917 q 328 1031 288 988 q 422 1075 369 1075 q 472 1067 443 1075 q 542 1042 501 1060 q 603 1017 582 1024 q 643 1011 625 1011 q 681 1024 667 1011 q 704 1069 694 1038 l 750 1069 q 735 1010 747 1042 q 706 956 722 978 q 613 906 668 906 q 569 913 593 906 q 496 940 544 921 q 424 965 449 958 q 382 972 399 972 q 346 960 358 972 q 324 917 333 947 l 276 917 z "},"ă":{"ha":792,"x_min":14,"x_max":739,"o":"m 461 678 q 352 629 408 678 q 250 508 296 581 q 175 351 204 435 q 146 194 146 267 q 167 115 146 144 q 224 85 188 85 q 290 110 256 85 q 358 178 325 136 q 419 275 390 221 q 471 387 449 329 q 506 500 493 444 q 518 600 518 556 q 503 657 518 636 q 461 678 488 678 m 604 736 l 719 736 l 640 524 q 602 411 621 471 q 569 296 583 351 q 546 194 554 240 q 538 126 538 149 q 564 86 538 86 q 620 126 583 86 q 703 231 657 167 l 739 201 q 613 42 681 99 q 483 -14 546 -14 q 434 10 451 -14 q 417 90 417 35 q 417 119 417 103 q 421 164 418 136 l 415 165 q 366 94 394 126 q 304 37 338 61 q 235 -1 271 13 q 164 -14 199 -14 q 53 40 93 -14 q 14 188 14 93 q 54 383 14 283 q 158 565 94 483 q 300 698 222 646 q 453 750 378 750 q 528 728 499 750 q 575 658 557 707 l 604 736 m 729 1078 q 692 1005 717 1038 q 635 948 667 972 q 565 910 603 924 q 489 897 528 897 q 380 935 419 897 q 340 1033 340 972 q 346 1078 340 1057 l 396 1078 q 431 1016 399 1039 q 514 993 463 993 q 611 1016 567 993 q 678 1078 656 1039 l 729 1078 z "},"å":{"ha":792,"x_min":14,"x_max":739,"o":"m 461 678 q 352 629 408 678 q 250 508 296 581 q 175 351 204 435 q 146 194 146 267 q 167 115 146 144 q 224 85 188 85 q 290 110 256 85 q 358 178 325 136 q 419 275 390 221 q 471 387 449 329 q 506 500 493 444 q 518 600 518 556 q 503 657 518 636 q 461 678 488 678 m 604 736 l 719 736 l 640 524 q 602 411 621 471 q 569 296 583 351 q 546 194 554 240 q 538 126 538 149 q 564 86 538 86 q 620 126 583 86 q 703 231 657 167 l 739 201 q 613 42 681 99 q 483 -14 546 -14 q 434 10 451 -14 q 417 90 417 35 q 417 119 417 103 q 421 164 418 136 l 415 165 q 366 94 394 126 q 304 37 338 61 q 235 -1 271 13 q 164 -14 199 -14 q 53 40 93 -14 q 14 188 14 93 q 54 383 14 283 q 158 565 94 483 q 300 698 222 646 q 453 750 378 750 q 528 728 499 750 q 575 658 557 707 l 604 736 m 389 997 q 401 1054 389 1026 q 435 1104 414 1082 q 485 1140 457 1126 q 546 1153 514 1153 q 615 1129 590 1153 q 640 1067 640 1106 q 627 1006 640 1035 q 592 957 614 978 q 540 924 569 936 q 481 911 511 911 q 413 935 438 911 q 389 997 389 958 m 532 1094 q 474 1072 501 1094 q 447 1014 447 1049 q 461 980 447 993 q 499 967 475 967 q 555 991 529 967 q 581 1050 581 1015 q 567 1082 581 1069 q 532 1094 554 1094 z "},"ā":{"ha":792,"x_min":14,"x_max":739,"o":"m 461 678 q 352 629 408 678 q 250 508 296 581 q 175 351 204 435 q 146 194 146 267 q 167 115 146 144 q 224 85 188 85 q 290 110 256 85 q 358 178 325 136 q 419 275 390 221 q 471 387 449 329 q 506 500 493 444 q 518 600 518 556 q 503 657 518 636 q 461 678 488 678 m 604 736 l 719 736 l 640 524 q 602 411 621 471 q 569 296 583 351 q 546 194 554 240 q 538 126 538 149 q 564 86 538 86 q 620 126 583 86 q 703 231 657 167 l 739 201 q 613 42 681 99 q 483 -14 546 -14 q 434 10 451 -14 q 417 90 417 35 q 417 119 417 103 q 421 164 418 136 l 415 165 q 366 94 394 126 q 304 37 338 61 q 235 -1 271 13 q 164 -14 199 -14 q 53 40 93 -14 q 14 188 14 93 q 54 383 14 283 q 158 565 94 483 q 300 698 222 646 q 453 750 378 750 q 528 728 499 750 q 575 658 557 707 l 604 736 m 317 975 l 335 1044 l 710 1044 l 692 975 l 317 975 z "},"â":{"ha":792,"x_min":14,"x_max":739,"o":"m 461 678 q 352 629 408 678 q 250 508 296 581 q 175 351 204 435 q 146 194 146 267 q 167 115 146 144 q 224 85 188 85 q 290 110 256 85 q 358 178 325 136 q 419 275 390 221 q 471 387 449 329 q 506 500 493 444 q 518 600 518 556 q 503 657 518 636 q 461 678 488 678 m 604 736 l 719 736 l 640 524 q 602 411 621 471 q 569 296 583 351 q 546 194 554 240 q 538 126 538 149 q 564 86 538 86 q 620 126 583 86 q 703 231 657 167 l 739 201 q 613 42 681 99 q 483 -14 546 -14 q 434 10 451 -14 q 417 90 417 35 q 417 119 417 103 q 421 164 418 136 l 415 165 q 366 94 394 126 q 304 37 338 61 q 235 -1 271 13 q 164 -14 199 -14 q 53 40 93 -14 q 14 188 14 93 q 54 383 14 283 q 158 565 94 483 q 300 698 222 646 q 453 750 378 750 q 528 728 499 750 q 575 658 557 707 l 604 736 m 600 1083 l 717 904 l 654 904 l 514 999 l 324 904 l 261 904 l 475 1083 l 600 1083 z "},"ą":{"ha":792,"x_min":14,"x_max":739,"o":"m 608 -211 q 509 -296 565 -267 q 390 -325 453 -325 q 291 -294 326 -325 q 256 -207 256 -262 q 303 -90 256 -144 q 439 4 351 -35 q 417 90 417 28 q 417 119 417 103 q 421 164 418 136 l 415 165 q 366 94 394 126 q 304 37 338 61 q 235 -1 271 13 q 164 -14 199 -14 q 53 40 93 -14 q 14 188 14 93 q 54 383 14 283 q 158 565 94 483 q 300 698 222 646 q 453 750 378 750 q 528 728 499 750 q 575 658 557 707 l 604 736 l 719 736 l 640 524 q 602 411 621 471 q 569 296 583 351 q 546 194 554 240 q 538 126 538 149 q 564 86 538 86 q 620 126 583 86 q 703 231 657 167 l 739 201 q 621 49 685 104 q 496 -12 557 -7 q 401 -93 438 -49 q 365 -175 365 -137 q 386 -222 365 -203 q 436 -242 407 -242 q 497 -223 463 -242 q 568 -168 532 -204 l 608 -211 m 461 678 q 352 629 408 678 q 250 508 296 581 q 175 351 204 435 q 146 194 146 267 q 167 115 146 144 q 224 85 188 85 q 290 110 256 85 q 358 178 325 136 q 419 275 390 221 q 471 387 449 329 q 506 500 493 444 q 518 600 518 556 q 503 657 518 636 q 461 678 488 678 z "},"ċ":{"ha":613,"x_min":19,"x_max":597,"o":"m 518 224 q 383 47 460 108 q 218 -14 306 -14 q 74 48 128 -14 q 19 213 19 110 q 38 338 19 274 q 86 461 56 401 q 158 574 117 521 q 247 665 200 626 q 345 727 294 704 q 444 750 396 750 q 554 714 511 750 q 597 624 597 678 q 577 567 597 589 q 525 546 557 546 q 473 566 493 546 q 453 615 453 586 q 458 644 453 633 q 464 665 464 656 q 431 685 464 685 q 338 642 385 685 q 252 531 290 599 q 190 378 214 463 q 165 211 165 294 q 191 106 165 144 q 263 68 217 68 q 315 82 288 68 q 369 120 342 96 q 423 178 397 144 q 469 251 449 211 l 518 224 m 396 1032 q 421 1093 396 1068 q 482 1118 446 1118 q 543 1093 518 1118 q 568 1032 568 1068 q 543 971 568 996 q 482 946 518 946 q 421 971 446 946 q 396 1032 396 996 z "},"ć":{"ha":613,"x_min":19,"x_max":683,"o":"m 518 224 q 383 47 460 108 q 218 -14 306 -14 q 74 48 128 -14 q 19 213 19 110 q 38 338 19 274 q 86 461 56 401 q 158 574 117 521 q 247 665 200 626 q 345 727 294 704 q 444 750 396 750 q 554 714 511 750 q 597 624 597 678 q 577 567 597 589 q 525 546 557 546 q 473 566 493 546 q 453 615 453 586 q 458 644 453 633 q 464 665 464 656 q 431 685 464 685 q 338 642 385 685 q 252 531 290 599 q 190 378 214 463 q 165 211 165 294 q 191 106 165 144 q 263 68 217 68 q 315 82 288 68 q 369 120 342 96 q 423 178 397 144 q 469 251 449 211 l 518 224 m 357 904 l 538 1069 q 631 1115 588 1115 q 669 1103 654 1115 q 683 1067 683 1090 q 665 1027 683 1044 q 613 994 646 1010 l 422 904 l 357 904 z "},"ĉ":{"ha":613,"x_min":19,"x_max":685,"o":"m 518 224 q 383 47 460 108 q 218 -14 306 -14 q 74 48 128 -14 q 19 213 19 110 q 38 338 19 274 q 86 461 56 401 q 158 574 117 521 q 247 665 200 626 q 345 727 294 704 q 444 750 396 750 q 554 714 511 750 q 597 624 597 678 q 577 567 597 589 q 525 546 557 546 q 473 566 493 546 q 453 615 453 586 q 458 644 453 633 q 464 665 464 656 q 431 685 464 685 q 338 642 385 685 q 252 531 290 599 q 190 378 214 463 q 165 211 165 294 q 191 106 165 144 q 263 68 217 68 q 315 82 288 68 q 369 120 342 96 q 423 178 397 144 q 469 251 449 211 l 518 224 m 568 1083 l 685 904 l 622 904 l 482 999 l 292 904 l 229 904 l 443 1083 l 568 1083 z "},"č":{"ha":613,"x_min":19,"x_max":733,"o":"m 518 224 q 383 47 460 108 q 218 -14 306 -14 q 74 48 128 -14 q 19 213 19 110 q 38 338 19 274 q 86 461 56 401 q 158 574 117 521 q 247 665 200 626 q 345 727 294 704 q 444 750 396 750 q 554 714 511 750 q 597 624 597 678 q 577 567 597 589 q 525 546 557 546 q 473 566 493 546 q 453 615 453 586 q 458 644 453 633 q 464 665 464 656 q 431 685 464 685 q 338 642 385 685 q 252 531 290 599 q 190 378 214 463 q 165 211 165 294 q 191 106 165 144 q 263 68 217 68 q 315 82 288 68 q 369 120 342 96 q 423 178 397 144 q 469 251 449 211 l 518 224 m 394 904 l 278 1083 l 340 1083 l 481 989 l 671 1083 l 733 1083 l 519 904 l 394 904 z "},"ç":{"ha":613,"x_min":19,"x_max":597,"o":"m 518 224 q 413 74 472 132 q 286 -4 354 15 l 225 -100 q 333 -122 296 -100 q 369 -187 369 -144 q 351 -255 369 -224 q 303 -310 333 -286 q 235 -347 274 -333 q 158 -361 197 -361 q 58 -336 96 -361 q 21 -274 21 -311 q 38 -225 21 -244 q 78 -206 54 -206 q 101 -221 94 -206 q 112 -253 107 -236 q 126 -286 117 -271 q 161 -301 136 -301 q 223 -276 194 -301 q 251 -214 251 -251 q 158 -157 251 -157 q 131 -158 144 -157 q 110 -160 117 -158 l 108 -156 l 206 -14 q 70 52 121 -8 q 19 213 19 113 q 38 338 19 274 q 86 461 56 401 q 158 574 117 521 q 247 665 200 626 q 345 727 294 704 q 444 750 396 750 q 554 714 511 750 q 597 624 597 678 q 577 567 597 589 q 525 546 557 546 q 473 566 493 546 q 453 615 453 586 q 458 644 453 633 q 464 665 464 656 q 431 685 464 685 q 338 642 385 685 q 252 531 290 599 q 190 378 214 463 q 165 211 165 294 q 191 106 165 144 q 263 68 217 68 q 315 82 288 68 q 369 120 342 96 q 423 178 397 144 q 469 251 449 211 l 518 224 z "},"ḍ":{"ha":831,"x_min":15,"x_max":828,"o":"m 650 961 q 667 1024 661 999 q 672 1060 672 1049 q 644 1089 672 1081 q 544 1097 617 1097 l 560 1153 l 828 1153 l 674 590 q 625 406 644 482 q 594 277 606 329 q 578 192 582 225 q 574 136 574 158 q 583 92 574 104 q 608 79 593 79 q 674 131 639 79 q 738 265 710 182 l 790 253 q 687 51 743 115 q 560 -14 631 -14 q 483 18 510 -14 q 456 110 456 50 q 458 142 456 125 q 465 174 461 158 l 454 176 q 326 35 401 85 q 183 -14 251 -14 q 117 2 147 -14 q 64 47 86 18 q 28 115 42 75 q 15 203 15 154 q 34 327 15 263 q 85 452 53 392 q 161 567 118 513 q 252 662 204 621 q 351 726 300 703 q 450 750 401 750 q 522 732 497 750 q 569 675 546 714 l 650 961 m 460 676 q 387 653 424 676 q 315 592 350 631 q 251 504 281 554 q 199 400 221 454 q 163 290 176 346 q 150 186 150 235 q 175 106 150 136 q 242 76 200 76 q 307 102 274 76 q 372 169 340 128 q 433 265 404 211 q 483 374 461 318 q 517 485 504 431 q 529 585 529 540 q 513 652 529 628 q 460 676 496 676 m 201 -233 q 226 -172 201 -197 q 288 -147 251 -147 q 349 -172 324 -147 q 374 -233 374 -197 q 349 -294 374 -269 q 288 -319 324 -319 q 226 -294 251 -319 q 201 -233 201 -269 z "},"ď":{"ha":831,"x_min":15,"x_max":1046,"o":"m 650 961 q 667 1024 661 999 q 672 1060 672 1049 q 644 1089 672 1081 q 544 1097 617 1097 l 560 1153 l 828 1153 l 674 590 q 625 406 644 482 q 594 277 606 329 q 578 192 582 225 q 574 136 574 158 q 583 92 574 104 q 608 79 593 79 q 674 131 639 79 q 738 265 710 182 l 790 253 q 687 51 743 115 q 560 -14 631 -14 q 483 18 510 -14 q 456 110 456 50 q 458 142 456 125 q 465 174 461 158 l 454 176 q 326 35 401 85 q 183 -14 251 -14 q 117 2 147 -14 q 64 47 86 18 q 28 115 42 75 q 15 203 15 154 q 34 327 15 263 q 85 452 53 392 q 161 567 118 513 q 252 662 204 621 q 351 726 300 703 q 450 750 401 750 q 522 732 497 750 q 569 675 546 714 l 650 961 m 460 676 q 387 653 424 676 q 315 592 350 631 q 251 504 281 554 q 199 400 221 454 q 163 290 176 346 q 150 186 150 235 q 175 106 150 136 q 242 76 200 76 q 307 102 274 76 q 372 169 340 128 q 433 265 404 211 q 483 374 461 318 q 517 485 504 431 q 529 585 529 540 q 513 652 529 628 q 460 676 496 676 m 843 847 q 926 899 897 874 q 963 956 954 925 q 924 944 947 944 q 878 988 878 944 q 909 1056 878 1028 q 982 1083 940 1083 q 1046 1018 1046 1083 q 1006 909 1046 960 q 864 811 965 858 l 843 847 z "},"đ":{"ha":831,"x_min":15,"x_max":881,"o":"m 629 888 l 472 888 l 493 961 l 650 961 q 667 1024 661 999 q 672 1060 672 1049 q 644 1089 672 1081 q 544 1097 617 1097 l 560 1153 l 828 1153 l 775 961 l 881 961 l 860 888 l 754 888 l 674 590 q 625 406 644 482 q 594 277 606 329 q 578 192 582 225 q 574 136 574 158 q 583 92 574 104 q 608 79 593 79 q 674 131 639 79 q 738 265 710 182 l 790 253 q 687 51 743 115 q 560 -14 631 -14 q 483 18 510 -14 q 456 110 456 50 q 458 142 456 125 q 465 174 461 158 l 454 176 q 326 35 401 85 q 183 -14 251 -14 q 117 2 147 -14 q 64 47 86 18 q 28 115 42 75 q 15 203 15 154 q 34 327 15 263 q 85 452 53 392 q 161 567 118 513 q 252 662 204 621 q 351 726 300 703 q 450 750 401 750 q 522 732 497 750 q 569 675 546 714 l 629 888 m 460 676 q 387 653 424 676 q 315 592 350 631 q 251 504 281 554 q 199 400 221 454 q 163 290 176 346 q 150 186 150 235 q 175 106 150 136 q 242 76 200 76 q 307 102 274 76 q 372 169 340 128 q 433 265 404 211 q 483 374 461 318 q 517 485 504 431 q 529 585 529 540 q 513 652 529 628 q 460 676 496 676 z "},"ė":{"ha":633,"x_min":19,"x_max":615,"o":"m 515 185 q 218 -14 394 -14 q 71 45 122 -14 q 19 213 19 104 q 59 404 19 308 q 163 577 99 500 q 306 702 226 654 q 464 750 385 750 q 573 716 531 750 q 615 629 615 682 q 579 529 615 581 q 481 432 543 478 q 337 349 419 386 q 161 290 254 311 q 157 252 158 271 q 156 214 156 233 q 263 63 156 63 q 369 103 314 63 q 471 214 424 143 l 515 185 m 436 685 q 361 657 400 685 q 287 583 322 629 q 222 476 251 536 q 175 353 193 417 q 299 400 242 371 q 397 466 356 429 q 461 544 438 503 q 485 626 485 585 q 436 685 485 685 m 414 1032 q 439 1093 414 1068 q 500 1118 464 1118 q 561 1093 536 1118 q 586 1032 586 1068 q 561 971 586 996 q 500 946 536 946 q 439 971 464 946 q 414 1032 414 996 z "},"ë":{"ha":633,"x_min":19,"x_max":700,"o":"m 515 185 q 218 -14 394 -14 q 71 45 122 -14 q 19 213 19 104 q 59 404 19 308 q 163 577 99 500 q 306 702 226 654 q 464 750 385 750 q 573 716 531 750 q 615 629 615 682 q 579 529 615 581 q 481 432 543 478 q 337 349 419 386 q 161 290 254 311 q 157 252 158 271 q 156 214 156 233 q 263 63 156 63 q 369 103 314 63 q 471 214 424 143 l 515 185 m 436 685 q 361 657 400 685 q 287 583 322 629 q 222 476 251 536 q 175 353 193 417 q 299 400 242 371 q 397 466 356 429 q 461 544 438 503 q 485 626 485 585 q 436 685 485 685 m 304 985 q 342 1042 313 1019 q 406 1065 371 1065 q 451 1049 435 1065 q 468 1006 468 1032 q 459 966 468 985 q 435 934 450 947 q 401 913 419 921 q 363 904 382 904 q 318 920 335 904 q 301 963 301 936 q 301 973 301 968 q 304 985 301 978 m 536 985 q 574 1042 544 1019 q 638 1065 603 1065 q 683 1049 667 1065 q 700 1006 700 1032 q 691 966 700 985 q 667 934 682 947 q 633 913 651 921 q 594 904 614 904 q 550 920 567 904 q 533 963 533 936 q 533 973 533 968 q 536 985 533 978 z "},"é":{"ha":633,"x_min":19,"x_max":701,"o":"m 515 185 q 218 -14 394 -14 q 71 45 122 -14 q 19 213 19 104 q 59 404 19 308 q 163 577 99 500 q 306 702 226 654 q 464 750 385 750 q 573 716 531 750 q 615 629 615 682 q 579 529 615 581 q 481 432 543 478 q 337 349 419 386 q 161 290 254 311 q 157 252 158 271 q 156 214 156 233 q 263 63 156 63 q 369 103 314 63 q 471 214 424 143 l 515 185 m 436 685 q 361 657 400 685 q 287 583 322 629 q 222 476 251 536 q 175 353 193 417 q 299 400 242 371 q 397 466 356 429 q 461 544 438 503 q 485 626 485 585 q 436 685 485 685 m 375 904 l 556 1069 q 649 1115 606 1115 q 687 1103 672 1115 q 701 1067 701 1090 q 683 1027 701 1044 q 631 994 664 1010 l 440 904 l 375 904 z "},"è":{"ha":633,"x_min":19,"x_max":615,"o":"m 515 185 q 218 -14 394 -14 q 71 45 122 -14 q 19 213 19 104 q 59 404 19 308 q 163 577 99 500 q 306 702 226 654 q 464 750 385 750 q 573 716 531 750 q 615 629 615 682 q 579 529 615 581 q 481 432 543 478 q 337 349 419 386 q 161 290 254 311 q 157 252 158 271 q 156 214 156 233 q 263 63 156 63 q 369 103 314 63 q 471 214 424 143 l 515 185 m 436 685 q 361 657 400 685 q 287 583 322 629 q 222 476 251 536 q 175 353 193 417 q 299 400 242 371 q 397 466 356 429 q 461 544 438 503 q 485 626 485 585 q 436 685 485 685 m 544 904 l 379 994 q 340 1023 354 1008 q 325 1056 325 1038 q 347 1099 325 1083 q 393 1115 368 1115 q 474 1069 436 1115 l 610 904 l 544 904 z "},"ẽ":{"ha":633,"x_min":19,"x_max":736,"o":"m 515 185 q 218 -14 394 -14 q 71 45 122 -14 q 19 213 19 104 q 59 404 19 308 q 163 577 99 500 q 306 702 226 654 q 464 750 385 750 q 573 716 531 750 q 615 629 615 682 q 579 529 615 581 q 481 432 543 478 q 337 349 419 386 q 161 290 254 311 q 157 252 158 271 q 156 214 156 233 q 263 63 156 63 q 369 103 314 63 q 471 214 424 143 l 515 185 m 436 685 q 361 657 400 685 q 287 583 322 629 q 222 476 251 536 q 175 353 193 417 q 299 400 242 371 q 397 466 356 429 q 461 544 438 503 q 485 626 485 585 q 436 685 485 685 m 263 917 q 315 1031 274 988 q 408 1075 356 1075 q 458 1067 429 1075 q 528 1042 488 1060 q 590 1017 568 1024 q 629 1011 611 1011 q 667 1024 653 1011 q 690 1069 681 1038 l 736 1069 q 721 1010 733 1042 q 692 956 708 978 q 599 906 654 906 q 555 913 579 906 q 482 940 531 921 q 410 965 435 958 q 368 972 385 972 q 332 960 344 972 q 310 917 319 947 l 263 917 z "},"ĕ":{"ha":633,"x_min":19,"x_max":715,"o":"m 515 185 q 218 -14 394 -14 q 71 45 122 -14 q 19 213 19 104 q 59 404 19 308 q 163 577 99 500 q 306 702 226 654 q 464 750 385 750 q 573 716 531 750 q 615 629 615 682 q 579 529 615 581 q 481 432 543 478 q 337 349 419 386 q 161 290 254 311 q 157 252 158 271 q 156 214 156 233 q 263 63 156 63 q 369 103 314 63 q 471 214 424 143 l 515 185 m 436 685 q 361 657 400 685 q 287 583 322 629 q 222 476 251 536 q 175 353 193 417 q 299 400 242 371 q 397 466 356 429 q 461 544 438 503 q 485 626 485 585 q 436 685 485 685 m 715 1078 q 678 1005 703 1038 q 621 948 653 972 q 551 910 589 924 q 475 897 514 897 q 366 935 406 897 q 326 1033 326 972 q 332 1078 326 1057 l 382 1078 q 417 1016 385 1039 q 500 993 449 993 q 597 1016 553 993 q 664 1078 642 1039 l 715 1078 z "},"ē":{"ha":633,"x_min":19,"x_max":696,"o":"m 515 185 q 218 -14 394 -14 q 71 45 122 -14 q 19 213 19 104 q 59 404 19 308 q 163 577 99 500 q 306 702 226 654 q 464 750 385 750 q 573 716 531 750 q 615 629 615 682 q 579 529 615 581 q 481 432 543 478 q 337 349 419 386 q 161 290 254 311 q 157 252 158 271 q 156 214 156 233 q 263 63 156 63 q 369 103 314 63 q 471 214 424 143 l 515 185 m 436 685 q 361 657 400 685 q 287 583 322 629 q 222 476 251 536 q 175 353 193 417 q 299 400 242 371 q 397 466 356 429 q 461 544 438 503 q 485 626 485 585 q 436 685 485 685 m 303 975 l 321 1044 l 696 1044 l 678 975 l 303 975 z "},"ê":{"ha":633,"x_min":19,"x_max":703,"o":"m 515 185 q 218 -14 394 -14 q 71 45 122 -14 q 19 213 19 104 q 59 404 19 308 q 163 577 99 500 q 306 702 226 654 q 464 750 385 750 q 573 716 531 750 q 615 629 615 682 q 579 529 615 581 q 481 432 543 478 q 337 349 419 386 q 161 290 254 311 q 157 252 158 271 q 156 214 156 233 q 263 63 156 63 q 369 103 314 63 q 471 214 424 143 l 515 185 m 436 685 q 361 657 400 685 q 287 583 322 629 q 222 476 251 536 q 175 353 193 417 q 299 400 242 371 q 397 466 356 429 q 461 544 438 503 q 485 626 485 585 q 436 685 485 685 m 586 1083 l 703 904 l 640 904 l 500 999 l 310 904 l 247 904 l 461 1083 l 586 1083 z "},"ě":{"ha":633,"x_min":19,"x_max":751,"o":"m 515 185 q 218 -14 394 -14 q 71 45 122 -14 q 19 213 19 104 q 59 404 19 308 q 163 577 99 500 q 306 702 226 654 q 464 750 385 750 q 573 716 531 750 q 615 629 615 682 q 579 529 615 581 q 481 432 543 478 q 337 349 419 386 q 161 290 254 311 q 157 252 158 271 q 156 214 156 233 q 263 63 156 63 q 369 103 314 63 q 471 214 424 143 l 515 185 m 436 685 q 361 657 400 685 q 287 583 322 629 q 222 476 251 536 q 175 353 193 417 q 299 400 242 371 q 397 466 356 429 q 461 544 438 503 q 485 626 485 585 q 436 685 485 685 m 413 904 l 296 1083 l 358 1083 l 499 989 l 689 1083 l 751 1083 l 538 904 l 413 904 z "},"ę":{"ha":633,"x_min":-19,"x_max":615,"o":"m 333 -211 q 234 -296 290 -267 q 115 -325 178 -325 q 16 -294 51 -325 q -19 -207 -19 -262 q 24 -95 -19 -149 q 147 -3 68 -42 q 52 72 85 17 q 19 213 19 126 q 59 404 19 308 q 163 577 99 500 q 306 702 226 654 q 464 750 385 750 q 573 716 531 750 q 615 629 615 682 q 579 529 615 581 q 481 432 543 478 q 337 349 419 386 q 161 290 254 311 q 157 252 158 271 q 156 214 156 233 q 263 63 156 63 q 369 103 314 63 q 471 214 424 143 l 515 185 q 219 -14 396 -11 q 126 -94 161 -50 q 90 -175 90 -137 q 111 -222 90 -203 q 161 -242 132 -242 q 222 -223 188 -242 q 293 -168 257 -204 l 333 -211 m 436 685 q 361 657 400 685 q 287 583 322 629 q 222 476 251 536 q 175 353 193 417 q 299 400 242 371 q 397 466 356 429 q 461 544 438 503 q 485 626 485 585 q 436 685 485 685 z "},"ẹ":{"ha":633,"x_min":19,"x_max":615,"o":"m 515 185 q 218 -14 394 -14 q 71 45 122 -14 q 19 213 19 104 q 59 404 19 308 q 163 577 99 500 q 306 702 226 654 q 464 750 385 750 q 573 716 531 750 q 615 629 615 682 q 579 529 615 581 q 481 432 543 478 q 337 349 419 386 q 161 290 254 311 q 157 252 158 271 q 156 214 156 233 q 263 63 156 63 q 369 103 314 63 q 471 214 424 143 l 515 185 m 436 685 q 361 657 400 685 q 287 583 322 629 q 222 476 251 536 q 175 353 193 417 q 299 400 242 371 q 397 466 356 429 q 461 544 438 503 q 485 626 485 585 q 436 685 485 685 m 79 -233 q 104 -172 79 -197 q 165 -147 129 -147 q 226 -172 201 -147 q 251 -233 251 -197 q 226 -294 251 -269 q 165 -319 201 -319 q 104 -294 129 -319 q 79 -233 79 -269 z "},"Œ":{"ha":1608,"x_min":94,"x_max":1561,"o":"m 1561 1069 l 1561 789 l 1508 789 q 1467 901 1489 857 q 1414 968 1446 944 q 1337 1001 1382 992 q 1228 1010 1292 1010 l 1115 1010 q 1089 986 1089 1010 l 994 593 q 1101 599 1058 593 q 1174 621 1144 604 q 1225 669 1204 638 q 1265 753 1246 700 l 1318 753 l 1235 343 l 1179 343 q 1181 384 1181 365 q 1182 419 1182 403 q 1174 478 1182 456 q 1145 514 1167 501 q 1084 532 1124 526 q 982 538 1044 538 l 906 218 q 900 185 901 200 q 899 157 899 169 q 947 81 900 101 q 1101 60 994 60 q 1228 73 1175 60 q 1323 115 1282 86 q 1394 188 1364 143 q 1453 293 1425 232 l 1518 293 l 1410 0 l 557 0 q 366 31 451 0 q 220 118 281 63 q 127 249 160 174 q 94 415 94 325 q 123 588 94 504 q 201 743 151 671 q 320 876 251 815 q 469 979 389 936 q 636 1046 549 1022 q 813 1069 724 1069 l 1561 1069 m 799 1014 q 625 980 707 1014 q 477 882 543 946 q 363 727 411 818 q 288 522 314 636 q 267 365 267 435 q 348 140 267 221 q 576 58 429 58 q 656 64 625 58 q 705 86 686 69 q 735 133 724 103 q 758 211 747 163 l 913 858 q 920 901 917 882 q 924 936 924 921 q 894 999 924 983 q 799 1014 865 1014 z "},"æ":{"ha":1050,"x_min":14,"x_max":1032,"o":"m 932 185 q 635 -14 811 -14 q 498 35 549 -14 q 438 172 447 83 q 381 98 414 132 q 310 39 347 64 q 235 0 274 14 q 163 -14 197 -14 q 53 40 93 -14 q 14 188 14 93 q 54 383 14 283 q 158 565 94 483 q 300 698 222 646 q 453 750 378 750 q 528 728 499 750 q 575 658 557 707 l 614 764 l 729 764 l 688 661 l 692 658 q 780 729 729 708 q 881 750 831 750 q 990 716 947 750 q 1032 629 1032 682 q 996 529 1032 581 q 898 432 960 478 q 753 349 836 386 q 578 290 671 311 q 574 252 575 271 q 572 214 572 233 q 679 63 572 63 q 785 103 731 63 q 888 214 840 143 l 932 185 m 457 678 q 390 656 425 678 q 320 597 354 633 q 254 512 286 560 q 199 410 222 464 q 160 303 175 357 q 146 200 146 249 q 166 115 146 146 q 222 85 186 85 q 290 108 256 85 q 358 169 325 131 q 419 258 390 207 q 471 365 449 308 q 506 480 493 421 q 518 593 518 539 q 457 678 518 678 m 853 685 q 778 657 817 685 q 703 583 739 629 q 639 476 668 536 q 592 353 610 417 q 715 400 658 371 q 813 466 772 429 q 878 544 854 503 q 901 626 901 585 q 853 685 901 685 z "},"œ":{"ha":1100,"x_min":33,"x_max":1082,"o":"m 982 185 q 685 -14 861 -14 q 501 108 544 -14 q 387 19 449 53 q 260 -14 325 -14 q 172 5 213 -14 q 100 60 131 24 q 51 148 69 96 q 33 265 33 200 q 67 443 33 356 q 157 599 101 531 q 284 708 213 667 q 432 750 356 750 q 563 708 507 750 q 643 593 618 667 q 781 707 706 664 q 931 750 856 750 q 1040 716 997 750 q 1082 629 1082 682 q 1046 529 1082 581 q 948 432 1010 478 q 803 349 886 386 q 628 290 721 311 q 624 252 625 271 q 622 214 622 233 q 729 63 622 63 q 835 103 781 63 q 938 214 890 143 l 982 185 m 268 56 q 362 104 315 56 q 445 227 408 153 q 505 389 482 301 q 528 556 528 476 q 502 657 528 629 q 432 685 476 685 q 370 663 401 685 q 311 604 339 642 q 259 518 283 567 q 217 415 235 469 q 189 305 199 361 q 179 197 179 249 q 204 88 179 119 q 268 56 229 56 m 903 685 q 828 658 867 685 q 756 586 790 631 q 692 484 721 542 q 644 364 663 426 l 642 353 q 765 400 708 371 q 863 466 822 429 q 928 544 904 503 q 951 626 951 585 q 903 685 951 685 z "},"ġ":{"ha":764,"x_min":-104,"x_max":825,"o":"m 604 -101 q 578 -209 604 -161 q 505 -291 553 -257 q 389 -343 457 -325 q 236 -361 321 -361 q 97 -347 160 -361 q -10 -307 35 -333 q -80 -245 -56 -281 q -104 -165 -104 -210 q -67 -71 -104 -108 q 26 -33 -31 -33 q 58 -37 43 -33 q 97 -53 74 -42 q 19 -174 19 -85 q 78 -265 19 -232 q 240 -299 138 -299 q 343 -286 296 -299 q 424 -254 390 -274 q 477 -210 458 -235 q 496 -162 496 -186 q 449 -92 496 -124 q 318 -46 403 -61 q 96 15 167 -19 q 25 113 25 50 q 60 181 25 153 q 188 236 96 208 l 190 242 q 85 435 85 317 q 111 556 85 499 q 183 658 138 614 q 288 726 228 701 q 415 751 349 751 q 588 676 518 751 q 714 750 653 750 q 792 723 758 750 q 825 660 825 696 q 806 613 825 632 q 760 594 788 594 q 727 603 739 594 q 707 624 715 613 q 688 644 699 635 q 660 653 678 653 q 642 649 650 653 q 611 631 633 646 q 621 594 618 611 q 624 550 624 576 q 539 306 624 397 q 306 204 454 215 q 210 188 239 199 q 182 154 182 176 q 213 110 182 125 q 292 86 244 96 q 393 67 339 76 q 494 38 447 57 q 573 -13 542 19 q 604 -101 604 -46 m 313 265 q 378 292 346 265 q 435 362 410 318 q 476 461 461 406 q 492 575 492 517 q 467 663 492 631 q 401 696 442 696 q 336 667 369 696 q 276 594 303 639 q 232 494 249 550 q 215 383 215 438 q 242 298 215 331 q 313 265 268 265 m 392 1032 q 417 1093 392 1068 q 478 1118 442 1118 q 539 1093 514 1118 q 564 1032 564 1068 q 539 971 564 996 q 478 946 514 946 q 417 971 442 946 q 392 1032 392 996 z "},"ğ":{"ha":764,"x_min":-104,"x_max":825,"o":"m 604 -101 q 578 -209 604 -161 q 505 -291 553 -257 q 389 -343 457 -325 q 236 -361 321 -361 q 97 -347 160 -361 q -10 -307 35 -333 q -80 -245 -56 -281 q -104 -165 -104 -210 q -67 -71 -104 -108 q 26 -33 -31 -33 q 58 -37 43 -33 q 97 -53 74 -42 q 19 -174 19 -85 q 78 -265 19 -232 q 240 -299 138 -299 q 343 -286 296 -299 q 424 -254 390 -274 q 477 -210 458 -235 q 496 -162 496 -186 q 449 -92 496 -124 q 318 -46 403 -61 q 96 15 167 -19 q 25 113 25 50 q 60 181 25 153 q 188 236 96 208 l 190 242 q 85 435 85 317 q 111 556 85 499 q 183 658 138 614 q 288 726 228 701 q 415 751 349 751 q 588 676 518 751 q 714 750 653 750 q 792 723 758 750 q 825 660 825 696 q 806 613 825 632 q 760 594 788 594 q 727 603 739 594 q 707 624 715 613 q 688 644 699 635 q 660 653 678 653 q 642 649 650 653 q 611 631 633 646 q 621 594 618 611 q 624 550 624 576 q 539 306 624 397 q 306 204 454 215 q 210 188 239 199 q 182 154 182 176 q 213 110 182 125 q 292 86 244 96 q 393 67 339 76 q 494 38 447 57 q 573 -13 542 19 q 604 -101 604 -46 m 313 265 q 378 292 346 265 q 435 362 410 318 q 476 461 461 406 q 492 575 492 517 q 467 663 492 631 q 401 696 442 696 q 336 667 369 696 q 276 594 303 639 q 232 494 249 550 q 215 383 215 438 q 242 298 215 331 q 313 265 268 265 m 693 1078 q 656 1005 681 1038 q 599 948 631 972 q 529 910 567 924 q 453 897 492 897 q 344 935 383 897 q 304 1033 304 972 q 310 1078 304 1057 l 360 1078 q 394 1016 363 1039 q 478 993 426 993 q 575 1016 531 993 q 642 1078 619 1039 l 693 1078 z "},"ĝ":{"ha":764,"x_min":-104,"x_max":825,"o":"m 604 -101 q 578 -209 604 -161 q 505 -291 553 -257 q 389 -343 457 -325 q 236 -361 321 -361 q 97 -347 160 -361 q -10 -307 35 -333 q -80 -245 -56 -281 q -104 -165 -104 -210 q -67 -71 -104 -108 q 26 -33 -31 -33 q 58 -37 43 -33 q 97 -53 74 -42 q 19 -174 19 -85 q 78 -265 19 -232 q 240 -299 138 -299 q 343 -286 296 -299 q 424 -254 390 -274 q 477 -210 458 -235 q 496 -162 496 -186 q 449 -92 496 -124 q 318 -46 403 -61 q 96 15 167 -19 q 25 113 25 50 q 60 181 25 153 q 188 236 96 208 l 190 242 q 85 435 85 317 q 111 556 85 499 q 183 658 138 614 q 288 726 228 701 q 415 751 349 751 q 588 676 518 751 q 714 750 653 750 q 792 723 758 750 q 825 660 825 696 q 806 613 825 632 q 760 594 788 594 q 727 603 739 594 q 707 624 715 613 q 688 644 699 635 q 660 653 678 653 q 642 649 650 653 q 611 631 633 646 q 621 594 618 611 q 624 550 624 576 q 539 306 624 397 q 306 204 454 215 q 210 188 239 199 q 182 154 182 176 q 213 110 182 125 q 292 86 244 96 q 393 67 339 76 q 494 38 447 57 q 573 -13 542 19 q 604 -101 604 -46 m 313 265 q 378 292 346 265 q 435 362 410 318 q 476 461 461 406 q 492 575 492 517 q 467 663 492 631 q 401 696 442 696 q 336 667 369 696 q 276 594 303 639 q 232 494 249 550 q 215 383 215 438 q 242 298 215 331 q 313 265 268 265 m 564 1083 l 681 904 l 618 904 l 478 999 l 288 904 l 225 904 l 439 1083 l 564 1083 z "},"ģ":{"ha":764,"x_min":-104,"x_max":825,"o":"m 554 1140 q 485 1088 507 1114 q 464 1032 464 1063 q 500 1043 478 1043 q 544 1025 528 1043 q 561 978 561 1007 q 538 925 561 946 q 479 904 515 904 q 415 933 438 904 q 392 1014 392 961 q 422 1098 392 1058 q 524 1176 451 1138 l 554 1140 m 604 -101 q 578 -209 604 -161 q 505 -291 553 -257 q 389 -343 457 -325 q 236 -361 321 -361 q 97 -347 160 -361 q -10 -307 35 -333 q -80 -245 -56 -281 q -104 -165 -104 -210 q -67 -71 -104 -108 q 26 -33 -31 -33 q 58 -37 43 -33 q 97 -53 74 -42 q 19 -174 19 -85 q 78 -265 19 -232 q 240 -299 138 -299 q 343 -286 296 -299 q 424 -254 390 -274 q 477 -210 458 -235 q 496 -162 496 -186 q 449 -92 496 -124 q 318 -46 403 -61 q 96 15 167 -19 q 25 113 25 50 q 60 181 25 153 q 188 236 96 208 l 190 242 q 85 435 85 317 q 111 556 85 499 q 183 658 138 614 q 288 726 228 701 q 415 751 349 751 q 588 676 518 751 q 714 750 653 750 q 792 723 758 750 q 825 660 825 696 q 806 613 825 632 q 760 594 788 594 q 727 603 739 594 q 707 624 715 613 q 688 644 699 635 q 660 653 678 653 q 642 649 650 653 q 611 631 633 646 q 621 594 618 611 q 624 550 624 576 q 539 306 624 397 q 306 204 454 215 q 210 188 239 199 q 182 154 182 176 q 213 110 182 125 q 292 86 244 96 q 393 67 339 76 q 494 38 447 57 q 573 -13 542 19 q 604 -101 604 -46 m 313 265 q 378 292 346 265 q 435 362 410 318 q 476 461 461 406 q 492 575 492 517 q 467 663 492 631 q 401 696 442 696 q 336 667 369 696 q 276 594 303 639 q 232 494 249 550 q 215 383 215 438 q 242 298 215 331 q 313 265 268 265 z "},"ĥ":{"ha":797,"x_min":-10,"x_max":821,"o":"m 732 1083 l 821 904 l 758 904 l 646 999 l 483 904 l 421 904 l 607 1083 l 732 1083 m 494 432 q 528 544 518 503 q 539 618 539 586 q 528 663 539 650 q 493 676 518 676 q 408 643 450 676 q 324 539 367 610 q 236 358 282 468 q 139 96 190 249 l 107 0 l -10 0 l 265 942 q 281 1003 275 976 q 286 1044 286 1029 q 260 1083 286 1072 q 163 1097 233 1094 l 172 1153 l 456 1153 l 297 617 l 301 614 q 404 715 346 679 q 526 750 463 750 q 628 711 593 750 q 663 599 663 672 q 649 492 663 553 q 606 351 635 431 q 563 233 578 276 q 540 167 547 190 q 531 136 533 144 q 529 122 529 128 q 556 90 529 90 q 624 123 583 90 q 707 214 665 156 l 746 185 q 691 108 724 144 q 620 45 658 72 q 542 2 582 18 q 468 -14 503 -14 q 414 7 431 -14 q 397 74 397 28 q 401 124 397 97 q 416 190 406 150 q 445 287 426 229 q 494 432 464 344 z "},"ḥ":{"ha":797,"x_min":-10,"x_max":746,"o":"m 494 432 q 528 544 518 503 q 539 618 539 586 q 528 663 539 650 q 493 676 518 676 q 408 643 450 676 q 324 539 367 610 q 236 358 282 468 q 139 96 190 249 l 107 0 l -10 0 l 265 942 q 281 1003 275 976 q 286 1044 286 1029 q 260 1083 286 1072 q 163 1097 233 1094 l 172 1153 l 456 1153 l 297 617 l 301 614 q 404 715 346 679 q 526 750 463 750 q 628 711 593 750 q 663 599 663 672 q 649 492 663 553 q 606 351 635 431 q 563 233 578 276 q 540 167 547 190 q 531 136 533 144 q 529 122 529 128 q 556 90 529 90 q 624 123 583 90 q 707 214 665 156 l 746 185 q 691 108 724 144 q 620 45 658 72 q 542 2 582 18 q 468 -14 503 -14 q 414 7 431 -14 q 397 74 397 28 q 401 124 397 97 q 416 190 406 150 q 445 287 426 229 q 494 432 464 344 m 100 -233 q 125 -172 100 -197 q 186 -147 150 -147 q 247 -172 222 -147 q 272 -233 272 -197 q 247 -294 272 -269 q 186 -319 222 -319 q 125 -294 150 -319 q 100 -233 100 -269 z "},"ħ":{"ha":797,"x_min":-10,"x_max":746,"o":"m 494 432 q 528 544 518 503 q 539 618 539 586 q 528 663 539 650 q 493 676 518 676 q 408 643 450 676 q 324 539 367 610 q 236 358 282 468 q 139 96 190 249 l 107 0 l -10 0 l 246 875 l 124 875 l 142 944 l 265 944 q 281 1003 275 978 q 286 1044 286 1029 q 260 1083 286 1072 q 163 1097 233 1094 l 172 1153 l 456 1153 l 393 944 l 558 944 l 540 875 l 374 875 l 297 617 l 301 614 q 404 715 346 679 q 526 750 463 750 q 628 711 593 750 q 663 599 663 672 q 649 492 663 553 q 606 351 635 431 q 563 233 578 276 q 540 167 547 190 q 531 136 533 144 q 529 122 529 128 q 556 90 529 90 q 624 123 583 90 q 707 214 665 156 l 746 185 q 691 108 724 144 q 620 45 658 72 q 542 2 582 18 q 468 -14 503 -14 q 414 7 431 -14 q 397 74 397 28 q 401 124 397 97 q 416 190 406 150 q 445 287 426 229 q 494 432 464 344 z "},"į":{"ha":476,"x_min":-82,"x_max":475,"o":"m 271 -211 q 172 -296 228 -267 q 53 -325 115 -325 q -47 -294 -11 -325 q -82 -207 -82 -262 q -35 -92 -82 -146 q 94 1 11 -37 q 68 76 68 22 q 81 163 68 117 q 119 281 94 210 l 182 458 q 210 546 201 513 q 218 599 218 579 q 212 624 218 618 q 199 631 206 631 q 165 616 183 631 q 129 582 147 601 q 97 543 111 563 q 78 513 83 524 l 38 538 q 84 606 54 568 q 151 675 114 643 q 229 728 189 707 q 306 750 269 750 q 358 730 340 750 q 375 657 375 710 q 351 549 375 617 q 288 374 326 481 l 236 233 q 228 212 233 226 q 219 181 224 197 q 210 150 214 165 q 207 125 207 135 q 214 103 207 113 q 236 93 221 93 q 279 110 257 93 q 322 151 301 128 q 360 199 343 175 q 385 238 376 224 l 426 214 q 383 142 410 181 q 320 69 356 103 q 243 13 285 36 q 157 -14 201 -11 q 63 -94 99 -50 q 28 -175 28 -137 q 49 -222 28 -203 q 99 -242 69 -242 q 160 -223 125 -242 q 231 -168 194 -204 l 271 -211 m 386 978 q 326 1001 351 978 q 300 1063 300 1025 q 325 1126 300 1100 q 386 1153 350 1153 q 450 1126 425 1153 q 475 1064 475 1100 q 449 1003 475 1028 q 386 978 422 978 z "},"ị":{"ha":478,"x_min":38,"x_max":475,"o":"m 182 458 q 210 546 201 513 q 218 599 218 579 q 212 624 218 618 q 199 631 206 631 q 165 616 183 631 q 129 582 147 601 q 97 543 111 563 q 78 513 83 524 l 38 538 q 84 606 54 568 q 151 675 114 643 q 229 728 189 707 q 306 750 269 750 q 358 730 340 750 q 375 657 375 710 q 351 549 375 617 q 288 374 326 481 l 236 233 q 228 212 233 226 q 219 181 224 197 q 210 150 214 165 q 207 125 207 135 q 214 103 207 113 q 236 93 221 93 q 279 110 257 93 q 322 151 301 128 q 360 199 343 175 q 385 238 376 224 l 426 214 q 381 140 410 181 q 317 66 353 100 q 238 9 281 32 q 149 -14 194 -14 q 88 7 108 -14 q 68 76 68 28 q 81 163 68 117 q 119 281 94 210 l 182 458 m 386 978 q 326 1001 351 978 q 300 1063 300 1025 q 325 1126 300 1100 q 386 1153 350 1153 q 450 1126 425 1153 q 475 1064 475 1100 q 449 1003 475 1028 q 386 978 422 978 m 63 -233 q 88 -172 63 -197 q 149 -147 113 -147 q 210 -172 185 -147 q 235 -233 235 -197 q 210 -294 235 -269 q 149 -319 185 -319 q 88 -294 113 -319 q 63 -233 63 -269 z "},"ı":{"ha":478,"x_min":38,"x_max":426,"o":"m 182 458 q 210 546 201 513 q 218 599 218 579 q 212 624 218 618 q 199 631 206 631 q 165 616 183 631 q 129 582 147 601 q 97 543 111 563 q 78 513 83 524 l 38 538 q 84 606 54 568 q 151 675 114 643 q 229 728 189 707 q 306 750 269 750 q 358 730 340 750 q 375 657 375 710 q 351 549 375 617 q 288 374 328 482 l 236 233 q 228 212 233 226 q 219 181 224 197 q 210 150 214 165 q 207 125 207 135 q 214 103 207 113 q 236 93 221 93 q 279 110 257 93 q 322 151 301 128 q 360 199 343 175 q 385 238 376 224 l 426 214 q 381 140 410 181 q 317 66 353 100 q 238 9 281 32 q 149 -14 194 -14 q 88 7 108 -14 q 68 76 68 28 q 81 163 68 117 q 119 281 94 210 l 182 458 z "},"ȷ":{"ha":415,"x_min":-265,"x_max":356,"o":"m 169 460 q 191 549 183 514 q 199 603 199 583 q 178 631 199 631 q 144 616 163 631 q 109 582 126 601 q 78 543 92 563 q 58 513 64 524 l 18 538 q 65 606 35 568 q 132 675 94 643 q 210 728 169 707 q 286 750 250 750 q 356 672 356 750 q 337 551 356 626 q 289 371 318 476 l 174 -47 q 126 -163 157 -107 q 53 -263 94 -219 q -35 -334 13 -307 q -132 -361 -82 -361 q -228 -331 -190 -361 q -265 -256 -265 -300 q -247 -196 -265 -218 q -197 -174 -229 -174 q -154 -190 -168 -174 q -131 -226 -140 -206 q -112 -262 -122 -246 q -83 -278 -103 -278 q -24 -244 -50 -278 q 15 -157 1 -211 l 169 460 z "},"ì":{"ha":478,"x_min":38,"x_max":476,"o":"m 182 458 q 210 546 201 513 q 218 599 218 579 q 212 624 218 618 q 199 631 206 631 q 165 616 183 631 q 129 582 147 601 q 97 543 111 563 q 78 513 83 524 l 38 538 q 84 606 54 568 q 151 675 114 643 q 229 728 189 707 q 306 750 269 750 q 358 730 340 750 q 375 657 375 710 q 351 549 375 617 q 288 374 328 482 l 236 233 q 228 212 233 226 q 219 181 224 197 q 210 150 214 165 q 207 125 207 135 q 214 103 207 113 q 236 93 221 93 q 279 110 257 93 q 322 151 301 128 q 360 199 343 175 q 385 238 376 224 l 426 214 q 381 140 410 181 q 317 66 353 100 q 238 9 281 32 q 149 -14 194 -14 q 88 7 108 -14 q 68 76 68 28 q 81 163 68 117 q 119 281 94 210 l 182 458 m 411 904 l 246 994 q 206 1023 221 1008 q 192 1056 192 1038 q 213 1099 192 1083 q 260 1115 235 1115 q 340 1069 303 1115 l 476 904 l 411 904 z "},"í":{"ha":478,"x_min":38,"x_max":568,"o":"m 182 458 q 210 546 201 513 q 218 599 218 579 q 212 624 218 618 q 199 631 206 631 q 165 616 183 631 q 129 582 147 601 q 97 543 111 563 q 78 513 83 524 l 38 538 q 84 606 54 568 q 151 675 114 643 q 229 728 189 707 q 306 750 269 750 q 358 730 340 750 q 375 657 375 710 q 351 549 375 617 q 288 374 328 482 l 236 233 q 228 212 233 226 q 219 181 224 197 q 210 150 214 165 q 207 125 207 135 q 214 103 207 113 q 236 93 221 93 q 279 110 257 93 q 322 151 301 128 q 360 199 343 175 q 385 238 376 224 l 426 214 q 381 140 410 181 q 317 66 353 100 q 238 9 281 32 q 149 -14 194 -14 q 88 7 108 -14 q 68 76 68 28 q 81 163 68 117 q 119 281 94 210 l 182 458 m 242 904 l 422 1069 q 515 1115 472 1115 q 553 1103 539 1115 q 568 1067 568 1090 q 549 1027 568 1044 q 497 994 531 1010 l 307 904 l 242 904 z "},"î":{"ha":478,"x_min":38,"x_max":569,"o":"m 182 458 q 210 546 201 513 q 218 599 218 579 q 212 624 218 618 q 199 631 206 631 q 165 616 183 631 q 129 582 147 601 q 97 543 111 563 q 78 513 83 524 l 38 538 q 84 606 54 568 q 151 675 114 643 q 229 728 189 707 q 306 750 269 750 q 358 730 340 750 q 375 657 375 710 q 351 549 375 617 q 288 374 328 482 l 236 233 q 228 212 233 226 q 219 181 224 197 q 210 150 214 165 q 207 125 207 135 q 214 103 207 113 q 236 93 221 93 q 279 110 257 93 q 322 151 301 128 q 360 199 343 175 q 385 238 376 224 l 426 214 q 381 140 410 181 q 317 66 353 100 q 238 9 281 32 q 149 -14 194 -14 q 88 7 108 -14 q 68 76 68 28 q 81 163 68 117 q 119 281 94 210 l 182 458 m 453 1083 l 569 904 l 507 904 l 367 999 l 176 904 l 114 904 l 328 1083 l 453 1083 z "},"ï":{"ha":478,"x_min":38,"x_max":567,"o":"m 182 458 q 210 546 201 513 q 218 599 218 579 q 212 624 218 618 q 199 631 206 631 q 165 616 183 631 q 129 582 147 601 q 97 543 111 563 q 78 513 83 524 l 38 538 q 84 606 54 568 q 151 675 114 643 q 229 728 189 707 q 306 750 269 750 q 358 730 340 750 q 375 657 375 710 q 351 549 375 617 q 288 374 328 482 l 236 233 q 228 212 233 226 q 219 181 224 197 q 210 150 214 165 q 207 125 207 135 q 214 103 207 113 q 236 93 221 93 q 279 110 257 93 q 322 151 301 128 q 360 199 343 175 q 385 238 376 224 l 426 214 q 381 140 410 181 q 317 66 353 100 q 238 9 281 32 q 149 -14 194 -14 q 88 7 108 -14 q 68 76 68 28 q 81 163 68 117 q 119 281 94 210 l 182 458 m 171 985 q 208 1042 179 1019 q 272 1065 238 1065 q 318 1049 301 1065 q 335 1006 335 1032 q 326 966 335 985 q 301 934 317 947 q 267 913 286 921 q 229 904 249 904 q 185 920 201 904 q 168 963 168 936 q 168 973 168 968 q 171 985 168 978 m 403 985 q 440 1042 411 1019 q 504 1065 469 1065 q 550 1049 533 1065 q 567 1006 567 1032 q 558 966 567 985 q 533 934 549 947 q 499 913 518 921 q 461 904 481 904 q 417 920 433 904 q 400 963 400 936 q 400 973 400 968 q 403 985 400 978 z "},"ĩ":{"ha":478,"x_min":38,"x_max":603,"o":"m 182 458 q 210 546 201 513 q 218 599 218 579 q 212 624 218 618 q 199 631 206 631 q 165 616 183 631 q 129 582 147 601 q 97 543 111 563 q 78 513 83 524 l 38 538 q 84 606 54 568 q 151 675 114 643 q 229 728 189 707 q 306 750 269 750 q 358 730 340 750 q 375 657 375 710 q 351 549 375 617 q 288 374 328 482 l 236 233 q 228 212 233 226 q 219 181 224 197 q 210 150 214 165 q 207 125 207 135 q 214 103 207 113 q 236 93 221 93 q 279 110 257 93 q 322 151 301 128 q 360 199 343 175 q 385 238 376 224 l 426 214 q 381 140 410 181 q 317 66 353 100 q 238 9 281 32 q 149 -14 194 -14 q 88 7 108 -14 q 68 76 68 28 q 81 163 68 117 q 119 281 94 210 l 182 458 m 129 917 q 181 1031 140 988 q 275 1075 222 1075 q 325 1067 296 1075 q 394 1042 354 1060 q 456 1017 435 1024 q 496 1011 478 1011 q 533 1024 519 1011 q 557 1069 547 1038 l 603 1069 q 588 1010 600 1042 q 558 956 575 978 q 465 906 521 906 q 422 913 446 906 q 349 940 397 921 q 276 965 301 958 q 235 972 251 972 q 199 960 211 972 q 176 917 186 947 l 129 917 z "},"ī":{"ha":478,"x_min":38,"x_max":563,"o":"m 182 458 q 210 546 201 513 q 218 599 218 579 q 212 624 218 618 q 199 631 206 631 q 165 616 183 631 q 129 582 147 601 q 97 543 111 563 q 78 513 83 524 l 38 538 q 84 606 54 568 q 151 675 114 643 q 229 728 189 707 q 306 750 269 750 q 358 730 340 750 q 375 657 375 710 q 351 549 375 617 q 288 374 328 482 l 236 233 q 228 212 233 226 q 219 181 224 197 q 210 150 214 165 q 207 125 207 135 q 214 103 207 113 q 236 93 221 93 q 279 110 257 93 q 322 151 301 128 q 360 199 343 175 q 385 238 376 224 l 426 214 q 381 140 410 181 q 317 66 353 100 q 238 9 281 32 q 149 -14 194 -14 q 88 7 108 -14 q 68 76 68 28 q 81 163 68 117 q 119 281 94 210 l 182 458 m 169 975 l 188 1044 l 563 1044 l 544 975 l 169 975 z "},"ĭ":{"ha":478,"x_min":38,"x_max":582,"o":"m 182 458 q 210 546 201 513 q 218 599 218 579 q 212 624 218 618 q 199 631 206 631 q 165 616 183 631 q 129 582 147 601 q 97 543 111 563 q 78 513 83 524 l 38 538 q 84 606 54 568 q 151 675 114 643 q 229 728 189 707 q 306 750 269 750 q 358 730 340 750 q 375 657 375 710 q 351 549 375 617 q 288 374 328 482 l 236 233 q 228 212 233 226 q 219 181 224 197 q 210 150 214 165 q 207 125 207 135 q 214 103 207 113 q 236 93 221 93 q 279 110 257 93 q 322 151 301 128 q 360 199 343 175 q 385 238 376 224 l 426 214 q 381 140 410 181 q 317 66 353 100 q 238 9 281 32 q 149 -14 194 -14 q 88 7 108 -14 q 68 76 68 28 q 81 163 68 117 q 119 281 94 210 l 182 458 m 582 1078 q 544 1005 569 1038 q 488 948 519 972 q 418 910 456 924 q 342 897 381 897 q 233 935 272 897 q 193 1033 193 972 q 199 1078 193 1057 l 249 1078 q 283 1016 251 1039 q 367 993 315 993 q 464 1016 419 993 q 531 1078 508 1039 l 582 1078 z "},"ĵ":{"ha":415,"x_min":-265,"x_max":558,"o":"m 169 460 q 191 549 183 514 q 199 603 199 583 q 178 631 199 631 q 144 616 163 631 q 109 582 126 601 q 78 543 92 563 q 58 513 64 524 l 18 538 q 65 606 35 568 q 132 675 94 643 q 210 728 169 707 q 286 750 250 750 q 356 672 356 750 q 337 551 356 626 q 289 371 318 476 l 174 -47 q 126 -163 157 -107 q 53 -263 94 -219 q -35 -334 13 -307 q -132 -361 -82 -361 q -228 -331 -190 -361 q -265 -256 -265 -300 q -247 -196 -265 -218 q -197 -174 -229 -174 q -154 -190 -168 -174 q -131 -226 -140 -206 q -112 -262 -122 -246 q -83 -278 -103 -278 q -24 -244 -50 -278 q 15 -157 1 -211 l 169 460 m 442 1083 l 558 904 l 496 904 l 356 999 l 165 904 l 103 904 l 317 1083 l 442 1083 z "},"ķ":{"ha":713,"x_min":-1,"x_max":646,"o":"m 496 111 q 610 215 536 111 l 646 196 q 439 -14 546 -14 q 384 10 406 -14 q 336 94 363 33 l 243 317 l 213 303 l 125 0 l -1 0 l 267 996 q 276 1047 276 1033 q 250 1087 276 1076 q 147 1097 224 1097 l 160 1139 l 436 1153 l 292 618 l 297 617 q 501 751 378 751 q 604 720 567 751 q 642 636 642 689 q 577 506 642 571 q 397 388 513 440 l 361 371 l 432 188 q 496 111 460 111 m 225 372 q 336 421 285 393 q 424 479 388 449 q 482 541 461 510 q 503 600 503 572 q 446 657 503 657 q 385 634 417 657 q 322 572 353 611 q 266 481 292 533 q 225 372 240 429 m 150 -311 q 219 -259 197 -285 q 240 -203 240 -233 q 204 -214 226 -214 q 160 -196 176 -214 q 143 -149 143 -178 q 166 -96 143 -117 q 225 -75 189 -75 q 290 -103 267 -75 q 313 -185 313 -132 q 283 -269 313 -229 q 181 -347 253 -308 l 150 -311 z "},"ļ":{"ha":435,"x_min":-6,"x_max":435,"o":"m 254 960 q 268 1010 261 985 q 275 1049 275 1036 q 169 1097 275 1097 l 181 1139 l 435 1151 l 186 239 q 169 173 175 201 q 164 125 164 144 q 171 103 164 113 q 193 93 178 93 q 240 112 215 93 q 288 156 265 131 q 329 209 311 182 q 356 251 347 236 l 397 228 q 343 137 376 181 q 272 60 310 93 q 197 6 235 26 q 126 -14 158 -14 q 55 7 78 -14 q 32 76 32 28 q 40 151 32 104 q 69 281 49 199 l 254 960 m 1 -311 q 70 -259 49 -285 q 92 -203 92 -233 q 56 -214 78 -214 q 11 -196 28 -214 q -6 -149 -6 -178 q 17 -96 -6 -117 q 76 -75 40 -75 q 141 -103 118 -75 q 164 -185 164 -132 q 134 -269 164 -229 q 32 -347 104 -308 l 1 -311 z "},"ľ":{"ha":435,"x_min":32,"x_max":660,"o":"m 254 960 q 268 1010 261 985 q 275 1049 275 1036 q 169 1097 275 1097 l 181 1139 l 435 1151 l 186 239 q 169 173 175 201 q 164 125 164 144 q 171 103 164 113 q 193 93 178 93 q 240 112 215 93 q 288 156 265 131 q 329 209 311 182 q 356 251 347 236 l 397 228 q 343 137 376 181 q 272 60 310 93 q 197 6 235 26 q 126 -14 158 -14 q 55 7 78 -14 q 32 76 32 28 q 40 151 32 104 q 69 281 49 199 l 254 960 m 457 847 q 540 899 511 874 q 576 956 568 925 q 538 944 561 944 q 492 988 492 944 q 523 1056 492 1028 q 596 1083 554 1083 q 660 1018 660 1083 q 619 909 660 960 q 478 811 579 858 l 457 847 z "},"ŀ":{"ha":519,"x_min":32,"x_max":574,"o":"m 254 960 q 268 1010 261 985 q 275 1049 275 1036 q 169 1097 275 1097 l 181 1139 l 435 1151 l 186 239 q 169 173 175 201 q 164 125 164 144 q 171 103 164 113 q 193 93 178 93 q 240 112 215 93 q 288 156 265 131 q 329 209 311 182 q 356 251 347 236 l 397 228 q 343 137 376 181 q 272 60 310 93 q 197 6 235 26 q 126 -14 158 -14 q 55 7 78 -14 q 32 76 32 28 q 40 151 32 104 q 69 281 49 199 l 254 960 m 401 597 q 426 658 401 633 q 488 683 451 683 q 549 658 524 683 q 574 597 574 633 q 549 536 574 561 q 488 511 524 511 q 426 536 451 511 q 401 597 401 561 z "},"ł":{"ha":456,"x_min":39,"x_max":471,"o":"m 164 554 l 39 488 l 63 578 l 189 646 l 275 960 q 289 1010 282 985 q 296 1049 296 1036 q 190 1097 296 1097 l 201 1139 l 456 1151 l 339 725 l 471 796 l 447 706 l 314 635 l 207 239 q 190 173 196 201 q 185 125 185 144 q 192 103 185 113 q 214 93 199 93 q 261 112 236 93 q 309 156 286 131 q 350 209 332 182 q 376 251 368 236 l 418 228 q 364 137 397 181 q 293 60 331 93 q 217 6 256 26 q 147 -14 179 -14 q 76 7 99 -14 q 53 76 53 28 q 61 151 53 104 q 90 281 69 199 l 164 554 z "},"ṅ":{"ha":871,"x_min":24,"x_max":822,"o":"m 590 678 q 515 644 557 678 q 428 553 472 610 q 344 425 385 497 q 276 278 304 353 l 174 0 l 51 0 l 154 318 q 196 449 179 394 q 223 540 213 503 q 238 599 233 576 q 242 636 242 622 q 218 674 242 674 q 182 654 203 674 q 140 603 161 635 q 99 532 118 572 q 65 450 79 492 l 24 471 q 133 682 72 614 q 271 750 193 750 q 334 725 315 750 q 353 640 353 700 q 329 514 353 569 l 333 510 q 477 692 404 635 q 636 750 550 750 q 729 721 697 750 q 761 638 761 692 q 758 597 761 619 q 746 544 754 575 q 723 469 738 513 q 688 364 708 426 q 635 206 656 269 q 614 115 614 142 q 628 94 614 94 q 685 126 647 94 q 786 229 722 158 l 822 210 q 765 128 800 168 q 691 57 729 89 q 615 6 653 25 q 550 -14 578 -14 q 495 17 515 -14 q 475 97 475 47 q 478 137 475 117 q 493 194 482 157 q 526 295 504 232 q 585 463 547 358 q 606 524 597 499 q 619 567 614 549 q 626 600 624 586 q 628 626 628 614 q 590 678 628 678 m 489 1032 q 514 1093 489 1068 q 575 1118 539 1118 q 636 1093 611 1118 q 661 1032 661 1068 q 636 971 661 996 q 575 946 611 946 q 514 971 539 946 q 489 1032 489 996 z "},"ń":{"ha":871,"x_min":24,"x_max":822,"o":"m 590 678 q 515 644 557 678 q 428 553 472 610 q 344 425 385 497 q 276 278 304 353 l 174 0 l 51 0 l 154 318 q 196 449 179 394 q 223 540 213 503 q 238 599 233 576 q 242 636 242 622 q 218 674 242 674 q 182 654 203 674 q 140 603 161 635 q 99 532 118 572 q 65 450 79 492 l 24 471 q 133 682 72 614 q 271 750 193 750 q 334 725 315 750 q 353 640 353 700 q 329 514 353 569 l 333 510 q 477 692 404 635 q 636 750 550 750 q 729 721 697 750 q 761 638 761 692 q 758 597 761 619 q 746 544 754 575 q 723 469 738 513 q 688 364 708 426 q 635 206 656 269 q 614 115 614 142 q 628 94 614 94 q 685 126 647 94 q 786 229 722 158 l 822 210 q 765 128 800 168 q 691 57 729 89 q 615 6 653 25 q 550 -14 578 -14 q 495 17 515 -14 q 475 97 475 47 q 478 137 475 117 q 493 194 482 157 q 526 295 504 232 q 585 463 547 358 q 606 524 597 499 q 619 567 614 549 q 626 600 624 586 q 628 626 628 614 q 590 678 628 678 m 407 904 l 588 1069 q 681 1115 638 1115 q 719 1103 704 1115 q 733 1067 733 1090 q 715 1027 733 1044 q 663 994 696 1010 l 472 904 l 407 904 z "},"ñ":{"ha":871,"x_min":24,"x_max":822,"o":"m 590 678 q 515 644 557 678 q 428 553 472 610 q 344 425 385 497 q 276 278 304 353 l 174 0 l 51 0 l 154 318 q 196 449 179 394 q 223 540 213 503 q 238 599 233 576 q 242 636 242 622 q 218 674 242 674 q 182 654 203 674 q 140 603 161 635 q 99 532 118 572 q 65 450 79 492 l 24 471 q 133 682 72 614 q 271 750 193 750 q 334 725 315 750 q 353 640 353 700 q 329 514 353 569 l 333 510 q 477 692 404 635 q 636 750 550 750 q 729 721 697 750 q 761 638 761 692 q 758 597 761 619 q 746 544 754 575 q 723 469 738 513 q 688 364 708 426 q 635 206 656 269 q 614 115 614 142 q 628 94 614 94 q 685 126 647 94 q 786 229 722 158 l 822 210 q 765 128 800 168 q 691 57 729 89 q 615 6 653 25 q 550 -14 578 -14 q 495 17 515 -14 q 475 97 475 47 q 478 137 475 117 q 493 194 482 157 q 526 295 504 232 q 585 463 547 358 q 606 524 597 499 q 619 567 614 549 q 626 600 624 586 q 628 626 628 614 q 590 678 628 678 m 294 917 q 347 1031 306 988 q 440 1075 388 1075 q 490 1067 461 1075 q 560 1042 519 1060 q 622 1017 600 1024 q 661 1011 643 1011 q 699 1024 685 1011 q 722 1069 713 1038 l 768 1069 q 753 1010 765 1042 q 724 956 740 978 q 631 906 686 906 q 587 913 611 906 q 514 940 563 921 q 442 965 467 958 q 400 972 417 972 q 364 960 376 972 q 342 917 351 947 l 294 917 z "},"ň":{"ha":871,"x_min":24,"x_max":822,"o":"m 590 678 q 515 644 557 678 q 428 553 472 610 q 344 425 385 497 q 276 278 304 353 l 174 0 l 51 0 l 154 318 q 196 449 179 394 q 223 540 213 503 q 238 599 233 576 q 242 636 242 622 q 218 674 242 674 q 182 654 203 674 q 140 603 161 635 q 99 532 118 572 q 65 450 79 492 l 24 471 q 133 682 72 614 q 271 750 193 750 q 334 725 315 750 q 353 640 353 700 q 329 514 353 569 l 333 510 q 477 692 404 635 q 636 750 550 750 q 729 721 697 750 q 761 638 761 692 q 758 597 761 619 q 746 544 754 575 q 723 469 738 513 q 688 364 708 426 q 635 206 656 269 q 614 115 614 142 q 628 94 614 94 q 685 126 647 94 q 786 229 722 158 l 822 210 q 765 128 800 168 q 691 57 729 89 q 615 6 653 25 q 550 -14 578 -14 q 495 17 515 -14 q 475 97 475 47 q 478 137 475 117 q 493 194 482 157 q 526 295 504 232 q 585 463 547 358 q 606 524 597 499 q 619 567 614 549 q 626 600 624 586 q 628 626 628 614 q 590 678 628 678 m 444 904 l 328 1083 l 390 1083 l 531 989 l 721 1083 l 783 1083 l 569 904 l 444 904 z "},"ņ":{"ha":871,"x_min":24,"x_max":822,"o":"m 590 678 q 515 644 557 678 q 428 553 472 610 q 344 425 385 497 q 276 278 304 353 l 174 0 l 51 0 l 154 318 q 196 449 179 394 q 223 540 213 503 q 238 599 233 576 q 242 636 242 622 q 218 674 242 674 q 182 654 203 674 q 140 603 161 635 q 99 532 118 572 q 65 450 79 492 l 24 471 q 133 682 72 614 q 271 750 193 750 q 334 725 315 750 q 353 640 353 700 q 329 514 353 569 l 333 510 q 477 692 404 635 q 636 750 550 750 q 729 721 697 750 q 761 638 761 692 q 758 597 761 619 q 746 544 754 575 q 723 469 738 513 q 688 364 708 426 q 635 206 656 269 q 614 115 614 142 q 628 94 614 94 q 685 126 647 94 q 786 229 722 158 l 822 210 q 765 128 800 168 q 691 57 729 89 q 615 6 653 25 q 550 -14 578 -14 q 495 17 515 -14 q 475 97 475 47 q 478 137 475 117 q 493 194 482 157 q 526 295 504 232 q 585 463 547 358 q 606 524 597 499 q 619 567 614 549 q 626 600 624 586 q 628 626 628 614 q 590 678 628 678 m 250 -311 q 319 -259 297 -285 q 340 -203 340 -233 q 304 -214 326 -214 q 260 -196 276 -214 q 243 -149 243 -178 q 266 -96 243 -117 q 325 -75 289 -75 q 390 -103 367 -75 q 413 -185 413 -132 q 383 -269 413 -229 q 281 -347 353 -308 l 250 -311 z "},"ŉ":{"ha":1096,"x_min":178,"x_max":1018,"o":"m 786 678 q 710 644 753 678 q 624 553 668 610 q 540 425 581 497 q 472 278 500 353 l 369 0 l 247 0 l 350 318 q 392 449 375 394 q 419 540 408 503 q 433 599 429 576 q 438 636 438 622 q 414 674 438 674 q 378 654 399 674 q 335 603 357 635 q 294 532 314 572 q 261 450 275 492 l 219 471 q 328 682 268 614 q 467 750 389 750 q 530 725 511 750 q 549 640 549 700 q 525 514 549 569 l 529 510 q 673 692 600 635 q 832 750 746 750 q 925 721 893 750 q 957 638 957 692 q 953 597 957 619 q 942 544 950 575 q 919 469 933 513 q 883 364 904 426 q 831 206 851 269 q 810 115 810 142 q 824 94 810 94 q 881 126 843 94 q 982 229 918 158 l 1018 210 q 960 128 996 168 q 887 57 925 89 q 811 6 849 25 q 746 -14 774 -14 q 691 17 711 -14 q 671 97 671 47 q 674 137 671 117 q 689 194 678 157 q 722 295 700 232 q 781 463 743 358 q 801 524 793 499 q 815 567 810 549 q 822 600 819 586 q 824 626 824 614 q 786 678 824 678 m 178 849 q 185 978 183 921 q 195 1074 188 1035 q 221 1133 203 1113 q 279 1153 239 1153 q 315 1140 303 1153 q 328 1104 328 1126 q 325 1083 328 1097 q 310 1044 322 1071 q 281 983 297 1017 q 248 914 265 950 q 218 849 231 878 l 178 849 z "},"ö":{"ha":726,"x_min":33,"x_max":722,"o":"m 260 -14 q 172 5 213 -14 q 100 60 131 24 q 51 148 69 96 q 33 265 33 200 q 67 443 33 356 q 157 599 101 531 q 284 708 213 667 q 432 750 356 750 q 524 731 482 750 q 597 677 567 713 q 644 592 626 642 q 661 483 661 543 q 626 307 661 396 q 535 147 592 218 q 407 31 479 76 q 260 -14 335 -14 m 268 56 q 362 104 315 56 q 445 227 408 153 q 505 389 482 301 q 528 556 528 476 q 502 657 528 629 q 432 685 476 685 q 370 663 401 685 q 311 604 339 642 q 259 518 283 567 q 217 415 235 469 q 189 305 199 361 q 179 197 179 249 q 204 88 179 119 q 268 56 229 56 m 326 985 q 364 1042 335 1019 q 428 1065 393 1065 q 474 1049 457 1065 q 490 1006 490 1032 q 481 966 490 985 q 457 934 472 947 q 423 913 442 921 q 385 904 404 904 q 340 920 357 904 q 324 963 324 936 q 324 973 324 968 q 326 985 324 978 m 558 985 q 596 1042 567 1019 q 660 1065 625 1065 q 706 1049 689 1065 q 722 1006 722 1032 q 713 966 722 985 q 689 934 704 947 q 655 913 674 921 q 617 904 636 904 q 572 920 589 904 q 556 963 556 936 q 556 973 556 968 q 558 985 556 978 z "},"ó":{"ha":726,"x_min":33,"x_max":689,"o":"m 260 -14 q 172 5 213 -14 q 100 60 131 24 q 51 148 69 96 q 33 265 33 200 q 67 443 33 356 q 157 599 101 531 q 284 708 213 667 q 432 750 356 750 q 524 731 482 750 q 597 677 567 713 q 644 592 626 642 q 661 483 661 543 q 626 307 661 396 q 535 147 592 218 q 407 31 479 76 q 260 -14 335 -14 m 268 56 q 362 104 315 56 q 445 227 408 153 q 505 389 482 301 q 528 556 528 476 q 502 657 528 629 q 432 685 476 685 q 370 663 401 685 q 311 604 339 642 q 259 518 283 567 q 217 415 235 469 q 189 305 199 361 q 179 197 179 249 q 204 88 179 119 q 268 56 229 56 m 363 904 l 543 1069 q 636 1115 593 1115 q 674 1103 660 1115 q 689 1067 689 1090 q 670 1027 689 1044 q 618 994 651 1010 l 428 904 l 363 904 z "},"ò":{"ha":726,"x_min":33,"x_max":661,"o":"m 260 -14 q 172 5 213 -14 q 100 60 131 24 q 51 148 69 96 q 33 265 33 200 q 67 443 33 356 q 157 599 101 531 q 284 708 213 667 q 432 750 356 750 q 524 731 482 750 q 597 677 567 713 q 644 592 626 642 q 661 483 661 543 q 626 307 661 396 q 535 147 592 218 q 407 31 479 76 q 260 -14 335 -14 m 268 56 q 362 104 315 56 q 445 227 408 153 q 505 389 482 301 q 528 556 528 476 q 502 657 528 629 q 432 685 476 685 q 370 663 401 685 q 311 604 339 642 q 259 518 283 567 q 217 415 235 469 q 189 305 199 361 q 179 197 179 249 q 204 88 179 119 q 268 56 229 56 m 532 904 l 367 994 q 327 1023 342 1008 q 313 1056 313 1038 q 334 1099 313 1083 q 381 1115 356 1115 q 461 1069 424 1115 l 597 904 l 532 904 z "},"ő":{"ha":726,"x_min":33,"x_max":832,"o":"m 260 -14 q 172 5 213 -14 q 100 60 131 24 q 51 148 69 96 q 33 265 33 200 q 67 443 33 356 q 157 599 101 531 q 284 708 213 667 q 432 750 356 750 q 524 731 482 750 q 597 677 567 713 q 644 592 626 642 q 661 483 661 543 q 626 307 661 396 q 535 147 592 218 q 407 31 479 76 q 260 -14 335 -14 m 268 56 q 362 104 315 56 q 445 227 408 153 q 505 389 482 301 q 528 556 528 476 q 502 657 528 629 q 432 685 476 685 q 370 663 401 685 q 311 604 339 642 q 259 518 283 567 q 217 415 235 469 q 189 305 199 361 q 179 197 179 249 q 204 88 179 119 q 268 56 229 56 m 231 904 l 411 1069 q 504 1115 461 1115 q 542 1103 528 1115 q 557 1067 557 1090 q 538 1027 557 1044 q 486 994 519 1010 l 296 904 l 231 904 m 506 904 l 686 1069 q 779 1115 736 1115 q 817 1103 803 1115 q 832 1067 832 1090 q 813 1027 832 1044 q 761 994 794 1010 l 571 904 l 506 904 z "},"õ":{"ha":726,"x_min":33,"x_max":724,"o":"m 260 -14 q 172 5 213 -14 q 100 60 131 24 q 51 148 69 96 q 33 265 33 200 q 67 443 33 356 q 157 599 101 531 q 284 708 213 667 q 432 750 356 750 q 524 731 482 750 q 597 677 567 713 q 644 592 626 642 q 661 483 661 543 q 626 307 661 396 q 535 147 592 218 q 407 31 479 76 q 260 -14 335 -14 m 268 56 q 362 104 315 56 q 445 227 408 153 q 505 389 482 301 q 528 556 528 476 q 502 657 528 629 q 432 685 476 685 q 370 663 401 685 q 311 604 339 642 q 259 518 283 567 q 217 415 235 469 q 189 305 199 361 q 179 197 179 249 q 204 88 179 119 q 268 56 229 56 m 250 917 q 302 1031 261 988 q 396 1075 343 1075 q 446 1067 417 1075 q 515 1042 475 1060 q 577 1017 556 1024 q 617 1011 599 1011 q 654 1024 640 1011 q 678 1069 668 1038 l 724 1069 q 708 1010 721 1042 q 679 956 696 978 q 586 906 642 906 q 542 913 567 906 q 469 940 518 921 q 397 965 422 958 q 356 972 372 972 q 319 960 332 972 q 297 917 307 947 l 250 917 z "},"ŏ":{"ha":726,"x_min":33,"x_max":725,"o":"m 260 -14 q 172 5 213 -14 q 100 60 131 24 q 51 148 69 96 q 33 265 33 200 q 67 443 33 356 q 157 599 101 531 q 284 708 213 667 q 432 750 356 750 q 524 731 482 750 q 597 677 567 713 q 644 592 626 642 q 661 483 661 543 q 626 307 661 396 q 535 147 592 218 q 407 31 479 76 q 260 -14 335 -14 m 268 56 q 362 104 315 56 q 445 227 408 153 q 505 389 482 301 q 528 556 528 476 q 502 657 528 629 q 432 685 476 685 q 370 663 401 685 q 311 604 339 642 q 259 518 283 567 q 217 415 235 469 q 189 305 199 361 q 179 197 179 249 q 204 88 179 119 q 268 56 229 56 m 725 1078 q 688 1005 713 1038 q 631 948 663 972 q 561 910 599 924 q 485 897 524 897 q 376 935 415 897 q 336 1033 336 972 q 342 1078 336 1057 l 392 1078 q 426 1016 394 1039 q 510 993 458 993 q 607 1016 563 993 q 674 1078 651 1039 l 725 1078 z "},"ō":{"ha":726,"x_min":33,"x_max":728,"o":"m 260 -14 q 172 5 213 -14 q 100 60 131 24 q 51 148 69 96 q 33 265 33 200 q 67 443 33 356 q 157 599 101 531 q 284 708 213 667 q 432 750 356 750 q 524 731 482 750 q 597 677 567 713 q 644 592 626 642 q 661 483 661 543 q 626 307 661 396 q 535 147 592 218 q 407 31 479 76 q 260 -14 335 -14 m 268 56 q 362 104 315 56 q 445 227 408 153 q 505 389 482 301 q 528 556 528 476 q 502 657 528 629 q 432 685 476 685 q 370 663 401 685 q 311 604 339 642 q 259 518 283 567 q 217 415 235 469 q 189 305 199 361 q 179 197 179 249 q 204 88 179 119 q 268 56 229 56 m 335 975 l 353 1044 l 728 1044 l 710 975 l 335 975 z "},"ô":{"ha":726,"x_min":33,"x_max":729,"o":"m 260 -14 q 172 5 213 -14 q 100 60 131 24 q 51 148 69 96 q 33 265 33 200 q 67 443 33 356 q 157 599 101 531 q 284 708 213 667 q 432 750 356 750 q 524 731 482 750 q 597 677 567 713 q 644 592 626 642 q 661 483 661 543 q 626 307 661 396 q 535 147 592 218 q 407 31 479 76 q 260 -14 335 -14 m 268 56 q 362 104 315 56 q 445 227 408 153 q 505 389 482 301 q 528 556 528 476 q 502 657 528 629 q 432 685 476 685 q 370 663 401 685 q 311 604 339 642 q 259 518 283 567 q 217 415 235 469 q 189 305 199 361 q 179 197 179 249 q 204 88 179 119 q 268 56 229 56 m 613 1083 l 729 904 l 667 904 l 526 999 l 336 904 l 274 904 l 488 1083 l 613 1083 z "},"ǫ":{"ha":726,"x_min":33,"x_max":661,"o":"m 394 -211 q 295 -296 351 -267 q 176 -325 239 -325 q 77 -294 113 -325 q 42 -207 42 -262 q 83 -97 42 -149 q 203 -6 125 -44 q 81 83 129 14 q 33 265 33 153 q 67 443 33 356 q 157 599 101 531 q 284 708 213 667 q 432 750 356 750 q 524 731 482 750 q 597 677 567 713 q 644 592 626 642 q 661 483 661 543 q 629 315 661 400 q 544 159 597 229 q 424 42 492 89 q 283 -12 356 -6 q 188 -92 224 -49 q 151 -175 151 -136 q 172 -222 151 -203 q 222 -242 193 -242 q 283 -223 249 -242 q 354 -168 318 -204 l 394 -211 m 268 56 q 362 104 315 56 q 445 227 408 153 q 505 389 482 301 q 528 556 528 476 q 502 657 528 629 q 432 685 476 685 q 370 663 401 685 q 311 604 339 642 q 259 518 283 567 q 217 415 235 469 q 189 305 199 361 q 179 197 179 249 q 204 88 179 119 q 268 56 229 56 z "},"ọ":{"ha":726,"x_min":33,"x_max":661,"o":"m 260 -14 q 172 5 213 -14 q 100 60 131 24 q 51 148 69 96 q 33 265 33 200 q 67 443 33 356 q 157 599 101 531 q 284 708 213 667 q 432 750 356 750 q 524 731 482 750 q 597 677 567 713 q 644 592 626 642 q 661 483 661 543 q 626 307 661 396 q 535 147 592 218 q 407 31 479 76 q 260 -14 335 -14 m 268 56 q 362 104 315 56 q 445 227 408 153 q 505 389 482 301 q 528 556 528 476 q 502 657 528 629 q 432 685 476 685 q 370 663 401 685 q 311 604 339 642 q 259 518 283 567 q 217 415 235 469 q 189 305 199 361 q 179 197 179 249 q 204 88 179 119 q 268 56 229 56 m 121 -233 q 146 -172 121 -197 q 207 -147 171 -147 q 268 -172 243 -147 q 293 -233 293 -197 q 268 -294 293 -269 q 207 -319 243 -319 q 146 -294 171 -319 q 121 -233 121 -269 z "},"ø":{"ha":726,"x_min":-60,"x_max":753,"o":"m 260 -14 q 128 32 185 -14 l 35 -85 l -60 -85 l 78 89 q 45 168 57 124 q 33 265 33 213 q 67 443 33 356 q 157 599 101 531 q 284 708 213 667 q 432 750 356 750 q 565 706 508 750 l 657 822 l 753 822 l 617 650 q 649 574 638 617 q 661 483 661 532 q 626 307 661 396 q 535 147 592 218 q 407 31 479 76 q 260 -14 335 -14 m 268 56 q 359 101 314 56 q 441 218 404 147 q 501 374 478 289 q 528 538 525 460 l 192 113 q 268 56 214 56 m 432 685 q 342 640 386 685 q 263 527 299 596 q 205 376 228 458 q 179 217 182 293 l 513 639 q 480 674 500 664 q 432 685 460 685 z "},"ǿ":{"ha":725,"x_min":-60,"x_max":753,"o":"m 260 -14 q 128 32 185 -14 l 35 -85 l -60 -85 l 78 89 q 45 168 57 124 q 33 265 33 213 q 67 443 33 356 q 157 599 101 531 q 284 708 213 667 q 432 750 356 750 q 565 706 508 750 l 657 822 l 753 822 l 617 650 q 649 574 638 617 q 661 483 661 532 q 626 307 661 396 q 535 147 592 218 q 407 31 479 76 q 260 -14 335 -14 m 268 56 q 359 101 314 56 q 441 218 404 147 q 501 374 478 289 q 528 538 525 460 l 192 113 q 268 56 214 56 m 432 685 q 342 640 386 685 q 263 527 299 596 q 205 376 228 458 q 179 217 182 293 l 513 639 q 480 674 500 664 q 432 685 460 685 m 378 904 l 558 1069 q 651 1115 608 1115 q 690 1103 675 1115 q 704 1067 704 1090 q 685 1027 704 1044 q 633 994 667 1010 l 443 904 l 378 904 z "},"ŕ":{"ha":643,"x_min":29,"x_max":690,"o":"m 29 543 q 76 615 44 578 q 144 681 107 651 q 218 731 181 711 q 283 750 256 750 q 332 725 317 750 q 347 644 347 700 q 345 601 347 622 q 338 553 343 581 l 342 549 q 389 628 358 589 q 455 697 419 667 q 527 745 490 726 q 596 764 564 764 q 663 738 636 764 q 690 675 690 713 q 667 615 690 639 q 608 592 644 592 q 573 600 586 592 q 550 617 560 608 q 532 635 540 626 q 511 643 524 643 q 450 608 485 643 q 378 511 415 572 q 303 368 340 450 q 236 192 267 286 l 174 0 l 44 0 l 135 288 q 178 426 161 371 q 206 517 196 481 q 219 575 215 554 q 222 611 222 596 q 201 642 222 642 q 167 631 188 642 q 128 603 147 619 q 91 565 108 586 q 65 525 74 544 l 29 543 m 332 904 l 513 1069 q 606 1115 563 1115 q 644 1103 629 1115 q 658 1067 658 1090 q 640 1027 658 1044 q 588 994 621 1010 l 397 904 l 332 904 z "},"ř":{"ha":643,"x_min":29,"x_max":708,"o":"m 29 543 q 76 615 44 578 q 144 681 107 651 q 218 731 181 711 q 283 750 256 750 q 332 725 317 750 q 347 644 347 700 q 345 601 347 622 q 338 553 343 581 l 342 549 q 389 628 358 589 q 455 697 419 667 q 527 745 490 726 q 596 764 564 764 q 663 738 636 764 q 690 675 690 713 q 667 615 690 639 q 608 592 644 592 q 573 600 586 592 q 550 617 560 608 q 532 635 540 626 q 511 643 524 643 q 450 608 485 643 q 378 511 415 572 q 303 368 340 450 q 236 192 267 286 l 174 0 l 44 0 l 135 288 q 178 426 161 371 q 206 517 196 481 q 219 575 215 554 q 222 611 222 596 q 201 642 222 642 q 167 631 188 642 q 128 603 147 619 q 91 565 108 586 q 65 525 74 544 l 29 543 m 369 904 l 253 1083 l 315 1083 l 456 989 l 646 1083 l 708 1083 l 494 904 l 369 904 z "},"ŗ":{"ha":643,"x_min":-3,"x_max":690,"o":"m 29 543 q 76 615 44 578 q 144 681 107 651 q 218 731 181 711 q 283 750 256 750 q 332 725 317 750 q 347 644 347 700 q 345 601 347 622 q 338 553 343 581 l 342 549 q 389 628 358 589 q 455 697 419 667 q 527 745 490 726 q 596 764 564 764 q 663 738 636 764 q 690 675 690 713 q 667 615 690 639 q 608 592 644 592 q 573 600 586 592 q 550 617 560 608 q 532 635 540 626 q 511 643 524 643 q 450 608 485 643 q 378 511 415 572 q 303 368 340 450 q 236 192 267 286 l 174 0 l 44 0 l 135 288 q 178 426 161 371 q 206 517 196 481 q 219 575 215 554 q 222 611 222 596 q 201 642 222 642 q 167 631 188 642 q 128 603 147 619 q 91 565 108 586 q 65 525 74 544 l 29 543 m 4 -311 q 73 -259 51 -285 q 94 -203 94 -233 q 58 -214 81 -214 q 14 -196 31 -214 q -3 -149 -3 -178 q 20 -96 -3 -117 q 79 -75 43 -75 q 144 -103 121 -75 q 167 -185 167 -132 q 137 -269 167 -229 q 35 -347 107 -308 l 4 -311 z "},"ṛ":{"ha":643,"x_min":-35,"x_max":690,"o":"m 29 543 q 76 615 44 578 q 144 681 107 651 q 218 731 181 711 q 283 750 256 750 q 332 725 317 750 q 347 644 347 700 q 345 601 347 622 q 338 553 343 581 l 342 549 q 389 628 358 589 q 455 697 419 667 q 527 745 490 726 q 596 764 564 764 q 663 738 636 764 q 690 675 690 713 q 667 615 690 639 q 608 592 644 592 q 573 600 586 592 q 550 617 560 608 q 532 635 540 626 q 511 643 524 643 q 450 608 485 643 q 378 511 415 572 q 303 368 340 450 q 236 192 267 286 l 174 0 l 44 0 l 135 288 q 178 426 161 371 q 206 517 196 481 q 219 575 215 554 q 222 611 222 596 q 201 642 222 642 q 167 631 188 642 q 128 603 147 619 q 91 565 108 586 q 65 525 74 544 l 29 543 m -35 -233 q -10 -172 -35 -197 q 51 -147 15 -147 q 113 -172 88 -147 q 138 -233 138 -197 q 113 -294 138 -269 q 51 -319 88 -319 q -10 -294 15 -319 q -35 -233 -35 -269 z "},"ś":{"ha":529,"x_min":-18,"x_max":593,"o":"m 107 538 q 124 622 107 583 q 172 690 142 661 q 245 734 203 718 q 338 750 288 750 q 449 717 404 750 q 493 631 493 683 q 477 585 493 601 q 433 568 461 568 q 388 587 401 568 q 364 628 374 606 q 343 671 354 651 q 306 690 332 690 q 254 664 275 690 q 233 599 233 638 q 260 513 233 553 q 321 431 288 474 q 381 336 354 388 q 408 215 408 285 q 388 126 408 168 q 334 53 368 85 q 256 4 300 22 q 164 -14 211 -14 q 31 22 81 -14 q -18 117 -18 58 q 1 180 -18 157 q 51 203 19 203 q 119 121 111 203 q 134 62 124 76 q 176 47 144 47 q 256 77 226 47 q 285 160 285 107 q 257 258 285 215 q 196 342 229 301 q 135 429 163 383 q 107 538 107 475 m 267 904 l 447 1069 q 540 1115 497 1115 q 578 1103 564 1115 q 593 1067 593 1090 q 574 1027 593 1044 q 522 994 556 1010 l 332 904 l 267 904 z "},"ŝ":{"ha":529,"x_min":-18,"x_max":594,"o":"m 107 538 q 124 622 107 583 q 172 690 142 661 q 245 734 203 718 q 338 750 288 750 q 449 717 404 750 q 493 631 493 683 q 477 585 493 601 q 433 568 461 568 q 388 587 401 568 q 364 628 374 606 q 343 671 354 651 q 306 690 332 690 q 254 664 275 690 q 233 599 233 638 q 260 513 233 553 q 321 431 288 474 q 381 336 354 388 q 408 215 408 285 q 388 126 408 168 q 334 53 368 85 q 256 4 300 22 q 164 -14 211 -14 q 31 22 81 -14 q -18 117 -18 58 q 1 180 -18 157 q 51 203 19 203 q 119 121 111 203 q 134 62 124 76 q 176 47 144 47 q 256 77 226 47 q 285 160 285 107 q 257 258 285 215 q 196 342 229 301 q 135 429 163 383 q 107 538 107 475 m 478 1083 l 594 904 l 532 904 l 392 999 l 201 904 l 139 904 l 353 1083 l 478 1083 z "},"š":{"ha":529,"x_min":-18,"x_max":643,"o":"m 107 538 q 124 622 107 583 q 172 690 142 661 q 245 734 203 718 q 338 750 288 750 q 449 717 404 750 q 493 631 493 683 q 477 585 493 601 q 433 568 461 568 q 388 587 401 568 q 364 628 374 606 q 343 671 354 651 q 306 690 332 690 q 254 664 275 690 q 233 599 233 638 q 260 513 233 553 q 321 431 288 474 q 381 336 354 388 q 408 215 408 285 q 388 126 408 168 q 334 53 368 85 q 256 4 300 22 q 164 -14 211 -14 q 31 22 81 -14 q -18 117 -18 58 q 1 180 -18 157 q 51 203 19 203 q 119 121 111 203 q 134 62 124 76 q 176 47 144 47 q 256 77 226 47 q 285 160 285 107 q 257 258 285 215 q 196 342 229 301 q 135 429 163 383 q 107 538 107 475 m 304 904 l 188 1083 l 250 1083 l 390 989 l 581 1083 l 643 1083 l 429 904 l 304 904 z "},"ṣ":{"ha":529,"x_min":-18,"x_max":493,"o":"m 107 538 q 124 622 107 583 q 172 690 142 661 q 245 734 203 718 q 338 750 288 750 q 449 717 404 750 q 493 631 493 683 q 477 585 493 601 q 433 568 461 568 q 388 587 401 568 q 364 628 374 606 q 343 671 354 651 q 306 690 332 690 q 254 664 275 690 q 233 599 233 638 q 260 513 233 553 q 321 431 288 474 q 381 336 354 388 q 408 215 408 285 q 388 126 408 168 q 334 53 368 85 q 256 4 300 22 q 164 -14 211 -14 q 31 22 81 -14 q -18 117 -18 58 q 1 180 -18 157 q 51 203 19 203 q 119 121 111 203 q 134 62 124 76 q 176 47 144 47 q 256 77 226 47 q 285 160 285 107 q 257 258 285 215 q 196 342 229 301 q 135 429 163 383 q 107 538 107 475 m 64 -233 q 89 -172 64 -197 q 150 -147 114 -147 q 211 -172 186 -147 q 236 -233 236 -197 q 211 -294 236 -269 q 150 -319 186 -319 q 89 -294 114 -319 q 64 -233 64 -269 z "},"ș":{"ha":529,"x_min":-18,"x_max":493,"o":"m 107 538 q 124 622 107 583 q 172 690 142 661 q 245 734 203 718 q 338 750 288 750 q 449 717 404 750 q 493 631 493 683 q 477 585 493 601 q 433 568 461 568 q 388 587 401 568 q 364 628 374 606 q 343 671 354 651 q 306 690 332 690 q 254 664 275 690 q 233 599 233 638 q 260 513 233 553 q 321 431 288 474 q 381 336 354 388 q 408 215 408 285 q 388 126 408 168 q 334 53 368 85 q 256 4 300 22 q 164 -14 211 -14 q 31 22 81 -14 q -18 117 -18 58 q 1 180 -18 157 q 51 203 19 203 q 119 121 111 203 q 134 62 124 76 q 176 47 144 47 q 256 77 226 47 q 285 160 285 107 q 257 258 285 215 q 196 342 229 301 q 135 429 163 383 q 107 538 107 475 m 40 -311 q 109 -259 88 -285 q 131 -203 131 -233 q 94 -214 117 -214 q 50 -196 67 -214 q 33 -149 33 -178 q 56 -96 33 -117 q 115 -75 79 -75 q 180 -103 157 -75 q 203 -185 203 -132 q 173 -269 203 -229 q 71 -347 143 -308 l 40 -311 z "},"ş":{"ha":529,"x_min":-103,"x_max":493,"o":"m 107 538 q 124 622 107 583 q 172 690 142 661 q 245 734 203 718 q 338 750 288 750 q 449 717 404 750 q 493 631 493 683 q 477 585 493 601 q 433 568 461 568 q 388 587 401 568 q 364 628 374 606 q 343 671 354 651 q 306 690 332 690 q 254 664 275 690 q 233 599 233 638 q 260 513 233 553 q 321 431 288 474 q 381 336 354 388 q 408 215 408 285 q 388 126 408 168 q 334 53 368 85 q 256 4 300 22 q 164 -14 211 -14 l 157 -14 l 101 -100 q 209 -122 172 -100 q 246 -187 246 -144 q 228 -255 246 -224 q 180 -310 210 -286 q 112 -347 150 -333 q 35 -361 74 -361 q -65 -336 -28 -361 q -103 -274 -103 -311 q -86 -225 -103 -244 q -46 -206 -69 -206 q -23 -221 -29 -206 q -12 -253 -17 -236 q 3 -286 -7 -271 q 38 -301 13 -301 q 99 -276 71 -301 q 128 -214 128 -251 q 35 -157 128 -157 q 7 -158 21 -157 q -14 -160 -7 -158 l -15 -156 l 88 -4 q 10 41 39 10 q -18 117 -18 72 q 1 180 -18 157 q 51 203 19 203 q 119 121 111 203 q 134 62 124 76 q 176 47 144 47 q 256 77 226 47 q 285 160 285 107 q 257 258 285 215 q 196 342 229 301 q 135 429 163 383 q 107 538 107 475 z "},"ṭ":{"ha":507,"x_min":3,"x_max":497,"o":"m 326 621 l 211 239 q 186 125 188 164 q 192 103 186 113 q 214 93 199 93 q 267 112 239 93 q 320 156 294 131 q 366 209 346 182 q 396 251 386 236 l 436 228 q 376 137 413 181 q 300 60 340 93 q 219 6 260 26 q 144 -14 178 -14 q 74 7 96 -14 q 53 76 53 28 q 63 151 53 104 q 96 281 72 199 l 199 621 l 79 621 l 97 685 l 218 685 l 290 924 l 418 924 l 346 685 l 497 685 l 478 621 l 326 621 m 3 -233 q 28 -172 3 -197 q 89 -147 53 -147 q 150 -172 125 -147 q 175 -233 175 -197 q 150 -294 175 -269 q 89 -319 125 -319 q 28 -294 53 -319 q 3 -233 3 -269 z "},"ț":{"ha":507,"x_min":18,"x_max":497,"o":"m 326 621 l 211 239 q 186 125 188 164 q 192 103 186 113 q 214 93 199 93 q 267 112 239 93 q 320 156 294 131 q 366 209 346 182 q 396 251 386 236 l 436 228 q 376 137 413 181 q 300 60 340 93 q 219 6 260 26 q 144 -14 178 -14 q 74 7 96 -14 q 53 76 53 28 q 63 151 53 104 q 96 281 72 199 l 199 621 l 79 621 l 97 685 l 218 685 l 290 924 l 418 924 l 346 685 l 497 685 l 478 621 l 326 621 m 25 -311 q 94 -259 72 -285 q 115 -203 115 -233 q 79 -214 101 -214 q 35 -196 51 -214 q 18 -149 18 -178 q 41 -96 18 -117 q 100 -75 64 -75 q 165 -103 142 -75 q 188 -185 188 -132 q 158 -269 188 -229 q 56 -347 128 -308 l 25 -311 z "},"ţ":{"ha":507,"x_min":-82,"x_max":497,"o":"m 326 621 l 211 239 q 186 125 188 164 q 192 103 186 113 q 214 93 199 93 q 267 112 239 93 q 320 156 294 131 q 366 209 346 182 q 396 251 386 236 l 436 228 q 385 147 415 186 q 319 76 354 108 q 249 22 285 44 q 181 -8 214 0 l 122 -100 q 230 -122 193 -100 q 267 -187 267 -144 q 249 -255 267 -224 q 201 -310 231 -286 q 133 -347 171 -333 q 56 -361 94 -361 q -44 -336 -7 -361 q -82 -274 -82 -311 q -65 -225 -82 -244 q -25 -206 -49 -206 q -2 -221 -8 -206 q 9 -253 4 -236 q 24 -286 14 -271 q 58 -301 33 -301 q 120 -276 92 -301 q 149 -214 149 -251 q 56 -157 149 -157 q 28 -158 42 -157 q 7 -160 14 -158 l 6 -156 l 106 -10 q 53 76 53 4 q 63 151 53 104 q 96 281 72 199 l 199 621 l 79 621 l 97 685 l 218 685 l 290 924 l 418 924 l 346 685 l 497 685 l 478 621 l 326 621 z "},"ť":{"ha":507,"x_min":53,"x_max":697,"o":"m 326 621 l 211 239 q 186 125 188 164 q 192 103 186 113 q 214 93 199 93 q 267 112 239 93 q 320 156 294 131 q 366 209 346 182 q 396 251 386 236 l 436 228 q 376 137 413 181 q 300 60 340 93 q 219 6 260 26 q 144 -14 178 -14 q 74 7 96 -14 q 53 76 53 28 q 63 151 53 104 q 96 281 72 199 l 199 621 l 79 621 l 97 685 l 218 685 l 290 924 l 418 924 l 346 685 l 497 685 l 478 621 l 326 621 m 494 847 q 577 899 549 874 q 614 956 606 925 q 575 944 599 944 q 529 988 529 944 q 560 1056 529 1028 q 633 1083 592 1083 q 697 1018 697 1083 q 657 909 697 960 q 515 811 617 858 l 494 847 z "},"ŧ":{"ha":508,"x_min":47,"x_max":499,"o":"m 328 621 l 300 529 l 456 529 l 435 456 l 278 456 l 213 239 q 188 125 189 164 q 194 103 188 113 q 215 93 200 93 q 268 112 240 93 q 322 156 296 131 q 367 209 347 182 q 397 251 388 236 l 438 228 q 378 137 414 181 q 301 60 342 93 q 220 6 261 26 q 146 -14 179 -14 q 76 7 97 -14 q 54 76 54 28 q 64 151 54 104 q 97 281 74 199 l 150 456 l 47 456 l 68 529 l 172 529 l 200 621 l 81 621 l 99 685 l 219 685 l 292 924 l 419 924 l 347 685 l 499 685 l 479 621 l 328 621 z "},"ü":{"ha":824,"x_min":29,"x_max":772,"o":"m 235 86 q 293 117 257 86 q 369 201 329 149 q 448 319 410 253 q 513 458 486 386 l 615 736 l 744 736 l 642 418 q 604 299 619 349 q 579 216 589 250 q 565 160 569 182 q 561 126 561 139 q 586 90 561 90 q 619 103 600 90 q 659 140 639 117 q 698 191 679 163 q 731 251 717 219 l 772 231 q 725 141 754 185 q 662 63 696 97 q 590 7 628 28 q 517 -14 553 -14 q 458 17 474 -14 q 443 104 443 47 q 445 155 443 128 q 453 208 447 182 l 449 213 q 376 103 411 146 q 307 33 340 60 q 242 -3 274 7 q 179 -14 210 -14 q 88 22 114 -14 q 63 111 63 58 q 85 240 63 169 q 132 372 107 310 q 174 478 157 435 q 202 550 192 521 q 217 597 213 579 q 222 626 222 615 q 220 637 222 632 q 210 642 218 642 q 158 610 192 642 q 65 507 124 578 l 29 526 q 82 607 50 567 q 150 679 114 647 q 225 731 186 711 q 297 750 264 750 q 367 669 367 750 q 340 544 367 621 q 269 360 313 467 q 224 238 242 292 q 206 139 206 183 q 214 98 206 110 q 235 86 222 86 m 321 985 q 358 1042 329 1019 q 422 1065 388 1065 q 468 1049 451 1065 q 485 1006 485 1032 q 476 966 485 985 q 451 934 467 947 q 417 913 436 921 q 379 904 399 904 q 335 920 351 904 q 318 963 318 936 q 318 973 318 968 q 321 985 318 978 m 553 985 q 590 1042 561 1019 q 654 1065 619 1065 q 700 1049 683 1065 q 717 1006 717 1032 q 708 966 717 985 q 683 934 699 947 q 649 913 668 921 q 611 904 631 904 q 567 920 583 904 q 550 963 550 936 q 550 973 550 968 q 553 985 550 978 z "},"ú":{"ha":824,"x_min":29,"x_max":772,"o":"m 235 86 q 293 117 257 86 q 369 201 329 149 q 448 319 410 253 q 513 458 486 386 l 615 736 l 744 736 l 642 418 q 604 299 619 349 q 579 216 589 250 q 565 160 569 182 q 561 126 561 139 q 586 90 561 90 q 619 103 600 90 q 659 140 639 117 q 698 191 679 163 q 731 251 717 219 l 772 231 q 725 141 754 185 q 662 63 696 97 q 590 7 628 28 q 517 -14 553 -14 q 458 17 474 -14 q 443 104 443 47 q 445 155 443 128 q 453 208 447 182 l 449 213 q 376 103 411 146 q 307 33 340 60 q 242 -3 274 7 q 179 -14 210 -14 q 88 22 114 -14 q 63 111 63 58 q 85 240 63 169 q 132 372 107 310 q 174 478 157 435 q 202 550 192 521 q 217 597 213 579 q 222 626 222 615 q 220 637 222 632 q 210 642 218 642 q 158 610 192 642 q 65 507 124 578 l 29 526 q 82 607 50 567 q 150 679 114 647 q 225 731 186 711 q 297 750 264 750 q 367 669 367 750 q 340 544 367 621 q 269 360 313 467 q 224 238 242 292 q 206 139 206 183 q 214 98 206 110 q 235 86 222 86 m 392 904 l 572 1069 q 665 1115 622 1115 q 703 1103 689 1115 q 718 1067 718 1090 q 699 1027 718 1044 q 647 994 681 1010 l 457 904 l 392 904 z "},"ù":{"ha":824,"x_min":29,"x_max":772,"o":"m 235 86 q 293 117 257 86 q 369 201 329 149 q 448 319 410 253 q 513 458 486 386 l 615 736 l 744 736 l 642 418 q 604 299 619 349 q 579 216 589 250 q 565 160 569 182 q 561 126 561 139 q 586 90 561 90 q 619 103 600 90 q 659 140 639 117 q 698 191 679 163 q 731 251 717 219 l 772 231 q 725 141 754 185 q 662 63 696 97 q 590 7 628 28 q 517 -14 553 -14 q 458 17 474 -14 q 443 104 443 47 q 445 155 443 128 q 453 208 447 182 l 449 213 q 376 103 411 146 q 307 33 340 60 q 242 -3 274 7 q 179 -14 210 -14 q 88 22 114 -14 q 63 111 63 58 q 85 240 63 169 q 132 372 107 310 q 174 478 157 435 q 202 550 192 521 q 217 597 213 579 q 222 626 222 615 q 220 637 222 632 q 210 642 218 642 q 158 610 192 642 q 65 507 124 578 l 29 526 q 82 607 50 567 q 150 679 114 647 q 225 731 186 711 q 297 750 264 750 q 367 669 367 750 q 340 544 367 621 q 269 360 313 467 q 224 238 242 292 q 206 139 206 183 q 214 98 206 110 q 235 86 222 86 m 561 904 l 396 994 q 356 1023 371 1008 q 342 1056 342 1038 q 363 1099 342 1083 q 410 1115 385 1115 q 490 1069 453 1115 l 626 904 l 561 904 z "},"ű":{"ha":824,"x_min":29,"x_max":861,"o":"m 235 86 q 293 117 257 86 q 369 201 329 149 q 448 319 410 253 q 513 458 486 386 l 615 736 l 744 736 l 642 418 q 604 299 619 349 q 579 216 589 250 q 565 160 569 182 q 561 126 561 139 q 586 90 561 90 q 619 103 600 90 q 659 140 639 117 q 698 191 679 163 q 731 251 717 219 l 772 231 q 725 141 754 185 q 662 63 696 97 q 590 7 628 28 q 517 -14 553 -14 q 458 17 474 -14 q 443 104 443 47 q 445 155 443 128 q 453 208 447 182 l 449 213 q 376 103 411 146 q 307 33 340 60 q 242 -3 274 7 q 179 -14 210 -14 q 88 22 114 -14 q 63 111 63 58 q 85 240 63 169 q 132 372 107 310 q 174 478 157 435 q 202 550 192 521 q 217 597 213 579 q 222 626 222 615 q 220 637 222 632 q 210 642 218 642 q 158 610 192 642 q 65 507 124 578 l 29 526 q 82 607 50 567 q 150 679 114 647 q 225 731 186 711 q 297 750 264 750 q 367 669 367 750 q 340 544 367 621 q 269 360 313 467 q 224 238 242 292 q 206 139 206 183 q 214 98 206 110 q 235 86 222 86 m 260 904 l 440 1069 q 533 1115 490 1115 q 572 1103 557 1115 q 586 1067 586 1090 q 567 1027 586 1044 q 515 994 549 1010 l 325 904 l 260 904 m 535 904 l 715 1069 q 808 1115 765 1115 q 847 1103 832 1115 q 861 1067 861 1090 q 842 1027 861 1044 q 790 994 824 1010 l 600 904 l 535 904 z "},"ũ":{"ha":824,"x_min":29,"x_max":772,"o":"m 235 86 q 293 117 257 86 q 369 201 329 149 q 448 319 410 253 q 513 458 486 386 l 615 736 l 744 736 l 642 418 q 604 299 619 349 q 579 216 589 250 q 565 160 569 182 q 561 126 561 139 q 586 90 561 90 q 619 103 600 90 q 659 140 639 117 q 698 191 679 163 q 731 251 717 219 l 772 231 q 725 141 754 185 q 662 63 696 97 q 590 7 628 28 q 517 -14 553 -14 q 458 17 474 -14 q 443 104 443 47 q 445 155 443 128 q 453 208 447 182 l 449 213 q 376 103 411 146 q 307 33 340 60 q 242 -3 274 7 q 179 -14 210 -14 q 88 22 114 -14 q 63 111 63 58 q 85 240 63 169 q 132 372 107 310 q 174 478 157 435 q 202 550 192 521 q 217 597 213 579 q 222 626 222 615 q 220 637 222 632 q 210 642 218 642 q 158 610 192 642 q 65 507 124 578 l 29 526 q 82 607 50 567 q 150 679 114 647 q 225 731 186 711 q 297 750 264 750 q 367 669 367 750 q 340 544 367 621 q 269 360 313 467 q 224 238 242 292 q 206 139 206 183 q 214 98 206 110 q 235 86 222 86 m 279 917 q 331 1031 290 988 q 425 1075 372 1075 q 475 1067 446 1075 q 544 1042 504 1060 q 606 1017 585 1024 q 646 1011 628 1011 q 683 1024 669 1011 q 707 1069 697 1038 l 753 1069 q 738 1010 750 1042 q 708 956 725 978 q 615 906 671 906 q 572 913 596 906 q 499 940 547 921 q 426 965 451 958 q 385 972 401 972 q 349 960 361 972 q 326 917 336 947 l 279 917 z "},"ŭ":{"ha":824,"x_min":29,"x_max":772,"o":"m 235 86 q 293 117 257 86 q 369 201 329 149 q 448 319 410 253 q 513 458 486 386 l 615 736 l 744 736 l 642 418 q 604 299 619 349 q 579 216 589 250 q 565 160 569 182 q 561 126 561 139 q 586 90 561 90 q 619 103 600 90 q 659 140 639 117 q 698 191 679 163 q 731 251 717 219 l 772 231 q 725 141 754 185 q 662 63 696 97 q 590 7 628 28 q 517 -14 553 -14 q 458 17 474 -14 q 443 104 443 47 q 445 155 443 128 q 453 208 447 182 l 449 213 q 376 103 411 146 q 307 33 340 60 q 242 -3 274 7 q 179 -14 210 -14 q 88 22 114 -14 q 63 111 63 58 q 85 240 63 169 q 132 372 107 310 q 174 478 157 435 q 202 550 192 521 q 217 597 213 579 q 222 626 222 615 q 220 637 222 632 q 210 642 218 642 q 158 610 192 642 q 65 507 124 578 l 29 526 q 82 607 50 567 q 150 679 114 647 q 225 731 186 711 q 297 750 264 750 q 367 669 367 750 q 340 544 367 621 q 269 360 313 467 q 224 238 242 292 q 206 139 206 183 q 214 98 206 110 q 235 86 222 86 m 732 1078 q 694 1005 719 1038 q 638 948 669 972 q 568 910 606 924 q 492 897 531 897 q 383 935 422 897 q 343 1033 343 972 q 349 1078 343 1057 l 399 1078 q 433 1016 401 1039 q 517 993 465 993 q 614 1016 569 993 q 681 1078 658 1039 l 732 1078 z "},"ů":{"ha":824,"x_min":29,"x_max":772,"o":"m 235 86 q 293 117 257 86 q 369 201 329 149 q 448 319 410 253 q 513 458 486 386 l 615 736 l 744 736 l 642 418 q 604 299 619 349 q 579 216 589 250 q 565 160 569 182 q 561 126 561 139 q 586 90 561 90 q 619 103 600 90 q 659 140 639 117 q 698 191 679 163 q 731 251 717 219 l 772 231 q 725 141 754 185 q 662 63 696 97 q 590 7 628 28 q 517 -14 553 -14 q 458 17 474 -14 q 443 104 443 47 q 445 155 443 128 q 453 208 447 182 l 449 213 q 376 103 411 146 q 307 33 340 60 q 242 -3 274 7 q 179 -14 210 -14 q 88 22 114 -14 q 63 111 63 58 q 85 240 63 169 q 132 372 107 310 q 174 478 157 435 q 202 550 192 521 q 217 597 213 579 q 222 626 222 615 q 220 637 222 632 q 210 642 218 642 q 158 610 192 642 q 65 507 124 578 l 29 526 q 82 607 50 567 q 150 679 114 647 q 225 731 186 711 q 297 750 264 750 q 367 669 367 750 q 340 544 367 621 q 269 360 313 467 q 224 238 242 292 q 206 139 206 183 q 214 98 206 110 q 235 86 222 86 m 392 997 q 404 1054 392 1026 q 438 1104 417 1082 q 488 1140 460 1126 q 549 1153 517 1153 q 618 1129 593 1153 q 643 1067 643 1106 q 630 1006 643 1035 q 594 957 617 978 q 543 924 572 936 q 483 911 514 911 q 416 935 440 911 q 392 997 392 958 m 535 1094 q 477 1072 504 1094 q 450 1014 450 1049 q 464 980 450 993 q 501 967 478 967 q 558 991 532 967 q 583 1050 583 1015 q 570 1082 583 1069 q 535 1094 557 1094 z "},"ū":{"ha":824,"x_min":29,"x_max":772,"o":"m 235 86 q 293 117 257 86 q 369 201 329 149 q 448 319 410 253 q 513 458 486 386 l 615 736 l 744 736 l 642 418 q 604 299 619 349 q 579 216 589 250 q 565 160 569 182 q 561 126 561 139 q 586 90 561 90 q 619 103 600 90 q 659 140 639 117 q 698 191 679 163 q 731 251 717 219 l 772 231 q 725 141 754 185 q 662 63 696 97 q 590 7 628 28 q 517 -14 553 -14 q 458 17 474 -14 q 443 104 443 47 q 445 155 443 128 q 453 208 447 182 l 449 213 q 376 103 411 146 q 307 33 340 60 q 242 -3 274 7 q 179 -14 210 -14 q 88 22 114 -14 q 63 111 63 58 q 85 240 63 169 q 132 372 107 310 q 174 478 157 435 q 202 550 192 521 q 217 597 213 579 q 222 626 222 615 q 220 637 222 632 q 210 642 218 642 q 158 610 192 642 q 65 507 124 578 l 29 526 q 82 607 50 567 q 150 679 114 647 q 225 731 186 711 q 297 750 264 750 q 367 669 367 750 q 340 544 367 621 q 269 360 313 467 q 224 238 242 292 q 206 139 206 183 q 214 98 206 110 q 235 86 222 86 m 319 975 l 338 1044 l 713 1044 l 694 975 l 319 975 z "},"û":{"ha":824,"x_min":29,"x_max":772,"o":"m 235 86 q 293 117 257 86 q 369 201 329 149 q 448 319 410 253 q 513 458 486 386 l 615 736 l 744 736 l 642 418 q 604 299 619 349 q 579 216 589 250 q 565 160 569 182 q 561 126 561 139 q 586 90 561 90 q 619 103 600 90 q 659 140 639 117 q 698 191 679 163 q 731 251 717 219 l 772 231 q 725 141 754 185 q 662 63 696 97 q 590 7 628 28 q 517 -14 553 -14 q 458 17 474 -14 q 443 104 443 47 q 445 155 443 128 q 453 208 447 182 l 449 213 q 376 103 411 146 q 307 33 340 60 q 242 -3 274 7 q 179 -14 210 -14 q 88 22 114 -14 q 63 111 63 58 q 85 240 63 169 q 132 372 107 310 q 174 478 157 435 q 202 550 192 521 q 217 597 213 579 q 222 626 222 615 q 220 637 222 632 q 210 642 218 642 q 158 610 192 642 q 65 507 124 578 l 29 526 q 82 607 50 567 q 150 679 114 647 q 225 731 186 711 q 297 750 264 750 q 367 669 367 750 q 340 544 367 621 q 269 360 313 467 q 224 238 242 292 q 206 139 206 183 q 214 98 206 110 q 235 86 222 86 m 603 1083 l 719 904 l 657 904 l 517 999 l 326 904 l 264 904 l 478 1083 l 603 1083 z "},"ų":{"ha":824,"x_min":29,"x_max":772,"o":"m 619 -211 q 520 -296 576 -267 q 401 -325 464 -325 q 302 -294 338 -325 q 267 -207 267 -262 q 318 -85 267 -142 q 463 10 369 -29 q 443 104 443 38 q 445 155 443 128 q 453 208 447 182 l 449 213 q 376 103 411 146 q 307 33 340 60 q 242 -3 274 7 q 179 -14 210 -14 q 88 22 114 -14 q 63 111 63 58 q 85 240 63 169 q 132 372 107 310 q 174 478 157 435 q 202 550 192 521 q 217 597 213 579 q 222 626 222 615 q 220 637 222 632 q 210 642 218 642 q 158 610 192 642 q 65 507 124 578 l 29 526 q 82 607 50 567 q 150 679 114 647 q 225 731 186 711 q 297 750 264 750 q 367 669 367 750 q 340 544 367 621 q 269 360 313 467 q 224 238 242 292 q 206 139 206 183 q 214 98 206 110 q 235 86 222 86 q 293 117 257 86 q 369 201 329 149 q 448 319 410 253 q 513 458 486 386 l 615 736 l 744 736 l 642 418 q 604 299 619 349 q 579 216 589 250 q 565 160 569 182 q 561 126 561 139 q 586 90 561 90 q 619 103 600 90 q 659 140 639 117 q 698 191 679 163 q 731 251 717 219 l 772 231 q 725 141 754 185 q 662 63 696 97 q 590 7 628 28 q 517 -14 553 -14 l 507 -14 q 412 -94 447 -50 q 376 -175 376 -137 q 397 -222 376 -203 q 447 -242 418 -242 q 508 -223 474 -242 q 579 -168 543 -204 l 619 -211 z "},"ụ":{"ha":824,"x_min":29,"x_max":772,"o":"m 235 86 q 293 117 257 86 q 369 201 329 149 q 448 319 410 253 q 513 458 486 386 l 615 736 l 744 736 l 642 418 q 604 299 619 349 q 579 216 589 250 q 565 160 569 182 q 561 126 561 139 q 586 90 561 90 q 619 103 600 90 q 659 140 639 117 q 698 191 679 163 q 731 251 717 219 l 772 231 q 725 141 754 185 q 662 63 696 97 q 590 7 628 28 q 517 -14 553 -14 q 458 17 474 -14 q 443 104 443 47 q 445 155 443 128 q 453 208 447 182 l 449 213 q 376 103 411 146 q 307 33 340 60 q 242 -3 274 7 q 179 -14 210 -14 q 88 22 114 -14 q 63 111 63 58 q 85 240 63 169 q 132 372 107 310 q 174 478 157 435 q 202 550 192 521 q 217 597 213 579 q 222 626 222 615 q 220 637 222 632 q 210 642 218 642 q 158 610 192 642 q 65 507 124 578 l 29 526 q 82 607 50 567 q 150 679 114 647 q 225 731 186 711 q 297 750 264 750 q 367 669 367 750 q 340 544 367 621 q 269 360 313 467 q 224 238 242 292 q 206 139 206 183 q 214 98 206 110 q 235 86 222 86 m 139 -233 q 164 -172 139 -197 q 225 -147 189 -147 q 286 -172 261 -147 q 311 -233 311 -197 q 286 -294 311 -269 q 225 -319 261 -319 q 164 -294 189 -319 q 139 -233 139 -269 z "},"ẅ":{"ha":1181,"x_min":31,"x_max":1133,"o":"m 565 135 q 435 24 503 63 q 299 -14 367 -14 q 179 35 222 -14 q 136 174 136 85 q 315 589 136 347 l 313 593 q 250 604 275 593 q 208 629 225 615 q 177 654 190 643 q 149 665 164 665 q 126 642 126 665 q 134 619 126 629 q 151 600 142 610 q 167 578 160 590 q 175 550 175 567 q 156 509 175 525 q 106 493 136 493 q 50 515 69 493 q 31 578 31 538 q 44 642 31 611 q 82 698 58 674 q 137 736 106 722 q 201 750 168 750 q 250 741 231 750 q 286 720 269 732 q 319 699 303 708 q 356 690 335 690 q 376 694 367 690 q 397 711 385 699 q 428 738 413 726 q 463 750 443 750 q 492 722 492 750 q 490 713 492 718 q 483 700 489 708 q 465 678 476 692 q 435 643 454 665 q 363 543 394 596 q 311 437 332 490 q 279 331 290 383 q 268 233 268 279 q 290 127 268 165 q 353 89 313 89 q 440 126 390 89 q 547 229 490 163 q 542 289 544 258 q 540 344 540 319 q 558 492 540 419 q 603 623 575 565 q 667 715 631 681 q 740 750 703 750 q 795 724 771 750 q 819 635 819 697 q 779 461 819 560 q 663 254 739 363 q 709 146 675 188 q 783 104 743 104 q 863 140 822 104 q 936 233 903 176 q 991 358 969 289 q 1013 492 1013 426 q 1008 547 1013 524 q 997 591 1003 571 q 985 630 990 611 q 981 671 981 649 q 1053 750 981 750 q 1115 718 1096 750 q 1133 611 1133 686 q 1097 388 1133 500 q 1003 187 1061 276 q 874 42 946 97 q 729 -14 801 -14 q 629 24 671 -14 q 565 135 588 61 m 643 343 q 702 463 679 403 q 725 583 725 522 q 704 636 725 636 q 678 618 690 636 q 656 569 665 600 q 642 498 647 539 q 636 411 636 457 q 638 375 636 392 q 643 343 639 358 m 589 985 q 626 1042 597 1019 q 690 1065 656 1065 q 736 1049 719 1065 q 753 1006 753 1032 q 744 966 753 985 q 719 934 735 947 q 685 913 704 921 q 647 904 667 904 q 603 920 619 904 q 586 963 586 936 q 586 973 586 968 q 589 985 586 978 m 821 985 q 858 1042 829 1019 q 922 1065 888 1065 q 968 1049 951 1065 q 985 1006 985 1032 q 976 966 985 985 q 951 934 967 947 q 917 913 936 921 q 879 904 899 904 q 835 920 851 904 q 818 963 818 936 q 818 973 818 968 q 821 985 818 978 z "},"ẃ":{"ha":1181,"x_min":31,"x_max":1133,"o":"m 565 135 q 435 24 503 63 q 299 -14 367 -14 q 179 35 222 -14 q 136 174 136 85 q 315 589 136 347 l 313 593 q 250 604 275 593 q 208 629 225 615 q 177 654 190 643 q 149 665 164 665 q 126 642 126 665 q 134 619 126 629 q 151 600 142 610 q 167 578 160 590 q 175 550 175 567 q 156 509 175 525 q 106 493 136 493 q 50 515 69 493 q 31 578 31 538 q 44 642 31 611 q 82 698 58 674 q 137 736 106 722 q 201 750 168 750 q 250 741 231 750 q 286 720 269 732 q 319 699 303 708 q 356 690 335 690 q 376 694 367 690 q 397 711 385 699 q 428 738 413 726 q 463 750 443 750 q 492 722 492 750 q 490 713 492 718 q 483 700 489 708 q 465 678 476 692 q 435 643 454 665 q 363 543 394 596 q 311 437 332 490 q 279 331 290 383 q 268 233 268 279 q 290 127 268 165 q 353 89 313 89 q 440 126 390 89 q 547 229 490 163 q 542 289 544 258 q 540 344 540 319 q 558 492 540 419 q 603 623 575 565 q 667 715 631 681 q 740 750 703 750 q 795 724 771 750 q 819 635 819 697 q 779 461 819 560 q 663 254 739 363 q 709 146 675 188 q 783 104 743 104 q 863 140 822 104 q 936 233 903 176 q 991 358 969 289 q 1013 492 1013 426 q 1008 547 1013 524 q 997 591 1003 571 q 985 630 990 611 q 981 671 981 649 q 1053 750 981 750 q 1115 718 1096 750 q 1133 611 1133 686 q 1097 388 1133 500 q 1003 187 1061 276 q 874 42 946 97 q 729 -14 801 -14 q 629 24 671 -14 q 565 135 588 61 m 643 343 q 702 463 679 403 q 725 583 725 522 q 704 636 725 636 q 678 618 690 636 q 656 569 665 600 q 642 498 647 539 q 636 411 636 457 q 638 375 636 392 q 643 343 639 358 m 660 904 l 840 1069 q 933 1115 890 1115 q 972 1103 957 1115 q 986 1067 986 1090 q 967 1027 986 1044 q 915 994 949 1010 l 725 904 l 660 904 z "},"ẁ":{"ha":1181,"x_min":31,"x_max":1133,"o":"m 565 135 q 435 24 503 63 q 299 -14 367 -14 q 179 35 222 -14 q 136 174 136 85 q 315 589 136 347 l 313 593 q 250 604 275 593 q 208 629 225 615 q 177 654 190 643 q 149 665 164 665 q 126 642 126 665 q 134 619 126 629 q 151 600 142 610 q 167 578 160 590 q 175 550 175 567 q 156 509 175 525 q 106 493 136 493 q 50 515 69 493 q 31 578 31 538 q 44 642 31 611 q 82 698 58 674 q 137 736 106 722 q 201 750 168 750 q 250 741 231 750 q 286 720 269 732 q 319 699 303 708 q 356 690 335 690 q 376 694 367 690 q 397 711 385 699 q 428 738 413 726 q 463 750 443 750 q 492 722 492 750 q 490 713 492 718 q 483 700 489 708 q 465 678 476 692 q 435 643 454 665 q 363 543 394 596 q 311 437 332 490 q 279 331 290 383 q 268 233 268 279 q 290 127 268 165 q 353 89 313 89 q 440 126 390 89 q 547 229 490 163 q 542 289 544 258 q 540 344 540 319 q 558 492 540 419 q 603 623 575 565 q 667 715 631 681 q 740 750 703 750 q 795 724 771 750 q 819 635 819 697 q 779 461 819 560 q 663 254 739 363 q 709 146 675 188 q 783 104 743 104 q 863 140 822 104 q 936 233 903 176 q 991 358 969 289 q 1013 492 1013 426 q 1008 547 1013 524 q 997 591 1003 571 q 985 630 990 611 q 981 671 981 649 q 1053 750 981 750 q 1115 718 1096 750 q 1133 611 1133 686 q 1097 388 1133 500 q 1003 187 1061 276 q 874 42 946 97 q 729 -14 801 -14 q 629 24 671 -14 q 565 135 588 61 m 643 343 q 702 463 679 403 q 725 583 725 522 q 704 636 725 636 q 678 618 690 636 q 656 569 665 600 q 642 498 647 539 q 636 411 636 457 q 638 375 636 392 q 643 343 639 358 m 829 904 l 664 994 q 624 1023 639 1008 q 610 1056 610 1038 q 631 1099 610 1083 q 678 1115 653 1115 q 758 1069 721 1115 l 894 904 l 829 904 z "},"ŵ":{"ha":1181,"x_min":31,"x_max":1133,"o":"m 565 135 q 435 24 503 63 q 299 -14 367 -14 q 179 35 222 -14 q 136 174 136 85 q 315 589 136 347 l 313 593 q 250 604 275 593 q 208 629 225 615 q 177 654 190 643 q 149 665 164 665 q 126 642 126 665 q 134 619 126 629 q 151 600 142 610 q 167 578 160 590 q 175 550 175 567 q 156 509 175 525 q 106 493 136 493 q 50 515 69 493 q 31 578 31 538 q 44 642 31 611 q 82 698 58 674 q 137 736 106 722 q 201 750 168 750 q 250 741 231 750 q 286 720 269 732 q 319 699 303 708 q 356 690 335 690 q 376 694 367 690 q 397 711 385 699 q 428 738 413 726 q 463 750 443 750 q 492 722 492 750 q 490 713 492 718 q 483 700 489 708 q 465 678 476 692 q 435 643 454 665 q 363 543 394 596 q 311 437 332 490 q 279 331 290 383 q 268 233 268 279 q 290 127 268 165 q 353 89 313 89 q 440 126 390 89 q 547 229 490 163 q 542 289 544 258 q 540 344 540 319 q 558 492 540 419 q 603 623 575 565 q 667 715 631 681 q 740 750 703 750 q 795 724 771 750 q 819 635 819 697 q 779 461 819 560 q 663 254 739 363 q 709 146 675 188 q 783 104 743 104 q 863 140 822 104 q 936 233 903 176 q 991 358 969 289 q 1013 492 1013 426 q 1008 547 1013 524 q 997 591 1003 571 q 985 630 990 611 q 981 671 981 649 q 1053 750 981 750 q 1115 718 1096 750 q 1133 611 1133 686 q 1097 388 1133 500 q 1003 187 1061 276 q 874 42 946 97 q 729 -14 801 -14 q 629 24 671 -14 q 565 135 588 61 m 643 343 q 702 463 679 403 q 725 583 725 522 q 704 636 725 636 q 678 618 690 636 q 656 569 665 600 q 642 498 647 539 q 636 411 636 457 q 638 375 636 392 q 643 343 639 358 m 871 1083 l 988 904 l 925 904 l 785 999 l 594 904 l 532 904 l 746 1083 l 871 1083 z "},"ÿ":{"ha":715,"x_min":-154,"x_max":696,"o":"m 224 406 q 178 563 201 519 q 131 607 156 607 q 83 567 104 607 q 39 442 61 528 l -12 456 q 24 574 1 519 q 74 667 47 628 q 132 728 101 707 q 193 750 163 750 q 238 731 219 750 q 276 658 257 711 q 313 541 293 614 q 353 374 333 468 l 400 150 l 406 150 q 459 226 432 183 q 508 315 486 268 q 544 409 531 361 q 558 499 558 457 q 557 534 558 513 q 553 578 556 556 q 550 620 551 600 q 549 653 549 640 q 574 726 549 703 q 626 750 599 750 q 679 719 663 750 q 696 649 696 689 q 665 503 696 592 q 585 312 635 414 q 469 103 535 210 q 335 -92 404 -3 q 140 -295 229 -229 q -28 -361 50 -361 q -120 -329 -86 -361 q -154 -251 -154 -297 q -135 -195 -154 -217 q -83 -174 -115 -174 q -42 -190 -56 -174 q -21 -226 -29 -206 q -3 -262 -12 -246 q 25 -278 6 -278 q 92 -249 51 -278 q 172 -176 132 -219 q 248 -81 213 -132 q 299 15 283 -29 l 224 406 m 247 985 q 285 1042 256 1019 q 349 1065 314 1065 q 394 1049 378 1065 q 411 1006 411 1032 q 402 966 411 985 q 378 934 393 947 q 344 913 363 921 q 306 904 325 904 q 261 920 278 904 q 244 963 244 936 q 244 973 244 968 q 247 985 244 978 m 479 985 q 517 1042 488 1019 q 581 1065 546 1065 q 626 1049 610 1065 q 643 1006 643 1032 q 634 966 643 985 q 610 934 625 947 q 576 913 594 921 q 538 904 557 904 q 493 920 510 904 q 476 963 476 936 q 476 973 476 968 q 479 985 476 978 z "},"ý":{"ha":715,"x_min":-154,"x_max":696,"o":"m 224 406 q 178 563 201 519 q 131 607 156 607 q 83 567 104 607 q 39 442 61 528 l -12 456 q 24 574 1 519 q 74 667 47 628 q 132 728 101 707 q 193 750 163 750 q 238 731 219 750 q 276 658 257 711 q 313 541 293 614 q 353 374 333 468 l 400 150 l 406 150 q 459 226 432 183 q 508 315 486 268 q 544 409 531 361 q 558 499 558 457 q 557 534 558 513 q 553 578 556 556 q 550 620 551 600 q 549 653 549 640 q 574 726 549 703 q 626 750 599 750 q 679 719 663 750 q 696 649 696 689 q 665 503 696 592 q 585 312 635 414 q 469 103 535 210 q 335 -92 404 -3 q 140 -295 229 -229 q -28 -361 50 -361 q -120 -329 -86 -361 q -154 -251 -154 -297 q -135 -195 -154 -217 q -83 -174 -115 -174 q -42 -190 -56 -174 q -21 -226 -29 -206 q -3 -262 -12 -246 q 25 -278 6 -278 q 92 -249 51 -278 q 172 -176 132 -219 q 248 -81 213 -132 q 299 15 283 -29 l 224 406 m 314 904 l 494 1069 q 588 1115 544 1115 q 626 1103 611 1115 q 640 1067 640 1090 q 622 1027 640 1044 q 569 994 603 1010 l 379 904 l 314 904 z "},"ỳ":{"ha":715,"x_min":-154,"x_max":696,"o":"m 224 406 q 178 563 201 519 q 131 607 156 607 q 83 567 104 607 q 39 442 61 528 l -12 456 q 24 574 1 519 q 74 667 47 628 q 132 728 101 707 q 193 750 163 750 q 238 731 219 750 q 276 658 257 711 q 313 541 293 614 q 353 374 333 468 l 400 150 l 406 150 q 459 226 432 183 q 508 315 486 268 q 544 409 531 361 q 558 499 558 457 q 557 534 558 513 q 553 578 556 556 q 550 620 551 600 q 549 653 549 640 q 574 726 549 703 q 626 750 599 750 q 679 719 663 750 q 696 649 696 689 q 665 503 696 592 q 585 312 635 414 q 469 103 535 210 q 335 -92 404 -3 q 140 -295 229 -229 q -28 -361 50 -361 q -120 -329 -86 -361 q -154 -251 -154 -297 q -135 -195 -154 -217 q -83 -174 -115 -174 q -42 -190 -56 -174 q -21 -226 -29 -206 q -3 -262 -12 -246 q 25 -278 6 -278 q 92 -249 51 -278 q 172 -176 132 -219 q 248 -81 213 -132 q 299 15 283 -29 l 224 406 m 488 904 l 322 994 q 283 1023 297 1008 q 268 1056 268 1038 q 290 1099 268 1083 q 336 1115 311 1115 q 417 1069 379 1115 l 553 904 l 488 904 z "},"ỹ":{"ha":715,"x_min":-154,"x_max":696,"o":"m 224 406 q 203 501 213 463 q 183 564 193 540 q 160 597 172 588 q 131 607 147 607 q 83 567 104 607 q 39 442 61 528 l -12 456 q 24 574 1 519 q 74 667 47 628 q 132 728 101 707 q 193 750 163 750 q 238 731 219 750 q 276 658 257 711 q 313 541 293 614 q 353 374 333 468 l 400 150 l 406 150 q 459 226 432 183 q 508 315 486 268 q 544 409 531 361 q 558 499 558 457 q 557 534 558 513 q 553 578 556 556 q 550 620 551 600 q 549 653 549 640 q 574 726 549 703 q 626 750 599 750 q 679 719 663 750 q 696 649 696 689 q 665 503 696 592 q 585 312 635 414 q 469 103 535 210 q 335 -92 404 -3 q 140 -295 229 -229 q -28 -361 50 -361 q -120 -329 -86 -361 q -154 -251 -154 -297 q -135 -195 -154 -217 q -83 -174 -115 -174 q -42 -190 -56 -174 q -21 -226 -29 -206 q -3 -262 -12 -246 q 25 -278 6 -278 q 92 -249 51 -278 q 172 -176 132 -219 q 248 -81 213 -132 q 299 15 283 -29 l 224 406 m 215 917 q 267 1031 226 988 q 361 1075 308 1075 q 411 1067 382 1075 q 481 1042 440 1060 q 542 1017 521 1024 q 582 1011 564 1011 q 619 1024 606 1011 q 643 1069 633 1038 l 689 1069 q 674 1010 686 1042 q 644 956 661 978 q 551 906 607 906 q 508 913 532 906 q 435 940 483 921 q 363 965 388 958 q 321 972 338 972 q 285 960 297 972 q 263 917 272 947 l 215 917 z "},"ŷ":{"ha":715,"x_min":-154,"x_max":696,"o":"m 224 406 q 178 563 201 519 q 131 607 156 607 q 83 567 104 607 q 39 442 61 528 l -12 456 q 24 574 1 519 q 74 667 47 628 q 132 728 101 707 q 193 750 163 750 q 238 731 219 750 q 276 658 257 711 q 313 541 293 614 q 353 374 333 468 l 400 150 l 406 150 q 459 226 432 183 q 508 315 486 268 q 544 409 531 361 q 558 499 558 457 q 557 534 558 513 q 553 578 556 556 q 550 620 551 600 q 549 653 549 640 q 574 726 549 703 q 626 750 599 750 q 679 719 663 750 q 696 649 696 689 q 665 503 696 592 q 585 312 635 414 q 469 103 535 210 q 335 -92 404 -3 q 140 -295 229 -229 q -28 -361 50 -361 q -120 -329 -86 -361 q -154 -251 -154 -297 q -135 -195 -154 -217 q -83 -174 -115 -174 q -42 -190 -56 -174 q -21 -226 -29 -206 q -3 -262 -12 -246 q 25 -278 6 -278 q 92 -249 51 -278 q 172 -176 132 -219 q 248 -81 213 -132 q 299 15 283 -29 l 224 406 m 544 1083 l 661 904 l 599 904 l 458 999 l 268 904 l 206 904 l 419 1083 l 544 1083 z "},"ż":{"ha":721,"x_min":-12,"x_max":681,"o":"m 222 215 l 225 211 q 288 197 256 211 q 354 165 321 182 q 421 133 388 147 q 486 118 454 118 q 556 143 526 118 q 610 235 585 168 l 657 217 q 618 123 643 165 q 560 50 593 81 q 490 3 528 19 q 411 -14 451 -14 q 327 6 363 -14 q 263 49 292 25 q 206 93 233 74 q 149 113 179 113 q 109 95 119 113 q 92 56 99 78 q 74 17 85 35 q 33 0 64 0 q -12 42 -12 0 q 10 96 -12 68 q 79 169 32 124 l 463 540 l 460 544 q 401 563 432 544 q 337 603 369 581 q 272 643 304 625 q 210 661 239 661 q 173 649 186 661 q 160 618 160 638 q 171 589 160 599 q 195 570 182 579 q 219 549 208 561 q 231 511 231 536 q 163 447 231 447 q 94 476 118 447 q 69 554 69 504 q 86 631 69 596 q 133 693 103 667 q 203 735 163 719 q 289 750 243 750 q 375 733 340 750 q 435 696 410 717 q 483 658 461 675 q 531 642 506 642 q 566 656 554 642 q 587 689 578 671 q 606 722 596 707 q 640 736 617 736 q 681 693 681 736 q 678 672 681 682 q 666 649 675 663 q 638 616 657 635 q 589 567 619 597 l 222 215 m 368 1032 q 393 1093 368 1068 q 454 1118 418 1118 q 515 1093 490 1118 q 540 1032 540 1068 q 515 971 540 996 q 454 946 490 946 q 393 971 418 946 q 368 1032 368 996 z "},"ź":{"ha":721,"x_min":-12,"x_max":681,"o":"m 222 215 l 225 211 q 288 197 256 211 q 354 165 321 182 q 421 133 388 147 q 486 118 454 118 q 556 143 526 118 q 610 235 585 168 l 657 217 q 618 123 643 165 q 560 50 593 81 q 490 3 528 19 q 411 -14 451 -14 q 327 6 363 -14 q 263 49 292 25 q 206 93 233 74 q 149 113 179 113 q 109 95 119 113 q 92 56 99 78 q 74 17 85 35 q 33 0 64 0 q -12 42 -12 0 q 10 96 -12 68 q 79 169 32 124 l 463 540 l 460 544 q 401 563 432 544 q 337 603 369 581 q 272 643 304 625 q 210 661 239 661 q 173 649 186 661 q 160 618 160 638 q 171 589 160 599 q 195 570 182 579 q 219 549 208 561 q 231 511 231 536 q 163 447 231 447 q 94 476 118 447 q 69 554 69 504 q 86 631 69 596 q 133 693 103 667 q 203 735 163 719 q 289 750 243 750 q 375 733 340 750 q 435 696 410 717 q 483 658 461 675 q 531 642 506 642 q 566 656 554 642 q 587 689 578 671 q 606 722 596 707 q 640 736 617 736 q 681 693 681 736 q 678 672 681 682 q 666 649 675 663 q 638 616 657 635 q 589 567 619 597 l 222 215 m 329 904 l 510 1069 q 603 1115 560 1115 q 641 1103 626 1115 q 656 1067 656 1090 q 637 1027 656 1044 q 585 994 618 1010 l 394 904 l 329 904 z "},"ž":{"ha":721,"x_min":-12,"x_max":706,"o":"m 222 215 l 225 211 q 288 197 256 211 q 354 165 321 182 q 421 133 388 147 q 486 118 454 118 q 556 143 526 118 q 610 235 585 168 l 657 217 q 618 123 643 165 q 560 50 593 81 q 490 3 528 19 q 411 -14 451 -14 q 327 6 363 -14 q 263 49 292 25 q 206 93 233 74 q 149 113 179 113 q 109 95 119 113 q 92 56 99 78 q 74 17 85 35 q 33 0 64 0 q -12 42 -12 0 q 10 96 -12 68 q 79 169 32 124 l 463 540 l 460 544 q 401 563 432 544 q 337 603 369 581 q 272 643 304 625 q 210 661 239 661 q 173 649 186 661 q 160 618 160 638 q 171 589 160 599 q 195 570 182 579 q 219 549 208 561 q 231 511 231 536 q 163 447 231 447 q 94 476 118 447 q 69 554 69 504 q 86 631 69 596 q 133 693 103 667 q 203 735 163 719 q 289 750 243 750 q 375 733 340 750 q 435 696 410 717 q 483 658 461 675 q 531 642 506 642 q 566 656 554 642 q 587 689 578 671 q 606 722 596 707 q 640 736 617 736 q 681 693 681 736 q 678 672 681 682 q 666 649 675 663 q 638 616 657 635 q 589 567 619 597 l 222 215 m 367 904 l 250 1083 l 313 1083 l 453 989 l 643 1083 l 706 1083 l 492 904 l 367 904 z "},"ẓ":{"ha":721,"x_min":-12,"x_max":681,"o":"m 222 215 l 225 211 q 288 197 256 211 q 354 165 321 182 q 421 133 388 147 q 486 118 454 118 q 556 143 526 118 q 610 235 585 168 l 657 217 q 618 123 643 165 q 560 50 593 81 q 490 3 528 19 q 411 -14 451 -14 q 327 6 363 -14 q 263 49 292 25 q 206 93 233 74 q 149 113 179 113 q 109 95 119 113 q 92 56 99 78 q 74 17 85 35 q 33 0 64 0 q -12 42 -12 0 q 10 96 -12 68 q 79 169 32 124 l 463 540 l 460 544 q 401 563 432 544 q 337 603 369 581 q 272 643 304 625 q 210 661 239 661 q 173 649 186 661 q 160 618 160 638 q 171 589 160 599 q 195 570 182 579 q 219 549 208 561 q 231 511 231 536 q 163 447 231 447 q 94 476 118 447 q 69 554 69 504 q 86 631 69 596 q 133 693 103 667 q 203 735 163 719 q 289 750 243 750 q 375 733 340 750 q 435 696 410 717 q 483 658 461 675 q 531 642 506 642 q 566 656 554 642 q 587 689 578 671 q 606 722 596 707 q 640 736 617 736 q 681 693 681 736 q 678 672 681 682 q 666 649 675 663 q 638 616 657 635 q 589 567 619 597 l 222 215 m 122 -233 q 147 -172 122 -197 q 208 -147 172 -147 q 269 -172 244 -147 q 294 -233 294 -197 q 269 -294 294 -269 q 208 -319 244 -319 q 147 -294 172 -319 q 122 -233 122 -269 z "},"ǽ":{"ha":1050,"x_min":14,"x_max":1032,"o":"m 932 185 q 635 -14 811 -14 q 498 35 549 -14 q 438 172 447 83 q 381 98 414 132 q 310 39 347 64 q 235 0 274 14 q 163 -14 197 -14 q 53 40 93 -14 q 14 188 14 93 q 54 383 14 283 q 158 565 94 483 q 300 698 222 646 q 453 750 378 750 q 528 728 499 750 q 575 658 557 707 l 614 764 l 729 764 l 688 661 l 692 658 q 780 729 729 708 q 881 750 831 750 q 990 716 947 750 q 1032 629 1032 682 q 996 529 1032 581 q 898 432 960 478 q 753 349 836 386 q 578 290 671 311 q 574 252 575 271 q 572 214 572 233 q 679 63 572 63 q 785 103 731 63 q 888 214 840 143 l 932 185 m 457 678 q 390 656 425 678 q 320 597 354 633 q 254 512 286 560 q 199 410 222 464 q 160 303 175 357 q 146 200 146 249 q 166 115 146 146 q 222 85 186 85 q 290 108 256 85 q 358 169 325 131 q 419 258 390 207 q 471 365 449 308 q 506 480 493 421 q 518 593 518 539 q 457 678 518 678 m 853 685 q 778 657 817 685 q 703 583 739 629 q 639 476 668 536 q 592 353 610 417 q 715 400 658 371 q 813 466 772 429 q 878 544 854 503 q 901 626 901 585 q 853 685 901 685 m 576 904 l 757 1069 q 850 1115 807 1115 q 888 1103 874 1115 q 903 1067 903 1090 q 884 1027 903 1044 q 832 994 865 1010 l 642 904 l 576 904 z "},"ﬀ":{"ha":879,"x_min":-269,"x_max":1143,"o":"m 211 101 q 146 -112 179 -24 q 72 -255 113 -200 q -16 -335 32 -310 q -122 -361 -64 -361 q -230 -332 -190 -361 q -269 -254 -269 -303 q -251 -201 -269 -221 q -201 -181 -233 -181 q -161 -196 -172 -181 q -142 -229 -150 -211 q -125 -262 -135 -247 q -90 -278 -115 -278 q -31 -247 -57 -278 q 11 -157 -4 -215 l 213 625 l 79 625 l 97 689 l 229 689 q 293 876 260 800 q 366 997 326 951 q 455 1063 406 1043 q 569 1083 504 1083 q 678 1072 629 1083 q 758 1038 726 1060 q 851 1125 801 1097 q 963 1153 900 1153 q 1033 1144 1000 1153 q 1091 1118 1067 1135 q 1129 1079 1115 1101 q 1143 1032 1143 1057 q 1124 978 1143 999 q 1072 957 1104 957 q 1023 978 1036 957 q 1003 1024 1010 999 q 986 1069 996 1049 q 949 1090 976 1090 q 840 988 890 1090 q 749 689 789 885 l 917 689 l 897 625 l 733 625 l 604 101 q 540 -113 572 -25 q 468 -256 507 -201 q 383 -336 429 -311 q 281 -361 338 -361 q 180 -336 217 -361 q 143 -267 143 -311 q 160 -219 143 -237 q 204 -201 176 -201 q 239 -213 226 -201 q 260 -240 251 -225 q 281 -266 269 -254 q 313 -278 292 -278 q 404 -157 372 -278 l 604 625 l 342 625 l 211 101 m 621 689 q 661 829 638 758 q 708 953 685 900 q 652 1003 688 985 q 575 1021 617 1021 q 508 1004 538 1021 q 453 949 478 988 q 405 847 428 911 q 357 689 382 783 l 621 689 z "},"ﬁ":{"ha":853,"x_min":-269,"x_max":799,"o":"m 211 101 q 139 -130 175 -40 q 61 -271 103 -219 q -28 -342 19 -322 q -136 -361 -76 -361 q -232 -331 -194 -361 q -269 -256 -269 -300 q -251 -201 -269 -221 q -201 -181 -233 -181 q -161 -196 -172 -181 q -142 -229 -150 -211 q -125 -262 -135 -247 q -87 -278 -115 -278 q -29 -244 -56 -278 q 11 -157 -3 -211 l 213 625 l 79 625 l 97 689 l 229 689 q 296 901 260 814 q 374 1045 332 989 q 463 1127 415 1101 q 564 1153 510 1153 q 699 1119 646 1153 q 751 1033 751 1085 q 734 979 751 1001 q 685 957 717 957 q 644 967 658 957 q 622 992 629 976 q 610 1024 614 1007 q 601 1056 607 1040 q 585 1081 596 1071 q 551 1090 574 1090 q 497 1060 524 1090 q 444 977 469 1031 q 397 850 419 924 q 357 689 375 776 l 479 689 q 608 696 561 689 q 686 703 654 703 q 718 696 707 703 q 729 665 729 689 q 722 617 729 647 q 700 538 715 586 l 607 233 q 601 213 604 226 q 594 183 597 199 q 588 153 590 168 q 585 128 585 138 q 592 103 585 114 q 615 93 599 93 q 658 110 636 93 q 699 151 679 128 q 733 199 718 175 q 756 238 749 224 l 799 214 q 760 140 785 181 q 701 66 735 100 q 627 9 668 32 q 542 -14 586 -14 q 477 10 499 -14 q 456 90 456 35 q 465 171 456 126 q 494 281 475 215 l 547 458 q 564 521 558 494 q 569 567 569 547 q 541 615 569 606 q 449 625 513 625 l 342 625 l 211 101 z "},"ﬂ":{"ha":857,"x_min":-269,"x_max":857,"o":"m 672 943 q 679 989 679 971 q 658 1053 679 1029 q 601 1076 638 1076 q 467 977 529 1076 q 357 689 404 878 l 507 689 l 488 625 l 342 625 l 211 101 q 146 -112 179 -24 q 72 -255 113 -200 q -16 -335 32 -310 q -122 -361 -64 -361 q -230 -332 -190 -361 q -269 -254 -269 -303 q -251 -201 -269 -221 q -201 -181 -233 -181 q -161 -196 -172 -181 q -142 -229 -150 -211 q -125 -262 -135 -247 q -90 -278 -115 -278 q -31 -247 -57 -278 q 11 -157 -4 -215 l 213 625 l 79 625 l 97 689 l 229 689 q 299 892 261 807 q 381 1033 336 978 q 481 1113 426 1088 q 600 1139 535 1139 q 713 1117 668 1139 l 857 1151 l 608 239 q 586 129 586 160 q 615 93 586 93 q 651 106 631 93 q 695 142 672 119 q 740 192 718 164 q 778 251 761 221 l 819 228 q 761 131 794 175 q 690 55 728 88 q 614 4 653 22 q 539 -14 575 -14 q 454 78 454 -14 q 463 156 454 106 q 492 281 471 206 l 672 943 z "},"ﬃ":{"ha":1240,"x_min":-269,"x_max":1186,"o":"m 733 625 l 604 101 q 540 -113 572 -25 q 468 -256 507 -201 q 383 -336 429 -311 q 281 -361 338 -361 q 180 -336 217 -361 q 143 -267 143 -311 q 160 -219 143 -237 q 204 -201 176 -201 q 239 -213 226 -201 q 260 -240 251 -225 q 281 -266 269 -254 q 313 -278 292 -278 q 404 -157 372 -278 l 604 625 l 342 625 l 211 101 q 146 -112 179 -24 q 72 -255 113 -200 q -16 -335 32 -310 q -122 -361 -64 -361 q -230 -332 -190 -361 q -269 -254 -269 -303 q -251 -201 -269 -221 q -201 -181 -233 -181 q -161 -196 -172 -181 q -142 -229 -150 -211 q -125 -262 -135 -247 q -90 -278 -115 -278 q -31 -247 -57 -278 q 11 -157 -4 -215 l 213 625 l 79 625 l 97 689 l 229 689 q 293 876 260 800 q 366 997 326 951 q 455 1063 406 1043 q 569 1083 504 1083 q 678 1072 629 1083 q 758 1038 726 1060 q 851 1125 801 1097 q 963 1153 900 1153 q 1033 1144 1000 1153 q 1091 1118 1067 1135 q 1129 1079 1115 1101 q 1143 1032 1143 1057 q 1124 978 1143 999 q 1072 957 1104 957 q 1023 978 1036 957 q 1003 1024 1010 999 q 986 1069 996 1049 q 949 1090 976 1090 q 840 988 890 1090 q 749 689 789 885 l 840 689 q 988 696 935 689 q 1074 703 1040 703 q 1106 696 1094 703 q 1117 665 1117 689 q 1110 617 1117 647 q 1088 538 1103 586 l 994 233 q 988 213 992 226 q 981 183 985 199 q 975 153 978 168 q 972 128 972 138 q 979 103 972 114 q 1003 93 986 93 q 1045 110 1024 93 q 1086 151 1067 128 q 1121 199 1106 175 q 1143 238 1136 224 l 1186 214 q 1147 140 1172 181 q 1089 66 1122 100 q 1015 9 1056 32 q 929 -14 974 -14 q 865 10 886 -14 q 843 90 843 35 q 853 171 843 126 q 882 281 863 215 l 935 458 q 951 521 946 494 q 957 567 957 547 q 928 615 957 606 q 836 625 900 625 l 733 625 m 621 689 q 661 829 638 758 q 708 953 685 900 q 652 1003 688 985 q 575 1021 617 1021 q 508 1004 538 1021 q 453 949 478 988 q 405 847 428 911 q 357 689 382 783 l 621 689 z "},"ﬄ":{"ha":1249,"x_min":-269,"x_max":1249,"o":"m 1064 943 q 1071 989 1071 971 q 1050 1053 1071 1029 q 993 1076 1029 1076 q 858 977 921 1076 q 749 689 796 878 l 899 689 l 879 625 l 733 625 l 603 101 q 538 -112 571 -24 q 464 -255 504 -200 q 376 -335 424 -310 q 269 -361 328 -361 q 172 -336 207 -361 q 136 -268 136 -311 q 154 -215 136 -235 q 204 -194 172 -194 q 240 -208 229 -194 q 256 -236 250 -221 q 271 -265 263 -251 q 301 -278 279 -278 q 361 -247 335 -278 q 403 -157 388 -215 l 604 625 l 342 625 l 211 101 q 146 -112 179 -24 q 72 -255 113 -200 q -16 -335 32 -310 q -122 -361 -64 -361 q -230 -332 -190 -361 q -269 -254 -269 -303 q -251 -201 -269 -221 q -201 -181 -233 -181 q -161 -196 -172 -181 q -142 -229 -150 -211 q -125 -262 -135 -247 q -90 -278 -115 -278 q -31 -247 -57 -278 q 11 -157 -4 -215 l 213 625 l 79 625 l 97 689 l 229 689 q 293 876 260 800 q 366 997 326 951 q 455 1063 406 1043 q 569 1083 504 1083 q 681 1070 628 1083 q 771 1029 735 1057 q 871 1113 817 1086 q 992 1139 925 1139 q 1104 1117 1060 1139 l 1249 1151 l 1000 239 q 978 129 978 160 q 1007 93 978 93 q 1043 106 1022 93 q 1087 142 1064 119 q 1131 192 1110 164 q 1169 251 1153 221 l 1211 228 q 1153 131 1186 175 q 1082 55 1119 88 q 1006 4 1044 22 q 931 -14 967 -14 q 846 78 846 -14 q 854 156 846 106 q 883 281 863 206 l 1064 943 m 621 689 q 714 942 663 843 q 653 1001 693 981 q 575 1021 614 1021 q 508 1004 538 1021 q 453 949 478 988 q 405 847 428 911 q 357 689 382 783 l 621 689 z "},"À":{"ha":1060,"x_min":-150,"x_max":975,"o":"m 765 231 q 749 124 749 157 q 775 69 749 83 q 878 56 801 56 l 864 0 l 453 0 l 467 56 q 533 62 507 56 q 577 87 560 68 q 607 140 594 106 q 632 232 619 175 l 669 403 l 371 403 l 283 311 q 194 215 226 251 q 144 156 161 178 q 124 122 128 133 q 119 103 119 111 q 142 66 119 76 q 224 56 165 56 l 210 0 l -150 0 l -136 56 q -70 69 -103 56 q 1 113 -37 82 q 89 194 40 143 q 201 321 138 244 l 842 1083 l 958 1083 l 765 231 m 682 472 l 796 903 l 790 903 l 431 472 l 682 472 m 892 1181 l 735 1219 q 671 1243 694 1229 q 647 1276 647 1257 q 669 1318 647 1303 q 714 1333 690 1333 q 766 1322 742 1333 q 822 1288 790 1311 l 975 1181 l 892 1181 z "},"Á":{"ha":1060,"x_min":-150,"x_max":1251,"o":"m 765 231 q 749 124 749 157 q 775 69 749 83 q 878 56 801 56 l 864 0 l 453 0 l 467 56 q 533 62 507 56 q 577 87 560 68 q 607 140 594 106 q 632 232 619 175 l 669 403 l 371 403 l 283 311 q 194 215 226 251 q 144 156 161 178 q 124 122 128 133 q 119 103 119 111 q 142 66 119 76 q 224 56 165 56 l 210 0 l -150 0 l -136 56 q -70 69 -103 56 q 1 113 -37 82 q 89 194 40 143 q 201 321 138 244 l 842 1083 l 958 1083 l 765 231 m 682 472 l 796 903 l 790 903 l 431 472 l 682 472 m 868 1181 l 1076 1288 q 1151 1322 1121 1311 q 1210 1333 1182 1333 q 1251 1299 1251 1333 q 1219 1251 1251 1271 q 1128 1219 1188 1232 l 951 1181 l 868 1181 z "},"Â":{"ha":1060,"x_min":-150,"x_max":1163,"o":"m 765 231 q 749 124 749 157 q 775 69 749 83 q 878 56 801 56 l 864 0 l 453 0 l 467 56 q 533 62 507 56 q 577 87 560 68 q 607 140 594 106 q 632 232 619 175 l 669 403 l 371 403 l 283 311 q 194 215 226 251 q 144 156 161 178 q 124 122 128 133 q 119 103 119 111 q 142 66 119 76 q 224 56 165 56 l 210 0 l -150 0 l -136 56 q -70 69 -103 56 q 1 113 -37 82 q 89 194 40 143 q 201 321 138 244 l 842 1083 l 958 1083 l 765 231 m 682 472 l 796 903 l 790 903 l 431 472 l 682 472 m 1051 1333 l 1163 1182 l 1100 1182 l 954 1257 l 769 1182 l 707 1182 l 899 1333 l 1051 1333 z "},"Ã":{"ha":1060,"x_min":-150,"x_max":1186,"o":"m 765 231 q 749 124 749 157 q 775 69 749 83 q 878 56 801 56 l 864 0 l 453 0 l 467 56 q 533 62 507 56 q 577 87 560 68 q 607 140 594 106 q 632 232 619 175 l 669 403 l 371 403 l 283 311 q 194 215 226 251 q 144 156 161 178 q 124 122 128 133 q 119 103 119 111 q 142 66 119 76 q 224 56 165 56 l 210 0 l -150 0 l -136 56 q -70 69 -103 56 q 1 113 -37 82 q 89 194 40 143 q 201 321 138 244 l 842 1083 l 958 1083 l 765 231 m 682 472 l 796 903 l 790 903 l 431 472 l 682 472 m 713 1175 q 765 1290 724 1246 q 858 1333 806 1333 q 918 1324 889 1333 q 975 1301 947 1314 q 1028 1279 1003 1289 q 1079 1269 1054 1269 q 1117 1283 1103 1269 q 1140 1328 1131 1296 l 1186 1328 q 1171 1267 1182 1296 q 1142 1215 1160 1238 q 1100 1178 1124 1192 q 1049 1164 1076 1164 q 987 1174 1018 1164 q 926 1197 956 1185 q 868 1220 896 1210 q 818 1231 840 1231 q 782 1218 794 1231 q 760 1175 769 1206 l 713 1175 z "},"Ä":{"ha":1060,"x_min":-150,"x_max":1161,"o":"m 765 231 q 749 124 749 157 q 775 69 749 83 q 878 56 801 56 l 864 0 l 453 0 l 467 56 q 533 62 507 56 q 577 87 560 68 q 607 140 594 106 q 632 232 619 175 l 669 403 l 371 403 l 283 311 q 194 215 226 251 q 144 156 161 178 q 124 122 128 133 q 119 103 119 111 q 142 66 119 76 q 224 56 165 56 l 210 0 l -150 0 l -136 56 q -70 69 -103 56 q 1 113 -37 82 q 89 194 40 143 q 201 321 138 244 l 842 1083 l 958 1083 l 765 231 m 682 472 l 796 903 l 790 903 l 431 472 l 682 472 m 765 1264 q 798 1313 772 1293 q 853 1333 824 1333 q 893 1319 878 1333 q 908 1282 908 1304 q 900 1248 908 1264 q 878 1219 892 1232 q 849 1200 865 1207 q 815 1193 832 1193 q 777 1207 792 1193 q 763 1243 763 1221 q 765 1264 763 1257 m 1018 1264 q 1051 1313 1025 1293 q 1107 1333 1076 1333 q 1146 1319 1131 1333 q 1161 1282 1161 1304 q 1153 1248 1161 1264 q 1131 1219 1144 1232 q 1102 1200 1118 1207 q 1069 1193 1086 1193 q 1030 1207 1044 1193 q 1015 1243 1015 1221 q 1018 1264 1015 1257 z "},"Å":{"ha":1060,"x_min":-150,"x_max":1043,"o":"m 765 231 q 749 124 749 157 q 775 69 749 83 q 878 56 801 56 l 864 0 l 453 0 l 467 56 q 533 62 507 56 q 577 87 560 68 q 607 140 594 106 q 632 232 619 175 l 669 403 l 371 403 l 283 311 q 194 215 226 251 q 144 156 161 178 q 124 122 128 133 q 119 103 119 111 q 142 66 119 76 q 224 56 165 56 l 210 0 l -150 0 l -136 56 q -70 69 -103 56 q 1 113 -37 82 q 89 194 40 143 q 201 321 138 244 l 842 1083 l 958 1083 l 765 231 m 682 472 l 796 903 l 790 903 l 431 472 l 682 472 m 856 1219 q 865 1262 856 1242 q 892 1298 875 1282 q 929 1324 908 1314 q 974 1333 950 1333 q 1024 1315 1006 1333 q 1043 1265 1043 1297 q 1033 1223 1043 1243 q 1006 1187 1022 1203 q 967 1162 989 1171 q 924 1153 946 1153 q 874 1171 892 1153 q 856 1219 856 1189 m 961 1289 q 919 1271 938 1289 q 900 1229 900 1253 q 935 1196 900 1196 q 978 1213 958 1196 q 997 1254 997 1231 q 961 1289 997 1289 z "},"Ā":{"ha":1060,"x_min":-150,"x_max":1143,"o":"m 765 231 q 749 124 749 157 q 775 69 749 83 q 878 56 801 56 l 864 0 l 453 0 l 467 56 q 533 62 507 56 q 577 87 560 68 q 607 140 594 106 q 632 232 619 175 l 669 403 l 371 403 l 283 311 q 194 215 226 251 q 144 156 161 178 q 124 122 128 133 q 119 103 119 111 q 142 66 119 76 q 224 56 165 56 l 210 0 l -150 0 l -136 56 q -70 69 -103 56 q 1 113 -37 82 q 89 194 40 143 q 201 321 138 244 l 842 1083 l 958 1083 l 765 231 m 682 472 l 796 903 l 790 903 l 431 472 l 682 472 m 750 1222 l 768 1292 l 1143 1292 l 1125 1222 l 750 1222 z "},"Ă":{"ha":1060,"x_min":-150,"x_max":1174,"o":"m 765 231 q 749 124 749 157 q 775 69 749 83 q 878 56 801 56 l 864 0 l 453 0 l 467 56 q 533 62 507 56 q 577 87 560 68 q 607 140 594 106 q 632 232 619 175 l 669 403 l 371 403 l 283 311 q 194 215 226 251 q 144 156 161 178 q 124 122 128 133 q 119 103 119 111 q 142 66 119 76 q 224 56 165 56 l 210 0 l -150 0 l -136 56 q -70 69 -103 56 q 1 113 -37 82 q 89 194 40 143 q 201 321 138 244 l 842 1083 l 958 1083 l 765 231 m 682 472 l 796 903 l 790 903 l 431 472 l 682 472 m 1174 1333 q 1138 1269 1161 1299 q 1083 1219 1114 1240 q 1015 1185 1051 1197 q 939 1174 978 1174 q 827 1208 868 1174 q 786 1299 786 1243 q 790 1333 786 1314 l 840 1333 q 877 1287 843 1304 q 964 1269 911 1269 q 1060 1287 1017 1269 q 1122 1333 1103 1304 l 1174 1333 z "},"Ą":{"ha":1060,"x_min":-150,"x_max":958,"o":"m 767 -211 q 667 -296 724 -267 q 549 -325 611 -325 q 449 -294 485 -325 q 414 -207 414 -262 q 459 -92 414 -146 q 588 0 504 -39 l 453 0 l 467 56 q 533 62 507 56 q 577 87 560 68 q 607 140 594 106 q 632 232 619 175 l 669 403 l 371 403 l 283 311 q 194 215 226 251 q 144 156 161 178 q 124 122 128 133 q 119 103 119 111 q 142 66 119 76 q 224 56 165 56 l 210 0 l -150 0 l -136 56 q -70 69 -103 56 q 1 113 -37 82 q 89 194 40 143 q 201 321 138 244 l 842 1083 l 958 1083 l 765 231 q 749 124 749 157 q 775 69 749 83 q 878 56 801 56 l 864 0 l 678 0 q 566 -85 608 -36 q 524 -175 524 -133 q 544 -222 524 -203 q 594 -242 565 -242 q 656 -223 621 -242 q 726 -168 690 -204 l 767 -211 m 682 472 l 796 903 l 790 903 l 431 472 l 682 472 z "},"Ǽ":{"ha":1488,"x_min":-118,"x_max":1440,"o":"m 485 0 l 499 56 q 565 62 539 56 q 609 87 592 68 q 639 140 626 106 q 664 232 651 175 l 701 403 l 403 403 l 315 311 q 226 215 258 251 q 176 156 193 178 q 156 122 160 133 q 151 103 151 111 q 174 66 151 76 q 256 56 197 56 l 242 0 l -118 0 l -104 56 q -38 69 -71 56 q 33 113 -6 82 q 121 194 72 143 q 233 321 169 244 l 753 940 q 775 981 775 967 q 740 1006 775 999 q 625 1014 706 1014 l 640 1069 l 1440 1069 l 1440 789 l 1388 789 q 1347 898 1369 856 q 1297 965 1325 940 q 1233 999 1268 989 q 1154 1008 1197 1008 l 974 1008 l 879 596 l 953 596 q 1017 603 990 596 q 1065 627 1043 610 q 1105 675 1086 644 q 1146 754 1124 706 l 1197 754 l 1114 343 l 1058 343 q 1063 415 1063 385 q 1039 506 1063 478 q 951 535 1015 535 l 865 535 l 797 231 q 781 124 781 157 q 789 95 781 107 q 817 75 797 83 q 871 63 838 67 q 953 60 904 60 q 1091 72 1032 60 q 1194 112 1150 85 q 1270 183 1238 139 q 1332 293 1303 228 l 1397 293 l 1289 0 l 485 0 m 714 472 l 828 903 l 822 903 l 463 472 l 714 472 m 894 1181 l 1103 1288 q 1178 1322 1147 1311 q 1236 1333 1208 1333 q 1278 1299 1278 1333 q 1246 1251 1278 1271 q 1154 1219 1214 1232 l 978 1181 l 894 1181 z "},"Ç":{"ha":1011,"x_min":101,"x_max":1044,"o":"m 924 263 q 756 67 839 132 q 568 -10 672 3 l 511 -100 q 619 -122 582 -100 q 656 -187 656 -144 q 638 -255 656 -224 q 590 -310 619 -286 q 522 -347 560 -333 q 444 -361 483 -361 q 344 -336 382 -361 q 307 -274 307 -311 q 324 -225 307 -244 q 364 -206 340 -206 q 387 -221 381 -206 q 398 -253 393 -236 q 413 -286 403 -271 q 447 -301 422 -301 q 509 -276 481 -301 q 538 -214 538 -251 q 444 -157 538 -157 q 417 -158 431 -157 q 396 -160 403 -158 l 394 -156 l 492 -14 q 329 20 401 -11 q 206 108 257 51 q 128 242 156 164 q 101 418 101 321 q 150 670 101 550 q 280 882 199 790 q 468 1028 361 974 q 692 1083 575 1083 q 819 1063 758 1083 q 942 1000 879 1043 l 993 1069 l 1044 1069 l 981 721 l 928 721 q 863 942 917 872 q 703 1011 810 1011 q 532 965 611 1011 q 394 839 453 919 q 303 650 336 758 q 269 417 269 542 q 538 72 269 72 q 719 126 638 72 q 874 296 800 181 l 924 263 l 924 263 z "},"Ć":{"ha":1011,"x_min":101,"x_max":1044,"o":"m 924 263 q 828 136 875 189 q 732 50 782 83 q 626 1 682 17 q 507 -14 571 -14 q 338 16 413 -14 q 210 102 263 46 q 130 238 158 158 q 101 418 101 318 q 150 670 101 550 q 280 882 199 790 q 468 1028 361 974 q 692 1083 575 1083 q 819 1063 758 1083 q 942 1000 879 1043 l 993 1069 l 1044 1069 l 981 721 l 928 721 q 863 942 917 872 q 703 1011 810 1011 q 532 965 611 1011 q 394 839 453 919 q 303 650 336 758 q 269 417 269 542 q 538 72 269 72 q 719 126 638 72 q 874 296 800 181 l 924 263 m 567 1181 l 775 1288 q 850 1322 819 1311 q 908 1333 881 1333 q 950 1299 950 1333 q 918 1251 950 1271 q 826 1219 886 1232 l 650 1181 l 567 1181 z "},"Ĉ":{"ha":1011,"x_min":101,"x_max":1044,"o":"m 924 263 q 828 136 875 189 q 732 50 782 83 q 626 1 682 17 q 507 -14 571 -14 q 338 16 413 -14 q 210 102 263 46 q 130 238 158 158 q 101 418 101 318 q 150 670 101 550 q 280 882 199 790 q 468 1028 361 974 q 692 1083 575 1083 q 819 1063 758 1083 q 942 1000 879 1043 l 993 1069 l 1044 1069 l 981 721 l 928 721 q 863 942 917 872 q 703 1011 810 1011 q 532 965 611 1011 q 394 839 453 919 q 303 650 336 758 q 269 417 269 542 q 538 72 269 72 q 719 126 638 72 q 874 296 800 181 l 924 263 m 849 1333 l 960 1182 l 897 1182 l 751 1257 l 567 1182 l 504 1182 l 696 1333 l 849 1333 z "},"Ċ":{"ha":1011,"x_min":101,"x_max":1044,"o":"m 924 263 q 828 136 875 189 q 732 50 782 83 q 626 1 682 17 q 507 -14 571 -14 q 338 16 413 -14 q 210 102 263 46 q 130 238 158 158 q 101 418 101 318 q 150 670 101 550 q 280 882 199 790 q 468 1028 361 974 q 692 1083 575 1083 q 819 1063 758 1083 q 942 1000 879 1043 l 993 1069 l 1044 1069 l 981 721 l 928 721 q 863 942 917 872 q 703 1011 810 1011 q 532 965 611 1011 q 394 839 453 919 q 303 650 336 758 q 269 417 269 542 q 538 72 269 72 q 719 126 638 72 q 874 296 800 181 l 924 263 m 694 1256 q 716 1310 694 1288 q 767 1332 738 1332 q 821 1310 799 1332 q 843 1256 843 1288 q 821 1205 843 1226 q 767 1183 799 1183 q 716 1205 738 1183 q 694 1256 694 1226 z "},"Č":{"ha":1011,"x_min":101,"x_max":1044,"o":"m 924 263 q 828 136 875 189 q 732 50 782 83 q 626 1 682 17 q 507 -14 571 -14 q 338 16 413 -14 q 210 102 263 46 q 130 238 158 158 q 101 418 101 318 q 150 670 101 550 q 280 882 199 790 q 468 1028 361 974 q 692 1083 575 1083 q 819 1063 758 1083 q 942 1000 879 1043 l 993 1069 l 1044 1069 l 981 721 l 928 721 q 863 942 917 872 q 703 1011 810 1011 q 532 965 611 1011 q 394 839 453 919 q 303 650 336 758 q 269 417 269 542 q 538 72 269 72 q 719 126 638 72 q 874 296 800 181 l 924 263 m 649 1182 l 538 1333 l 600 1333 l 746 1258 l 931 1333 l 993 1333 l 801 1182 l 649 1182 z "},"Ḍ":{"ha":1161,"x_min":-40,"x_max":1107,"o":"m 229 1069 l 606 1069 q 792 1047 701 1069 q 956 963 882 1024 q 1071 808 1035 897 q 1107 621 1107 718 q 1092 495 1107 558 q 1052 373 1078 432 q 991 262 1026 314 q 914 168 956 210 q 699 36 817 72 q 446 0 581 0 l -40 0 l -25 56 q 49 61 19 56 q 99 84 79 67 q 134 133 119 101 q 163 219 149 165 l 322 833 q 330 858 325 843 q 340 892 335 874 q 349 926 346 910 q 353 956 353 943 q 341 988 353 976 q 312 1005 329 999 q 274 1013 294 1011 q 238 1014 254 1014 l 211 1014 l 229 1069 m 329 321 q 311 252 318 279 q 301 208 304 225 q 296 181 297 190 q 294 164 294 171 q 310 106 294 126 q 349 76 326 86 q 394 63 371 65 q 433 61 418 61 q 597 86 524 61 q 728 155 671 111 q 826 256 785 199 q 894 376 867 313 q 933 506 921 440 q 946 635 946 572 q 852 905 946 810 q 594 1000 758 1000 q 530 988 554 1000 q 493 929 506 976 l 329 321 m 318 -236 q 343 -175 318 -200 q 404 -150 368 -150 q 465 -175 440 -150 q 490 -236 490 -200 q 465 -297 490 -272 q 404 -322 440 -322 q 343 -297 368 -322 q 318 -236 318 -272 z "},"Ď":{"ha":1161,"x_min":-40,"x_max":1107,"o":"m 229 1069 l 606 1069 q 792 1047 701 1069 q 956 963 882 1024 q 1071 808 1035 897 q 1107 621 1107 718 q 1092 495 1107 558 q 1052 373 1078 432 q 991 262 1026 314 q 914 168 956 210 q 699 36 817 72 q 446 0 581 0 l -40 0 l -25 56 q 49 61 19 56 q 99 84 79 67 q 134 133 119 101 q 163 219 149 165 l 322 833 q 330 858 325 843 q 340 892 335 874 q 349 926 346 910 q 353 956 353 943 q 341 988 353 976 q 312 1005 329 999 q 274 1013 294 1011 q 238 1014 254 1014 l 211 1014 l 229 1069 m 329 321 q 311 252 318 279 q 301 208 304 225 q 296 181 297 190 q 294 164 294 171 q 310 106 294 126 q 349 76 326 86 q 394 63 371 65 q 433 61 418 61 q 597 86 524 61 q 728 155 671 111 q 826 256 785 199 q 894 376 867 313 q 933 506 921 440 q 946 635 946 572 q 852 905 946 810 q 594 1000 758 1000 q 530 988 554 1000 q 493 929 506 976 l 329 321 m 601 1182 l 490 1333 l 553 1333 l 699 1258 l 883 1333 l 946 1333 l 754 1182 l 601 1182 z "},"Đ":{"ha":1165,"x_min":-36,"x_max":1111,"o":"m 233 1069 l 610 1069 q 796 1047 706 1069 q 960 963 886 1024 q 1075 808 1039 897 q 1111 621 1111 718 q 1097 495 1111 558 q 1056 373 1082 432 q 995 262 1031 314 q 918 168 960 210 q 703 36 821 72 q 450 0 585 0 l -36 0 l -21 56 q 53 61 24 56 q 103 84 83 67 q 138 133 124 101 q 167 219 153 165 l 242 508 l 113 508 l 131 578 l 260 578 l 326 833 q 334 858 329 843 q 344 892 339 874 q 353 926 350 910 q 357 956 357 943 q 345 988 357 976 q 316 1005 333 999 q 278 1013 299 1011 q 242 1014 258 1014 l 215 1014 l 233 1069 m 403 578 l 561 578 l 543 508 l 383 508 l 333 321 q 315 252 322 279 q 305 208 308 225 q 300 181 301 190 q 299 164 299 171 q 315 106 299 126 q 353 76 331 86 q 399 63 375 65 q 438 61 422 61 q 601 86 528 61 q 732 155 675 111 q 830 256 789 199 q 898 376 871 313 q 938 506 925 440 q 950 635 950 572 q 856 905 950 810 q 599 1000 763 1000 q 534 988 558 1000 q 497 929 510 976 l 403 578 z "},"Ð":{"ha":1165,"x_min":-36,"x_max":1111,"o":"m 233 1069 l 610 1069 q 796 1047 706 1069 q 960 963 886 1024 q 1075 808 1039 897 q 1111 621 1111 718 q 1097 495 1111 558 q 1056 373 1082 432 q 995 262 1031 314 q 918 168 960 210 q 703 36 821 72 q 450 0 585 0 l -36 0 l -21 56 q 53 61 24 56 q 103 84 83 67 q 138 133 124 101 q 167 219 153 165 l 242 508 l 113 508 l 131 578 l 260 578 l 326 833 q 334 858 329 843 q 344 892 339 874 q 353 926 350 910 q 357 956 357 943 q 345 988 357 976 q 316 1005 333 999 q 278 1013 299 1011 q 242 1014 258 1014 l 215 1014 l 233 1069 m 403 578 l 561 578 l 543 508 l 383 508 l 333 321 q 315 252 322 279 q 305 208 308 225 q 300 181 301 190 q 299 164 299 171 q 315 106 299 126 q 353 76 331 86 q 399 63 375 65 q 438 61 422 61 q 601 86 528 61 q 732 155 675 111 q 830 256 789 199 q 898 376 871 313 q 938 506 925 440 q 950 635 950 572 q 856 905 950 810 q 599 1000 763 1000 q 534 988 558 1000 q 497 929 510 976 l 403 578 z "},"Ę":{"ha":1028,"x_min":-36,"x_max":981,"o":"m -21 56 q 55 63 25 56 q 105 88 85 69 q 139 138 125 107 q 165 219 153 169 l 326 832 q 341 894 336 868 q 346 940 346 921 q 314 1000 346 986 q 207 1014 282 1014 l 222 1069 l 981 1069 l 981 789 l 928 789 q 888 898 910 856 q 837 965 865 940 q 773 999 808 989 q 694 1008 738 1008 l 514 1008 l 406 596 l 493 596 q 557 603 531 596 q 605 627 583 610 q 645 675 626 644 q 686 754 664 706 l 738 754 l 654 343 l 599 343 q 603 415 603 385 q 579 506 603 478 q 492 535 556 535 l 388 535 l 308 236 q 296 158 296 190 q 340 84 296 108 q 493 60 385 60 q 631 72 572 60 q 734 112 690 85 q 810 183 778 139 q 872 293 843 228 l 938 293 l 829 0 l 453 0 q 341 -85 383 -36 q 299 -175 299 -133 q 319 -222 299 -203 q 369 -242 340 -242 q 431 -223 396 -242 q 501 -168 465 -204 l 542 -211 q 442 -296 499 -267 q 324 -325 386 -325 q 224 -294 260 -325 q 189 -207 189 -262 q 234 -92 189 -146 q 363 0 279 -39 l -36 0 l -21 56 z "},"Ẹ":{"ha":1028,"x_min":-36,"x_max":981,"o":"m -21 56 q 55 63 25 56 q 105 88 85 69 q 139 138 125 107 q 165 219 153 169 l 326 832 q 341 894 336 868 q 346 940 346 921 q 314 1000 346 986 q 207 1014 282 1014 l 222 1069 l 981 1069 l 981 789 l 928 789 q 888 898 910 856 q 837 965 865 940 q 773 999 808 989 q 694 1008 738 1008 l 514 1008 l 406 596 l 493 596 q 557 603 531 596 q 605 627 583 610 q 645 675 626 644 q 686 754 664 706 l 738 754 l 654 343 l 599 343 q 603 415 603 385 q 579 506 603 478 q 492 535 556 535 l 388 535 l 308 236 q 296 158 296 190 q 340 84 296 108 q 493 60 385 60 q 631 72 572 60 q 734 112 690 85 q 810 183 778 139 q 872 293 843 228 l 938 293 l 829 0 l -36 0 l -21 56 m 333 -233 q 358 -172 333 -197 q 419 -147 383 -147 q 481 -172 456 -147 q 506 -233 506 -197 q 481 -294 506 -269 q 419 -319 456 -319 q 358 -294 383 -319 q 333 -233 333 -269 z "},"È":{"ha":1028,"x_min":-36,"x_max":981,"o":"m -21 56 q 55 63 25 56 q 105 88 85 69 q 139 138 125 107 q 165 219 153 169 l 326 832 q 341 894 336 868 q 346 940 346 921 q 314 1000 346 986 q 207 1014 282 1014 l 222 1069 l 981 1069 l 981 789 l 928 789 q 888 898 910 856 q 837 965 865 940 q 773 999 808 989 q 694 1008 738 1008 l 514 1008 l 406 596 l 493 596 q 557 603 531 596 q 605 627 583 610 q 645 675 626 644 q 686 754 664 706 l 738 754 l 654 343 l 599 343 q 603 415 603 385 q 579 506 603 478 q 492 535 556 535 l 388 535 l 308 236 q 296 158 296 190 q 340 84 296 108 q 493 60 385 60 q 631 72 572 60 q 734 112 690 85 q 810 183 778 139 q 872 293 843 228 l 938 293 l 829 0 l -36 0 l -21 56 m 728 1181 l 571 1219 q 507 1243 531 1229 q 483 1276 483 1257 q 505 1318 483 1303 q 550 1333 526 1333 q 602 1322 578 1333 q 658 1288 626 1311 l 811 1181 l 728 1181 z "},"…":{"ha":1003,"x_min":-1,"x_max":832,"o":"m 94 -14 q 27 13 56 -14 q -1 81 -1 39 q 26 151 -1 122 q 94 181 54 181 q 165 151 138 181 q 193 82 193 122 q 164 14 193 42 q 94 -14 135 -14 m 414 -14 q 347 13 375 -14 q 318 81 318 39 q 346 151 318 122 q 414 181 374 181 q 485 151 457 181 q 513 82 513 122 q 483 14 513 42 q 414 -14 454 -14 m 733 -14 q 666 13 694 -14 q 638 81 638 39 q 665 151 638 122 q 733 181 693 181 q 804 151 776 181 q 832 82 832 122 q 803 14 832 42 q 733 -14 774 -14 z "},"É":{"ha":1028,"x_min":-36,"x_max":981,"o":"m -21 56 q 55 63 25 56 q 105 88 85 69 q 139 138 125 107 q 165 219 153 169 l 326 832 q 341 894 336 868 q 346 940 346 921 q 314 1000 346 986 q 207 1014 282 1014 l 222 1069 l 981 1069 l 981 789 l 928 789 q 888 898 910 856 q 837 965 865 940 q 773 999 808 989 q 694 1008 738 1008 l 514 1008 l 406 596 l 493 596 q 557 603 531 596 q 605 627 583 610 q 645 675 626 644 q 686 754 664 706 l 738 754 l 654 343 l 599 343 q 603 415 603 385 q 579 506 603 478 q 492 535 556 535 l 388 535 l 308 236 q 296 158 296 190 q 340 84 296 108 q 493 60 385 60 q 631 72 572 60 q 734 112 690 85 q 810 183 778 139 q 872 293 843 228 l 938 293 l 829 0 l -36 0 l -21 56 m 525 1181 l 733 1288 q 808 1322 778 1311 q 867 1333 839 1333 q 908 1299 908 1333 q 876 1251 908 1271 q 785 1219 844 1232 l 608 1181 l 525 1181 z "},"Ê":{"ha":1028,"x_min":-36,"x_max":981,"o":"m -21 56 q 55 63 25 56 q 105 88 85 69 q 139 138 125 107 q 165 219 153 169 l 326 832 q 341 894 336 868 q 346 940 346 921 q 314 1000 346 986 q 207 1014 282 1014 l 222 1069 l 981 1069 l 981 789 l 928 789 q 888 898 910 856 q 837 965 865 940 q 773 999 808 989 q 694 1008 738 1008 l 514 1008 l 406 596 l 493 596 q 557 603 531 596 q 605 627 583 610 q 645 675 626 644 q 686 754 664 706 l 738 754 l 654 343 l 599 343 q 603 415 603 385 q 579 506 603 478 q 492 535 556 535 l 388 535 l 308 236 q 296 158 296 190 q 340 84 296 108 q 493 60 385 60 q 631 72 572 60 q 734 112 690 85 q 810 183 778 139 q 872 293 843 228 l 938 293 l 829 0 l -36 0 l -21 56 m 781 1333 l 892 1182 l 829 1182 l 683 1257 l 499 1182 l 436 1182 l 628 1333 l 781 1333 z "},"Ë":{"ha":1028,"x_min":-36,"x_max":981,"o":"m -21 56 q 55 63 25 56 q 105 88 85 69 q 139 138 125 107 q 165 219 153 169 l 326 832 q 341 894 336 868 q 346 940 346 921 q 314 1000 346 986 q 207 1014 282 1014 l 222 1069 l 981 1069 l 981 789 l 928 789 q 888 898 910 856 q 837 965 865 940 q 773 999 808 989 q 694 1008 738 1008 l 514 1008 l 406 596 l 493 596 q 557 603 531 596 q 605 627 583 610 q 645 675 626 644 q 686 754 664 706 l 738 754 l 654 343 l 599 343 q 603 415 603 385 q 579 506 603 478 q 492 535 556 535 l 388 535 l 308 236 q 296 158 296 190 q 340 84 296 108 q 493 60 385 60 q 631 72 572 60 q 734 112 690 85 q 810 183 778 139 q 872 293 843 228 l 938 293 l 829 0 l -36 0 l -21 56 m 489 1264 q 522 1313 496 1293 q 576 1333 547 1333 q 617 1319 601 1333 q 632 1282 632 1304 q 624 1248 632 1264 q 602 1219 615 1232 q 572 1200 589 1207 q 539 1193 556 1193 q 501 1207 515 1193 q 486 1243 486 1221 q 489 1264 486 1257 m 742 1264 q 774 1313 749 1293 q 831 1333 800 1333 q 869 1319 854 1333 q 885 1282 885 1304 q 876 1248 885 1264 q 855 1219 868 1232 q 826 1200 842 1207 q 793 1193 810 1193 q 753 1207 768 1193 q 739 1243 739 1221 q 742 1264 739 1257 z "}}}
